<svg width="92" height="84" viewBox="0 0 92 84" fill="none" xmlns="http://www.w3.org/2000/svg">
<path d="M24.5088 29.7103C29.3381 28.6077 34.4065 27.9362 39.6633 27.6691C34.4065 27.402 29.3381 26.7305 24.5088 25.6278C27.1825 21.2515 30.3163 17.0049 33.8558 12.8995C29.9576 16.6272 25.9254 19.9237 21.7699 22.7433C20.7229 17.6573 20.0853 12.3195 19.8317 6.78333C19.5781 12.3195 18.9404 17.6573 17.8934 22.7433C13.7379 19.9275 9.70572 16.6272 5.80749 12.8995C9.34705 17.0049 12.4772 21.2515 15.1546 25.6278C10.3252 26.7305 5.25681 27.402 0 27.6691C5.25681 27.9362 10.3252 28.6077 15.1546 29.7103C12.4809 34.0867 9.34705 38.3333 5.80749 42.4387C9.70572 38.711 13.7379 35.4106 17.8934 32.5948C18.9404 37.6808 19.5781 43.0186 19.8317 48.5549C20.0853 43.0186 20.7229 37.6808 21.7699 32.5948C25.9254 35.4106 29.9576 38.711 33.8558 42.4387C30.3163 38.3333 27.1825 34.0867 24.5088 29.7103Z" fill="#E9C46A" fill-opacity="0.7"/>
<path d="M64.4144 18.0521C65.2183 18.0215 65.8112 17.9985 66.4041 17.9755C66.6442 17.9641 66.8806 17.9257 67.1171 17.8644C70.6492 16.9527 73.3155 14.8112 75.1597 11.5281C75.9709 10.0838 76.4911 8.51701 76.7749 6.86589C76.9349 5.93114 77.0331 4.98874 77.0113 4.03867C76.9894 3.18054 77.0549 2.33008 77.0876 1.47578C77.0949 1.31489 77.0876 1.15014 77.1677 1.00457C77.1786 0.985411 77.2004 0.950931 77.2077 0.954762C77.2477 0.966255 77.2987 0.981588 77.3205 1.01224C77.3569 1.06587 77.3932 1.13482 77.3969 1.19611C77.4151 1.40298 77.4296 1.60985 77.426 1.82055C77.4115 2.97749 77.4806 4.13059 77.5024 5.28753C77.5242 6.26441 77.6915 7.2145 77.9389 8.15307C78.5282 10.398 79.5576 12.3901 81.0817 14.0872C82.8532 16.0562 85.0067 17.3205 87.513 17.9219C88.2041 18.0866 88.9062 18.079 89.6082 18.0828C90.2885 18.0828 90.9686 18.102 91.6489 18.1173C91.6743 18.1173 91.6961 18.1671 91.7216 18.1901C91.7034 18.2054 91.6889 18.2322 91.6707 18.2322C91.4961 18.2513 91.3215 18.2705 91.1469 18.2782C90.2048 18.3126 89.259 18.3433 88.3169 18.3663C87.8295 18.3778 87.3601 18.4659 86.8909 18.6038C83.5625 19.5922 81.0417 21.6839 79.2848 24.8061C78.379 26.415 77.837 28.1696 77.5715 30.0123C77.5133 30.4222 77.5169 30.8436 77.4987 31.2573C77.4515 32.3874 77.4115 33.5214 77.4224 34.6553C77.4224 34.8392 77.4078 35.0231 77.3823 35.207C77.375 35.2645 77.3205 35.3219 77.2805 35.3679C77.2404 35.4139 77.2077 35.4024 77.1749 35.3526C77.0913 35.23 77.0986 35.0921 77.0913 34.9542C77.0586 34.1228 76.9858 33.2954 77.0113 32.4602C77.0404 31.4144 76.9494 30.38 76.753 29.3572C76.0364 25.6144 74.2649 22.5803 71.2602 20.3928C70.2235 19.6381 69.0922 19.0903 67.8882 18.6958C67.4044 18.5387 66.9098 18.4314 66.4041 18.4084C65.8549 18.3816 65.3092 18.3625 64.7599 18.351C64.167 18.3395 63.574 18.3395 62.9811 18.3318C62.8975 18.3318 62.8102 18.305 62.7265 18.2858C62.6683 18.2743 62.6137 18.1786 62.6392 18.1326C62.661 18.0943 62.6901 18.0406 62.7229 18.0368C62.8502 18.0215 62.9812 18.0138 63.1121 18.0177C63.6177 18.0292 64.1197 18.0445 64.4144 18.0521Z" fill="#E9C46A" fill-opacity="0.7"/>
<path d="M62.8135 29.6024C63.2246 29.587 63.5265 29.5756 63.8284 29.5641C63.9521 29.5602 64.0721 29.5372 64.1922 29.5066C65.9964 29.0392 67.3569 27.9474 68.299 26.2695C68.7137 25.5301 68.9793 24.7332 69.1248 23.8866C69.2084 23.4077 69.2594 22.9289 69.2448 22.4424C69.2339 22.0056 69.2666 21.5689 69.2848 21.1322C69.2848 21.0518 69.2848 20.9675 69.3248 20.8909C69.3321 20.8794 69.343 20.864 69.3466 20.864C69.3684 20.8717 69.3939 20.8755 69.4049 20.8947C69.423 20.9215 69.4412 20.956 69.4448 20.9905C69.4521 21.0977 69.463 21.2011 69.4594 21.3084C69.4521 21.8984 69.4885 22.4883 69.4994 23.0783C69.5104 23.5763 69.5976 24.0629 69.7213 24.5417C70.0232 25.6872 70.5471 26.7062 71.3255 27.572C72.2276 28.5795 73.3298 29.2231 74.6103 29.5296C74.9631 29.6138 75.3232 29.61 75.6797 29.61C76.0252 29.61 76.3744 29.6215 76.72 29.6292C76.7309 29.6292 76.7455 29.6522 76.7564 29.6675C76.7491 29.6752 76.7418 29.6905 76.7309 29.6905C76.6436 29.6981 76.5527 29.7096 76.4654 29.7135C75.9852 29.7288 75.5014 29.748 75.0213 29.7594C74.7739 29.7671 74.5338 29.8092 74.2937 29.882C72.5914 30.3877 71.3073 31.4565 70.4088 33.0502C69.9469 33.8738 69.6704 34.7664 69.5358 35.7088C69.5067 35.9195 69.5067 36.1341 69.4994 36.3448C69.474 36.9232 69.4558 37.5017 69.4594 38.0802C69.4594 38.176 69.4521 38.2679 69.4375 38.3637C69.4339 38.3943 69.4048 38.4211 69.3867 38.4479C69.3648 38.4709 69.3503 38.4633 69.3321 38.4403C69.2885 38.379 69.2921 38.3062 69.2884 38.2373C69.2702 37.812 69.2338 37.3906 69.2484 36.9654C69.2629 36.4329 69.2157 35.9042 69.1175 35.3832C68.7501 33.4716 67.848 31.9239 66.3129 30.8053C65.7855 30.4184 65.2035 30.1387 64.5924 29.9395C64.345 29.859 64.094 29.8054 63.8357 29.7939C63.5556 29.7824 63.2755 29.7709 62.9954 29.7633C62.6935 29.7556 62.3916 29.7594 62.0897 29.7518C62.046 29.7518 62.0024 29.7364 61.9588 29.7288C61.9297 29.7211 61.9005 29.6752 61.9151 29.6522C61.926 29.633 61.9406 29.6062 61.9588 29.6024C62.0242 29.5947 62.0896 29.5909 62.1587 29.5909C62.417 29.5947 62.6753 29.6024 62.8245 29.61L62.8135 29.6024Z" fill="#E9C46A" fill-opacity="0.7"/>
<path d="M41.3938 74.6022C41.8057 74.5871 42.1082 74.5757 42.4107 74.5643C42.5346 74.5606 42.6549 74.5378 42.7752 74.5075C44.5829 74.0453 45.946 72.9654 46.8899 71.3059C47.3054 70.5746 47.5714 69.7865 47.7172 68.9492C47.801 68.4756 47.8521 68.0019 47.8375 67.5207C47.8266 67.0888 47.8593 66.6569 47.8776 66.225C47.8776 66.1454 47.8776 66.062 47.9177 65.9863C47.925 65.9749 47.9358 65.9597 47.9395 65.9597C47.9614 65.9673 47.9869 65.9711 47.9979 65.9901C48.0161 66.0166 48.0343 66.0507 48.0379 66.0848C48.0452 66.1909 48.0561 66.2932 48.0525 66.3992C48.0452 66.9827 48.0817 67.5662 48.0926 68.1497C48.1036 68.6423 48.191 69.1235 48.3149 69.5971C48.6174 70.73 49.1423 71.7378 49.9222 72.5941C50.8261 73.5906 51.9304 74.2271 53.2133 74.5302C53.5668 74.6136 53.9276 74.6098 54.2847 74.6098C54.631 74.6098 54.9808 74.6211 55.327 74.6287C55.338 74.6287 55.3526 74.6515 55.3635 74.6666C55.3562 74.6742 55.3489 74.6894 55.338 74.6894C55.2505 74.6969 55.1594 74.7083 55.0719 74.7121C54.5909 74.7273 54.1061 74.7462 53.6251 74.7576C53.3772 74.7652 53.1367 74.8068 52.8961 74.8788C51.1905 75.3789 49.904 76.436 49.0038 78.0122C48.5409 78.8268 48.2639 79.7096 48.129 80.6417C48.0999 80.8501 48.0999 81.0623 48.0926 81.2707C48.0671 81.8428 48.0488 82.4149 48.0525 82.9871C48.0525 83.0818 48.0452 83.1727 48.0306 83.2674C48.027 83.2977 47.9978 83.3243 47.9796 83.3508C47.9578 83.3735 47.9432 83.3659 47.925 83.3432C47.8813 83.2826 47.8849 83.2106 47.8812 83.1424C47.863 82.7218 47.8265 82.305 47.8411 81.8845C47.8557 81.3578 47.8083 80.835 47.7099 80.3197C47.3418 78.429 46.438 76.8983 44.9 75.7919C44.3715 75.4093 43.7884 75.1327 43.1761 74.9356C42.9283 74.8561 42.6768 74.803 42.418 74.7917C42.1374 74.7803 41.8567 74.7689 41.5761 74.7614C41.2736 74.7538 40.9711 74.7576 40.6686 74.75C40.6248 74.75 40.5812 74.7348 40.5374 74.7272C40.5083 74.7197 40.4791 74.6742 40.4937 74.6515C40.5046 74.6325 40.5192 74.606 40.5374 74.6022C40.603 74.5946 40.6686 74.5908 40.7378 74.5908C40.9966 74.5946 41.2554 74.6022 41.4048 74.6098L41.3938 74.6022Z" fill="#E9C46A" fill-opacity="0.7"/>
</svg>
