<svg width="244" height="36" viewBox="0 0 244 36" fill="none" xmlns="http://www.w3.org/2000/svg">
<path d="M87.8875 7L87.8424 7.04403L87.7974 7.08805V7.13208L87.7524 7.1761V7.22013L87.7074 7.26415V7.30818V7.3522V7.39623V7.44025V7.48428L87.6624 7.5283V7.57233V7.61635V7.66038V7.7044V7.74843V7.79245V7.83648V7.8805L87.6174 7.92453V7.96855V8.01258V8.0566V8.10063V8.14465V8.18868V8.2327L87.5723 8.27673V8.32075V8.36478V8.40881V8.45283V8.49686V8.54088V8.58491L87.5273 8.62893V8.67296V8.71698V8.76101V8.80503V8.84906V8.89308V8.93711L87.4823 8.98113V9.02516V9.06918V9.11321V9.15723V9.20126L87.4373 9.24528V9.28931V9.33333V9.37736V9.42138V9.46541V9.50943L87.3923 9.55346V9.59748V9.64151V9.68553V9.72956V9.77358L87.3473 9.81761V9.86164V9.90566V9.94969V9.99371V10.0377L87.3023 10.0818V10.1258V10.1698V10.2138V10.2579L87.2572 10.3019V10.3459V10.3899V10.434V10.478L87.2122 10.522V10.566V10.6101V10.6541V10.6981L87.1672 10.7421V10.7862V10.8302V10.8742L87.1222 10.9182V10.9623V11.0063V11.0503L87.0772 11.0943V11.1384V11.1824L87.0322 11.2264V11.2704V11.3145L86.9871 11.3585V11.4025V11.4465L86.9421 11.4906V11.5346V11.5786L86.8971 11.6226V11.6667L86.8521 11.7107V11.7547V11.7987L86.8071 11.8428V11.8868L86.7621 11.9308V11.9748L86.717 12.0189L86.672 12.0629V12.1069L86.627 12.1509V12.195L86.582 12.239L86.537 12.283L86.492 12.327V12.3711L86.4469 12.4151L86.4019 12.4591L86.3569 12.5031L86.3119 12.5472L86.2669 12.5912L86.2219 12.6352L86.1768 12.6792L86.1318 12.7233H86.0868L86.0418 12.7673L85.9968 12.8113L85.9518 12.8553H85.9068L85.8617 12.8994H85.8167L85.7717 12.9434H85.7267L85.6817 12.9874H85.6367L85.5916 13.0314H85.5466L85.5016 13.0755H85.4566H85.4116L85.3666 13.1195H85.3215H85.2765H85.2315L85.1865 13.1635H85.1415H85.0965L85.0514 13.2075H85.0064H84.9614H84.9164L84.8714 13.2516H84.8264H84.7814L84.7363 13.2956H84.6913H84.6463H84.6013H84.5563L84.5113 13.3396H84.4662H84.4212H84.3762H84.3312L84.2862 13.3836H84.2412H84.1961H84.1511H84.1061H84.0611L84.0161 13.4277H83.9711H83.926H83.881H83.836H83.791L83.746 13.4717H83.701H83.6559H83.6109H83.5659H83.5209H83.4759L83.4309 13.5157H83.3859H83.3408H83.2958H83.2508H83.2058H83.1608L83.1158 13.5597H83.0707H83.0257H82.9807H82.9357H82.8907H82.8457H82.8006L82.7556 13.6038H82.7106H82.6656H82.6206H82.5756H82.5305H82.4855H82.4405H82.3955L82.3505 13.6478H82.3055H82.2605H82.2154H82.1704H82.1254H82.0804H82.0354H81.9904H81.9453H81.9003L81.8553 13.6918H81.8103H81.7653H81.7203H81.6752H81.6302H81.5852H81.5402H81.4952H81.4502L81.4051 13.7358H81.3601H81.3151H81.2701H81.2251H81.1801L81.135 13.7799H81.09L81.045 13.8239L81 13.8679V13.9119V13.956V14V14.044V14.0881V14.1321L81.045 14.1761V14.2201H81.09L81.135 14.2642H81.1801H81.2251L81.2701 14.3082H81.3151H81.3601H81.4051H81.4502H81.4952L81.5402 14.3522H81.5852H81.6302H81.6752H81.7203H81.7653H81.8103H81.8553H81.9003L81.9453 14.3962H81.9904H82.0354H82.0804H82.1254H82.1704H82.2154H82.2605L82.3055 14.4403H82.3505H82.3955H82.4405H82.4855H82.5305H82.5756H82.6206L82.6656 14.4843H82.7106H82.7556H82.8006H82.8457H82.8907H82.9357L82.9807 14.5283H83.0257H83.0707H83.1158H83.1608H83.2058H83.2508L83.2958 14.5723H83.3408H83.3859H83.4309H83.4759H83.5209L83.5659 14.6164H83.6109H83.6559H83.701H83.746H83.791L83.836 14.6604H83.881H83.926H83.9711H84.0161H84.0611L84.1061 14.7044H84.1511H84.1961H84.2412H84.2862L84.3312 14.7484H84.3762H84.4212H84.4662L84.5113 14.7925H84.5563H84.6013H84.6463L84.6913 14.8365H84.7363H84.7814H84.8264L84.8714 14.8805H84.9164H84.9614H85.0064L85.0514 14.9245H85.0965H85.1415L85.1865 14.9686H85.2315H85.2765L85.3215 15.0126H85.3666H85.4116L85.4566 15.0566H85.5016H85.5466L85.5916 15.1006H85.6367L85.6817 15.1447H85.7267L85.7717 15.1887H85.8167L85.8617 15.2327L85.9068 15.2767H85.9518L85.9968 15.3208L86.0418 15.3648L86.0868 15.4088L86.1318 15.4528H86.1768L86.2219 15.4969L86.2669 15.5409L86.3119 15.5849L86.3569 15.6289L86.4019 15.673V15.717L86.4469 15.761L86.492 15.805L86.537 15.8491L86.582 15.8931V15.9371L86.627 15.9811L86.672 16.0252V16.0692L86.717 16.1132V16.1572L86.7621 16.2013V16.2453L86.8071 16.2893V16.3333L86.8521 16.3774V16.4214L86.8971 16.4654V16.5094L86.9421 16.5535V16.5975V16.6415L86.9871 16.6855V16.7296L87.0322 16.7736V16.8176V16.8616V16.9057L87.0772 16.9497V16.9937V17.0377L87.1222 17.0818V17.1258V17.1698V17.2138L87.1672 17.2579V17.3019V17.3459V17.3899L87.2122 17.434V17.478V17.522V17.566L87.2572 17.6101V17.6541V17.6981V17.7421V17.7862L87.3023 17.8302V17.8742V17.9182V17.9623L87.3473 18.0063V18.0503V18.0943V18.1384V18.1824V18.2264V18.2704L87.3923 18.3145V18.3585V18.4025V18.4465V18.4906V18.5346L87.4373 18.5786V18.6226V18.6667V18.7107V18.7547V18.7987V18.8428L87.4823 18.8868V18.9308V18.9748V19.0189V19.0629V19.1069V19.1509L87.5273 19.195V19.239V19.283V19.327V19.3711V19.4151V19.4591V19.5031L87.5723 19.5472V19.5912V19.6352V19.6792V19.7233V19.7673V19.8113L87.6174 19.8553V19.8994V19.9434V19.9874V20.0314V20.0755V20.1195V20.1635L87.6624 20.2075V20.2516V20.2956V20.3396V20.3836V20.4277V20.4717L87.7074 20.5157V20.5597V20.6038V20.6478V20.6918V20.7358L87.7524 20.7799V20.8239L87.7974 20.8679V20.9119L87.8424 20.956H87.8875L87.9325 21H87.9775H88.0225H88.0675L88.1125 20.956H88.1576L88.2026 20.9119L88.2476 20.8679V20.8239L88.2926 20.7799V20.7358V20.6918L88.3376 20.6478V20.6038V20.5597V20.5157V20.4717V20.4277L88.3826 20.3836V20.3396V20.2956V20.2516V20.2075V20.1635V20.1195V20.0755L88.4277 20.0314V19.9874V19.9434V19.8994V19.8553V19.8113V19.7673V19.7233V19.6792L88.4727 19.6352V19.5912V19.5472V19.5031V19.4591V19.4151V19.3711V19.327L88.5177 19.283V19.239V19.195V19.1509V19.1069V19.0629V19.0189V18.9748L88.5627 18.9308V18.8868V18.8428V18.7987V18.7547V18.7107V18.6667L88.6077 18.6226V18.5786V18.5346V18.4906V18.4465V18.4025V18.3585L88.6527 18.3145V18.2704V18.2264V18.1824V18.1384V18.0943L88.6977 18.0503V18.0063V17.9623V17.9182V17.8742V17.8302L88.7428 17.7862V17.7421V17.6981V17.6541V17.6101L88.7878 17.566V17.522V17.478V17.434L88.8328 17.3899V17.3459V17.3019V17.2579L88.8778 17.2138V17.1698V17.1258V17.0818L88.9228 17.0377V16.9937V16.9497V16.9057L88.9678 16.8616V16.8176V16.7736L89.0129 16.7296V16.6855V16.6415L89.0579 16.5975V16.5535V16.5094L89.1029 16.4654V16.4214L89.1479 16.3774V16.3333V16.2893L89.1929 16.2453V16.2013L89.2379 16.1572V16.1132L89.283 16.0692V16.0252L89.328 15.9811L89.373 15.9371V15.8931L89.418 15.8491L89.463 15.805V15.761L89.508 15.717L89.5531 15.673L89.5981 15.6289L89.6431 15.5849V15.5409L89.6881 15.4969L89.7331 15.4528H89.7781L89.8232 15.4088L89.8682 15.3648L89.9132 15.3208H89.9582L90.0032 15.2767L90.0482 15.2327H90.0932L90.1383 15.1887H90.1833L90.2283 15.1447H90.2733L90.3183 15.1006H90.3633L90.4084 15.0566H90.4534H90.4984L90.5434 15.0126H90.5884L90.6334 14.9686H90.6785H90.7235L90.7685 14.9245H90.8135H90.8585L90.9035 14.8805H90.9486H90.9936H91.0386L91.0836 14.8365H91.1286H91.1736H91.2186L91.2637 14.7925H91.3087H91.3537H91.3987L91.4437 14.7484H91.4887H91.5338H91.5788H91.6238L91.6688 14.7044H91.7138H91.7588H91.8039H91.8489H91.8939L91.9389 14.6604H91.9839H92.0289H92.074H92.119L92.164 14.6164H92.209H92.254H92.299H92.3441H92.3891L92.4341 14.5723H92.4791H92.5241H92.5691H92.6141H92.6592L92.7042 14.5283H92.7492H92.7942H92.8392H92.8842H92.9293H92.9743L93.0193 14.4843H93.0643H93.1093H93.1543H93.1994H93.2444H93.2894L93.3344 14.4403H93.3794H93.4244H93.4695H93.5145H93.5595H93.6045H93.6495L93.6945 14.3962H93.7395H93.7846H93.8296H93.8746H93.9196H93.9646H94.0096H94.0547L94.0997 14.3522H94.1447H94.1897H94.2347H94.2797H94.3248H94.3698H94.4148H94.4598L94.5048 14.3082H94.5498H94.5949H94.6399H94.6849H94.7299L94.7749 14.2642H94.8199H94.865L94.91 14.2201L94.955 14.1761V14.1321L95 14.0881V14.044V14V13.956L94.955 13.9119V13.8679L94.91 13.8239L94.865 13.7799H94.8199L94.7749 13.7358H94.7299H94.6849H94.6399H94.5949L94.5498 13.6918H94.5048H94.4598H94.4148H94.3698H94.3248H94.2797H94.2347H94.1897L94.1447 13.6478H94.0997H94.0547H94.0096H93.9646H93.9196H93.8746H93.8296H93.7846H93.7395H93.6945L93.6495 13.6038H93.6045H93.5595H93.5145H93.4695H93.4244H93.3794H93.3344H93.2894L93.2444 13.5597H93.1994H93.1543H93.1093H93.0643H93.0193H92.9743H92.9293L92.8842 13.5157H92.8392H92.7942H92.7492H92.7042H92.6592H92.6141L92.5691 13.4717H92.5241H92.4791H92.4341H92.3891H92.3441L92.299 13.4277H92.254H92.209H92.164H92.119H92.074H92.0289L91.9839 13.3836H91.9389H91.8939H91.8489H91.8039H91.7588L91.7138 13.3396H91.6688H91.6238H91.5788L91.5338 13.2956H91.4887H91.4437H91.3987H91.3537L91.3087 13.2516H91.2637H91.2186H91.1736L91.1286 13.2075H91.0836H91.0386H90.9936L90.9486 13.1635H90.9035H90.8585L90.8135 13.1195H90.7685H90.7235H90.6785L90.6334 13.0755H90.5884H90.5434L90.4984 13.0314H90.4534L90.4084 12.9874H90.3633L90.3183 12.9434H90.2733L90.2283 12.8994H90.1833L90.1383 12.8553H90.0932L90.0482 12.8113L90.0032 12.7673H89.9582L89.9132 12.7233L89.8682 12.6792L89.8232 12.6352L89.7781 12.5912L89.7331 12.5472L89.6881 12.5031L89.6431 12.4591L89.5981 12.4151L89.5531 12.3711L89.508 12.327V12.283L89.463 12.239L89.418 12.195L89.373 12.1509V12.1069L89.328 12.0629V12.0189L89.283 11.9748L89.2379 11.9308V11.8868L89.1929 11.8428V11.7987L89.1479 11.7547V11.7107V11.6667L89.1029 11.6226V11.5786V11.5346L89.0579 11.4906V11.4465L89.0129 11.4025V11.3585V11.3145L88.9678 11.2704V11.2264V11.1824L88.9228 11.1384V11.0943V11.0503V11.0063L88.8778 10.9623V10.9182V10.8742L88.8328 10.8302V10.7862V10.7421V10.6981V10.6541L88.7878 10.6101V10.566V10.522V10.478L88.7428 10.434V10.3899V10.3459V10.3019V10.2579V10.2138L88.6977 10.1698V10.1258V10.0818V10.0377V9.99371L88.6527 9.94969V9.90566V9.86164V9.81761V9.77358V9.72956L88.6077 9.68553V9.64151V9.59748V9.55346V9.50943V9.46541V9.42138L88.5627 9.37736V9.33333V9.28931V9.24528V9.20126V9.15723V9.11321L88.5177 9.06918V9.02516V8.98113V8.93711V8.89308V8.84906L88.4727 8.80503V8.76101V8.71698V8.67296V8.62893V8.58491V8.54088V8.49686L88.4277 8.45283V8.40881V8.36478V8.32075V8.27673V8.2327V8.18868V8.14465L88.3826 8.10063V8.0566V8.01258V7.96855V7.92453V7.8805V7.83648V7.79245V7.74843L88.3376 7.7044V7.66038V7.61635V7.57233V7.5283V7.48428V7.44025V7.39623L88.2926 7.3522V7.30818V7.26415V7.22013L88.2476 7.1761V7.13208V7.08805L88.2026 7.04403H88.1576L88.1125 7H88.0675H88.0225H87.9775H87.9325H87.8875Z" fill="#F9F7F1"/>
<path d="M9 29.325C7.75 29.325 6.325 29.0083 4.725 28.375C4.50833 28.275 4.3 28.225 4.1 28.225C3.86667 28.225 3.625 28.3083 3.375 28.475C3.125 28.625 2.825 28.875 2.475 29.225L1.325 24.325L1.275 24.1C1.275 24.0667 1.29167 24.0333 1.325 24C1.375 23.9667 1.41667 23.9417 1.45 23.925C1.5 23.9083 1.53333 23.8917 1.55 23.875C1.58333 23.8583 1.63333 23.85 1.7 23.85C1.76667 23.85 1.85833 23.9167 1.975 24.05C3.84167 26.8833 6.1 28.3 8.75 28.3C9.81667 28.3 10.7083 28.025 11.425 27.475C12.1583 26.925 12.525 26.1083 12.525 25.025C12.525 23.7583 11.8333 22.8167 10.45 22.2C9.76667 21.9 8.85 21.5667 7.7 21.2C7.55 21.15 7.175 21.025 6.575 20.825C5.975 20.625 5.44167 20.4083 4.975 20.175C3.00833 19.175 2.025 17.675 2.025 15.675C2.025 14.925 2.2 14.1417 2.55 13.325C2.9 12.5083 3.50833 11.8083 4.375 11.225C5.25833 10.625 6.425 10.325 7.875 10.325C8.39167 10.325 8.89167 10.3833 9.375 10.5C9.875 10.6167 10.475 10.7917 11.175 11.025C11.4417 11.125 11.675 11.175 11.875 11.175C12.3417 11.175 12.8083 10.8917 13.275 10.325L14.55 14.65L14.6 14.825C14.6 14.925 14.525 15 14.375 15.05C14.275 15.0833 14.2 15.1 14.15 15.1C14.0667 15.1 13.9833 15.05 13.9 14.95C13.7 14.6167 13.3417 14.1667 12.825 13.6C12.3083 13.0167 11.6083 12.475 10.725 11.975C9.85833 11.4583 8.88333 11.2 7.8 11.2C6.83333 11.2 6.09167 11.4083 5.575 11.825C5.05833 12.225 4.71667 12.6583 4.55 13.125C4.38333 13.5917 4.3 13.9917 4.3 14.325C4.3 15.3917 4.85 16.2167 5.95 16.8C6.3 16.9833 6.75833 17.1833 7.325 17.4C7.90833 17.6 8.5 17.8 9.1 18C10.5 18.45 11.55 18.8333 12.25 19.15C13.4333 19.7167 14.275 20.4083 14.775 21.225C15.275 22.025 15.525 22.8917 15.525 23.825C15.525 24.8583 15.2667 25.7917 14.75 26.625C14.25 27.4583 13.5083 28.1167 12.525 28.6C11.5417 29.0833 10.3667 29.325 9 29.325ZM23.4766 29.325C22.3932 29.325 21.5682 29.0167 21.0016 28.4C20.4349 27.7833 20.1349 26.8833 20.1016 25.7V17.725H17.9266V16.875C19.1099 16.6083 20.0849 16.1 20.8516 15.35C21.6349 14.5833 22.1766 13.3833 22.4766 11.75H22.9766V16.875H26.1516V17.725H22.9766L22.9266 23.5L22.9516 25.575C23.0349 27.125 23.6182 27.9 24.7016 27.9C25.0516 27.9 25.3516 27.8333 25.6016 27.7C25.8516 27.5667 26.1349 27.3333 26.4516 27C26.5349 26.9 26.6099 26.85 26.6766 26.85C26.7432 26.85 26.8099 26.8917 26.8766 26.975C26.9599 27.0417 27.0016 27.1083 27.0016 27.175C27.0016 27.2083 26.9849 27.2583 26.9516 27.325C26.4849 28.0417 25.9682 28.5583 25.4016 28.875C24.8349 29.175 24.1932 29.325 23.4766 29.325ZM40.4254 25.8C40.5087 25.85 40.5504 25.9333 40.5504 26.05L40.5254 26.225C40.1421 27.0417 39.5254 27.7667 38.6754 28.4C37.8421 29.0167 36.7921 29.325 35.5254 29.325C34.3087 29.325 33.2087 29.05 32.2254 28.5C31.2421 27.95 30.4671 27.2 29.9004 26.25C29.3504 25.2833 29.0754 24.2333 29.0754 23.1C29.0754 22.0667 29.3087 21.05 29.7754 20.05C30.2587 19.05 30.9671 18.225 31.9004 17.575C32.8337 16.925 33.9421 16.6 35.2254 16.6C36.1587 16.6 37.0171 16.8167 37.8004 17.25C38.5837 17.6833 39.2254 18.3 39.7254 19.1C40.2421 19.9 40.5587 20.85 40.6754 21.95L32.2254 22C32.2087 22.1833 32.2004 22.475 32.2004 22.875C32.2004 24.3417 32.5421 25.575 33.2254 26.575C33.9087 27.575 34.8921 28.075 36.1754 28.075C37.7421 28.075 39.0254 27.3417 40.0254 25.875C40.0754 25.7917 40.1504 25.75 40.2504 25.75C40.2671 25.75 40.3254 25.7667 40.4254 25.8ZM35.1254 17.3C34.5421 17.3 33.9671 17.5833 33.4004 18.15C32.8504 18.7 32.4837 19.6917 32.3004 21.125L37.6004 21.075V20.65C37.5837 19.6 37.3337 18.7833 36.8504 18.2C36.3837 17.6 35.8087 17.3 35.1254 17.3ZM43.9682 29C43.8348 29 43.7682 28.8917 43.7682 28.675C43.7682 28.4917 43.8348 28.4 43.9682 28.4H44.2182C44.7015 28.4 45.0848 28.325 45.3682 28.175C45.6515 28.025 45.7932 27.7 45.7932 27.2L45.7432 13.175C45.7432 12.6417 45.6182 12.2917 45.3682 12.125C45.1348 11.9583 44.7348 11.8583 44.1682 11.825C44.0015 11.825 43.9182 11.7 43.9182 11.45C43.9182 11.35 43.9682 11.2917 44.0682 11.275C44.5515 11.1583 45.2598 11 46.1932 10.8C47.1265 10.6 47.9515 10.4333 48.6682 10.3V27.2C48.6682 27.7 48.8015 28.025 49.0682 28.175C49.3515 28.325 49.7348 28.4 50.2182 28.4H50.4932C50.6098 28.4 50.6682 28.4917 50.6682 28.675C50.6682 28.8917 50.6098 29 50.4932 29H43.9682ZM53.5619 29C53.4286 29 53.3619 28.8917 53.3619 28.675C53.3619 28.4917 53.4286 28.4 53.5619 28.4H53.8119C54.2952 28.4 54.6786 28.325 54.9619 28.175C55.2452 28.025 55.3869 27.7 55.3869 27.2L55.3369 13.175C55.3369 12.6417 55.2119 12.2917 54.9619 12.125C54.7286 11.9583 54.3286 11.8583 53.7619 11.825C53.5952 11.825 53.5119 11.7 53.5119 11.45C53.5119 11.35 53.5619 11.2917 53.6619 11.275C54.1452 11.1583 54.8536 11 55.7869 10.8C56.7202 10.6 57.5452 10.4333 58.2619 10.3V27.2C58.2619 27.7 58.3952 28.025 58.6619 28.175C58.9452 28.325 59.3286 28.4 59.8119 28.4H60.0869C60.2036 28.4 60.2619 28.4917 60.2619 28.675C60.2619 28.8917 60.2036 29 60.0869 29H53.5619ZM75.9807 26.8C76.114 26.8 76.1807 26.8583 76.1807 26.975L76.1557 27.125C75.9557 27.7583 75.5807 28.275 75.0307 28.675C74.4973 29.075 73.939 29.275 73.3557 29.275C72.1557 29.275 71.3807 28.7167 71.0307 27.6C70.3807 28.1667 69.6557 28.6 68.8557 28.9C68.0557 29.2 67.264 29.35 66.4807 29.35C65.4473 29.35 64.639 29.1167 64.0557 28.65C63.4723 28.1667 63.1807 27.4917 63.1807 26.625C63.1807 25.3583 63.8723 24.35 65.2557 23.6C65.639 23.4 66.0723 23.2417 66.5557 23.125C67.039 22.9917 67.689 22.8417 68.5057 22.675C68.7557 22.625 69.114 22.55 69.5807 22.45C70.064 22.3333 70.489 22.225 70.8557 22.125V21C70.8557 20.05 70.8223 19.375 70.7557 18.975C70.7057 18.5583 70.5723 18.2167 70.3557 17.95C70.039 17.5333 69.5473 17.325 68.8807 17.325C68.4307 17.325 68.0473 17.4667 67.7307 17.75C67.414 18.0167 67.1557 18.5417 66.9557 19.325C66.8057 19.8917 66.5807 20.3167 66.2807 20.6C65.9973 20.8667 65.664 21 65.2807 21C64.8973 21 64.5557 20.8917 64.2557 20.675C63.9557 20.4417 63.8057 20.1167 63.8057 19.7C63.8057 19.3833 63.9307 18.9917 64.1807 18.525C64.4473 18.0417 64.9557 17.6 65.7057 17.2C66.4557 16.8 67.514 16.6 68.8807 16.6C69.8807 16.6 70.7223 16.7333 71.4057 17C72.089 17.2667 72.6223 17.625 73.0057 18.075C73.3057 18.4083 73.5057 18.775 73.6057 19.175C73.7057 19.575 73.7557 20.0667 73.7557 20.65C73.7557 21.7833 73.7473 22.65 73.7307 23.25L73.7057 26.05C73.7057 26.7667 73.789 27.2333 73.9557 27.45C74.139 27.6667 74.3557 27.775 74.6057 27.775C74.8057 27.775 75.014 27.7083 75.2307 27.575C75.4473 27.425 75.639 27.2083 75.8057 26.925C75.8557 26.8417 75.914 26.8 75.9807 26.8ZM68.1557 27.975C68.6057 27.975 69.064 27.8833 69.5307 27.7C70.014 27.5167 70.4557 27.25 70.8557 26.9C70.8057 26.5167 70.7807 26.1333 70.7807 25.75L70.8307 22.825C69.2307 23.225 68.0557 23.7167 67.3057 24.3C66.5557 24.8667 66.1807 25.575 66.1807 26.425C66.1807 26.875 66.3557 27.25 66.7057 27.55C67.0557 27.8333 67.539 27.975 68.1557 27.975Z" fill="#F9F7F1"/>
<path d="M119.825 28.375C119.942 28.375 120 28.4833 120 28.7C120 28.9 119.942 29 119.825 29H111.45C111.333 29 111.275 28.9 111.275 28.7C111.275 28.4833 111.333 28.375 111.45 28.375C111.983 28.375 112.383 28.3167 112.65 28.2C112.933 28.0833 113.075 27.8917 113.075 27.625C113.075 27.3417 112.883 26.9333 112.5 26.4L109.7 22.775L107.625 20.1L106.75 21L106.05 21.725V26.375C106.05 27.1583 106.242 27.6917 106.625 27.975C107.008 28.2417 107.517 28.375 108.15 28.375H108.45C108.567 28.375 108.625 28.475 108.625 28.675C108.625 28.8917 108.567 29 108.45 29H100.35C100.233 29 100.175 28.8917 100.175 28.675C100.175 28.475 100.233 28.375 100.35 28.375H100.675C101.308 28.375 101.808 28.2333 102.175 27.95C102.558 27.6667 102.75 27.1417 102.75 26.375V13.2C102.75 12.4167 102.558 11.8917 102.175 11.625C101.792 11.3417 101.292 11.2 100.675 11.2H100.35C100.233 11.2 100.175 11.0917 100.175 10.875C100.175 10.675 100.233 10.575 100.35 10.575H108.45C108.583 10.575 108.65 10.675 108.65 10.875C108.65 11.0917 108.583 11.2 108.45 11.2H108.15C107.5 11.2 106.983 11.3417 106.6 11.625C106.233 11.8917 106.05 12.4167 106.05 13.2V20.4C107.383 19 108.783 17.5167 110.25 15.95C111.733 14.3833 112.633 13.4167 112.95 13.05C113.2 12.75 113.325 12.475 113.325 12.225C113.325 11.9083 113.15 11.6583 112.8 11.475C112.45 11.275 111.975 11.175 111.375 11.175C111.258 11.175 111.2 11.0667 111.2 10.85C111.2 10.6667 111.258 10.575 111.375 10.575H118.75C118.883 10.575 118.95 10.6667 118.95 10.85C118.95 11.0667 118.883 11.175 118.75 11.175C117.2 11.175 115.767 11.8083 114.45 13.075C114.2 13.2917 112.85 14.675 110.4 17.225L109.95 17.675L111.25 19.4C113.933 23.0333 115.6 25.25 116.25 26.05C116.767 26.7 117.167 27.175 117.45 27.475C117.75 27.7583 118.083 27.9833 118.45 28.15C118.817 28.3 119.275 28.375 119.825 28.375ZM136.172 28.4C136.305 28.4 136.372 28.5 136.372 28.7C136.372 28.9 136.305 29 136.172 29H129.872C129.755 29 129.697 28.9 129.697 28.7C129.697 28.5 129.755 28.4 129.872 28.4H130.172C130.638 28.4 130.988 28.325 131.222 28.175C131.472 28.025 131.597 27.7 131.597 27.2L131.622 22.8C131.622 22 131.605 21.3 131.572 20.7C131.538 19.8333 131.363 19.1417 131.047 18.625C130.73 18.1083 130.188 17.85 129.422 17.85C128.872 17.85 128.347 18.0333 127.847 18.4C127.347 18.7667 126.905 19.2833 126.522 19.95V27.2C126.522 27.7 126.647 28.025 126.897 28.175C127.147 28.325 127.505 28.4 127.972 28.4H128.272C128.388 28.4 128.447 28.5 128.447 28.7C128.447 28.9 128.388 29 128.272 29H121.947C121.813 29 121.747 28.9 121.747 28.7C121.747 28.5 121.813 28.4 121.947 28.4H122.197C122.68 28.4 123.047 28.325 123.297 28.175C123.547 28.025 123.672 27.7 123.672 27.2L123.647 19.5C123.647 18.9833 123.513 18.6417 123.247 18.475C122.997 18.2917 122.588 18.1833 122.022 18.15C121.872 18.1333 121.797 18 121.797 17.75C121.797 17.65 121.847 17.5917 121.947 17.575C122.113 17.5083 123.638 17.1833 126.522 16.6V18.825C126.988 18.1417 127.547 17.6 128.197 17.2C128.847 16.8 129.563 16.6 130.347 16.6C131.247 16.6 132.005 16.7833 132.622 17.15C133.238 17.5167 133.697 17.9917 133.997 18.575C134.297 19.1583 134.455 19.775 134.472 20.425V22.725V27.2C134.472 27.7 134.597 28.025 134.847 28.175C135.097 28.325 135.455 28.4 135.922 28.4H136.172ZM145.385 29.325C144.152 29.325 143.06 29.025 142.11 28.425C141.16 27.8083 140.427 27.0083 139.91 26.025C139.393 25.0417 139.135 24.0167 139.135 22.95C139.135 21.85 139.393 20.8167 139.91 19.85C140.427 18.8667 141.16 18.0833 142.11 17.5C143.06 16.9 144.152 16.6 145.385 16.6C146.618 16.6 147.71 16.9 148.66 17.5C149.627 18.0833 150.368 18.8667 150.885 19.85C151.418 20.8167 151.685 21.85 151.685 22.95C151.685 24.0167 151.418 25.0417 150.885 26.025C150.368 27.0083 149.627 27.8083 148.66 28.425C147.71 29.025 146.618 29.325 145.385 29.325ZM145.385 28.65C146.402 28.65 147.193 28.1 147.76 27C148.343 25.8833 148.635 24.5333 148.635 22.95C148.635 21.3333 148.352 19.9917 147.785 18.925C147.218 17.8417 146.418 17.3 145.385 17.3C144.385 17.3 143.602 17.8417 143.035 18.925C142.468 20.0083 142.185 21.35 142.185 22.95C142.185 24.5333 142.468 25.8833 143.035 27C143.602 28.1 144.385 28.65 145.385 28.65ZM159.608 29.325C158.525 29.325 157.7 29.0167 157.133 28.4C156.567 27.7833 156.267 26.8833 156.233 25.7V17.725H154.058V16.875C155.242 16.6083 156.217 16.1 156.983 15.35C157.767 14.5833 158.308 13.3833 158.608 11.75H159.108V16.875H162.283V17.725H159.108L159.058 23.5L159.083 25.575C159.167 27.125 159.75 27.9 160.833 27.9C161.183 27.9 161.483 27.8333 161.733 27.7C161.983 27.5667 162.267 27.3333 162.583 27C162.667 26.9 162.742 26.85 162.808 26.85C162.875 26.85 162.942 26.8917 163.008 26.975C163.092 27.0417 163.133 27.1083 163.133 27.175C163.133 27.2083 163.117 27.2583 163.083 27.325C162.617 28.0417 162.1 28.5583 161.533 28.875C160.967 29.175 160.325 29.325 159.608 29.325Z" fill="#F9F7F1"/>
<path d="M178.5 29.325C177.083 29.325 175.658 29 174.225 28.35C172.808 27.7 171.617 26.6833 170.65 25.3C169.7 23.9167 169.225 22.1917 169.225 20.125C169.225 18.475 169.6 16.9 170.35 15.4C171.1 13.8833 172.142 12.6583 173.475 11.725C174.808 10.7917 176.3 10.325 177.95 10.325C178.45 10.325 178.933 10.3833 179.4 10.5C179.883 10.6167 180.4 10.775 180.95 10.975C181.6 11.2083 182.042 11.325 182.275 11.325C182.692 11.325 183.175 11.1 183.725 10.65L184.7 14.8L184.75 15.05C184.75 15.15 184.683 15.2333 184.55 15.3C184.517 15.3167 184.475 15.325 184.425 15.325C184.325 15.325 184.233 15.275 184.15 15.175C183.617 14.3917 183.117 13.7417 182.65 13.225C182.2 12.7083 181.6 12.25 180.85 11.85C180.1 11.4333 179.217 11.225 178.2 11.225C176.717 11.225 175.575 11.7917 174.775 12.925C173.975 14.0583 173.45 15.2833 173.2 16.6C172.95 17.9167 172.825 19.025 172.825 19.925C172.825 21.7083 173.117 23.225 173.7 24.475C174.3 25.7083 175.058 26.6333 175.975 27.25C176.908 27.8667 177.883 28.175 178.9 28.175C180.283 28.175 181.408 27.825 182.275 27.125C183.158 26.425 183.983 25.475 184.75 24.275C184.833 24.1917 184.908 24.15 184.975 24.15C185.008 24.15 185.067 24.175 185.15 24.225C185.267 24.2917 185.325 24.375 185.325 24.475C185.325 24.5083 185.308 24.5583 185.275 24.625C184.642 25.8417 183.775 26.9333 182.675 27.9C181.592 28.85 180.2 29.325 178.5 29.325ZM201.333 26.8C201.467 26.8 201.533 26.8583 201.533 26.975L201.508 27.125C201.308 27.7583 200.933 28.275 200.383 28.675C199.85 29.075 199.292 29.275 198.708 29.275C197.508 29.275 196.733 28.7167 196.383 27.6C195.733 28.1667 195.008 28.6 194.208 28.9C193.408 29.2 192.617 29.35 191.833 29.35C190.8 29.35 189.992 29.1167 189.408 28.65C188.825 28.1667 188.533 27.4917 188.533 26.625C188.533 25.3583 189.225 24.35 190.608 23.6C190.992 23.4 191.425 23.2417 191.908 23.125C192.392 22.9917 193.042 22.8417 193.858 22.675C194.108 22.625 194.467 22.55 194.933 22.45C195.417 22.3333 195.842 22.225 196.208 22.125V21C196.208 20.05 196.175 19.375 196.108 18.975C196.058 18.5583 195.925 18.2167 195.708 17.95C195.392 17.5333 194.9 17.325 194.233 17.325C193.783 17.325 193.4 17.4667 193.083 17.75C192.767 18.0167 192.508 18.5417 192.308 19.325C192.158 19.8917 191.933 20.3167 191.633 20.6C191.35 20.8667 191.017 21 190.633 21C190.25 21 189.908 20.8917 189.608 20.675C189.308 20.4417 189.158 20.1167 189.158 19.7C189.158 19.3833 189.283 18.9917 189.533 18.525C189.8 18.0417 190.308 17.6 191.058 17.2C191.808 16.8 192.867 16.6 194.233 16.6C195.233 16.6 196.075 16.7333 196.758 17C197.442 17.2667 197.975 17.625 198.358 18.075C198.658 18.4083 198.858 18.775 198.958 19.175C199.058 19.575 199.108 20.0667 199.108 20.65C199.108 21.7833 199.1 22.65 199.083 23.25L199.058 26.05C199.058 26.7667 199.142 27.2333 199.308 27.45C199.492 27.6667 199.708 27.775 199.958 27.775C200.158 27.775 200.367 27.7083 200.583 27.575C200.8 27.425 200.992 27.2083 201.158 26.925C201.208 26.8417 201.267 26.8 201.333 26.8ZM193.508 27.975C193.958 27.975 194.417 27.8833 194.883 27.7C195.367 27.5167 195.808 27.25 196.208 26.9C196.158 26.5167 196.133 26.1333 196.133 25.75L196.183 22.825C194.583 23.225 193.408 23.7167 192.658 24.3C191.908 24.8667 191.533 25.575 191.533 26.425C191.533 26.875 191.708 27.25 192.058 27.55C192.408 27.8333 192.892 27.975 193.508 27.975ZM225.716 28.4C225.833 28.4 225.891 28.5 225.891 28.7C225.891 28.9 225.833 29 225.716 29H219.366C219.249 29 219.191 28.9 219.191 28.7C219.191 28.5 219.249 28.4 219.366 28.4H219.666C220.133 28.4 220.491 28.325 220.741 28.175C220.991 28.025 221.116 27.7 221.116 27.2L221.141 23.3C221.141 22.2667 221.124 21.4 221.091 20.7C221.041 19.8333 220.858 19.1417 220.541 18.625C220.241 18.1083 219.716 17.85 218.966 17.85C218.433 17.85 217.916 18.025 217.416 18.375C216.933 18.725 216.499 19.2083 216.116 19.825C216.149 20.0917 216.166 20.3 216.166 20.45C216.183 20.8167 216.191 21.5417 216.191 22.625L216.166 27.2C216.166 27.7 216.291 28.025 216.541 28.175C216.791 28.325 217.149 28.4 217.616 28.4H217.891C218.008 28.4 218.066 28.5 218.066 28.7C218.066 28.9 218.008 29 217.891 29H211.566C211.449 29 211.391 28.9 211.391 28.7C211.391 28.5 211.449 28.4 211.566 28.4H211.866C212.333 28.4 212.691 28.325 212.941 28.175C213.191 28.025 213.316 27.7 213.316 27.2V23.35C213.316 22.2833 213.299 21.4 213.266 20.7C213.233 19.8333 213.058 19.1417 212.741 18.625C212.441 18.1083 211.908 17.85 211.141 17.85C210.574 17.85 210.041 18.0333 209.541 18.4C209.041 18.7667 208.599 19.2833 208.216 19.95V27.2C208.216 27.7 208.341 28.025 208.591 28.175C208.841 28.325 209.199 28.4 209.666 28.4H209.966C210.083 28.4 210.141 28.5 210.141 28.7C210.141 28.9 210.083 29 209.966 29H203.641C203.524 29 203.466 28.9 203.466 28.7C203.466 28.5 203.524 28.4 203.641 28.4H203.891C204.374 28.4 204.741 28.325 204.991 28.175C205.241 28.025 205.366 27.7 205.366 27.2L205.341 19.525C205.324 18.9917 205.191 18.6417 204.941 18.475C204.708 18.3083 204.299 18.2083 203.716 18.175C203.633 18.1583 203.574 18.1083 203.541 18.025C203.508 17.9417 203.491 17.8583 203.491 17.775C203.491 17.6583 203.541 17.5917 203.641 17.575C203.808 17.5083 205.333 17.1833 208.216 16.6V18.825C208.683 18.1417 209.241 17.6 209.891 17.2C210.541 16.8 211.258 16.6 212.041 16.6C213.041 16.6 213.866 16.825 214.516 17.275C215.166 17.725 215.624 18.3167 215.891 19.05C216.958 17.4167 218.274 16.6 219.841 16.6C220.741 16.6 221.499 16.7833 222.116 17.15C222.749 17.5167 223.216 18 223.516 18.6C223.816 19.1833 223.974 19.8 223.991 20.45C224.008 20.8167 224.016 21.5417 224.016 22.625C224.016 23.9417 223.999 25.4667 223.966 27.2C223.966 27.7 224.091 28.025 224.341 28.175C224.591 28.325 224.949 28.4 225.416 28.4H225.716ZM237.091 16.6C238.041 16.6 238.916 16.875 239.716 17.425C240.516 17.9583 241.141 18.7 241.591 19.65C242.058 20.5833 242.291 21.6417 242.291 22.825C242.291 24.0417 242.066 25.15 241.616 26.15C241.166 27.1333 240.541 27.9083 239.741 28.475C238.958 29.0417 238.066 29.325 237.066 29.325C235.633 29.325 234.358 28.8167 233.241 27.8V32.925C233.241 33.425 233.366 33.75 233.616 33.9C233.866 34.05 234.225 34.125 234.691 34.125H234.941C235.058 34.125 235.116 34.2167 235.116 34.4C235.116 34.6167 235.058 34.725 234.941 34.725H228.616C228.5 34.725 228.441 34.6167 228.441 34.4C228.441 34.2167 228.5 34.125 228.616 34.125H228.891C229.375 34.125 229.741 34.05 229.991 33.9C230.241 33.75 230.366 33.425 230.366 32.925L230.316 19.525C230.316 18.9917 230.191 18.6417 229.941 18.475C229.708 18.3083 229.3 18.2083 228.716 18.175C228.566 18.1583 228.491 18.025 228.491 17.775C228.491 17.6583 228.541 17.5917 228.641 17.575L233.241 16.6V18.15C233.708 17.7 234.266 17.3333 234.916 17.05C235.566 16.75 236.291 16.6 237.091 16.6ZM236.066 28.225C236.566 28.225 237.058 28.025 237.541 27.625C238.025 27.2083 238.416 26.5833 238.716 25.75C239.033 24.9167 239.191 23.9083 239.191 22.725C239.191 21.6917 239.058 20.8 238.791 20.05C238.525 19.2833 238.15 18.7 237.666 18.3C237.2 17.8833 236.675 17.675 236.091 17.675C235.641 17.675 235.15 17.8083 234.616 18.075C234.1 18.325 233.641 18.6583 233.241 19.075V26.85C233.658 27.2667 234.116 27.6 234.616 27.85C235.133 28.1 235.616 28.225 236.066 28.225Z" fill="#F9F7F1"/>
</svg>
