<svg width="148" height="156" viewBox="0 0 148 156" fill="none" xmlns="http://www.w3.org/2000/svg">
<path d="M24.12 49.546C22.02 49.546 19.626 49.014 16.938 47.95C16.574 47.782 16.224 47.698 15.888 47.698C15.496 47.698 15.09 47.838 14.67 48.118C14.25 48.37 13.746 48.79 13.158 49.378L11.226 41.146L11.142 40.768C11.142 40.712 11.17 40.656 11.226 40.6C11.31 40.544 11.38 40.502 11.436 40.474C11.52 40.446 11.576 40.418 11.604 40.39C11.66 40.362 11.744 40.348 11.856 40.348C11.968 40.348 12.122 40.46 12.318 40.684C15.454 45.444 19.248 47.824 23.7 47.824C25.492 47.824 26.99 47.362 28.194 46.438C29.426 45.514 30.042 44.142 30.042 42.322C30.042 40.194 28.88 38.612 26.556 37.576C25.408 37.072 23.868 36.512 21.936 35.896C21.684 35.812 21.054 35.602 20.046 35.266C19.038 34.93 18.142 34.566 17.358 34.174C14.054 32.494 12.402 29.974 12.402 26.614C12.402 25.354 12.696 24.038 13.284 22.666C13.872 21.294 14.894 20.118 16.35 19.138C17.834 18.13 19.794 17.626 22.23 17.626C23.098 17.626 23.938 17.724 24.75 17.92C25.59 18.116 26.598 18.41 27.774 18.802C28.222 18.97 28.614 19.054 28.95 19.054C29.734 19.054 30.518 18.578 31.302 17.626L33.444 24.892L33.528 25.186C33.528 25.354 33.402 25.48 33.15 25.564C32.982 25.62 32.856 25.648 32.772 25.648C32.632 25.648 32.492 25.564 32.352 25.396C32.016 24.836 31.414 24.08 30.546 23.128C29.678 22.148 28.502 21.238 27.018 20.398C25.562 19.53 23.924 19.096 22.104 19.096C20.48 19.096 19.234 19.446 18.366 20.146C17.498 20.818 16.924 21.546 16.644 22.33C16.364 23.114 16.224 23.786 16.224 24.346C16.224 26.138 17.148 27.524 18.996 28.504C19.584 28.812 20.354 29.148 21.306 29.512C22.286 29.848 23.28 30.184 24.288 30.52C26.64 31.276 28.404 31.92 29.58 32.452C31.568 33.404 32.982 34.566 33.822 35.938C34.662 37.282 35.082 38.738 35.082 40.306C35.082 42.042 34.648 43.61 33.78 45.01C32.94 46.41 31.694 47.516 30.042 48.328C28.39 49.14 26.416 49.546 24.12 49.546ZM50.5406 49.546C48.7206 49.546 47.3346 49.028 46.3826 47.992C45.4306 46.956 44.9266 45.444 44.8706 43.456V30.058H41.2166V28.63C43.2046 28.182 44.8426 27.328 46.1306 26.068C47.4466 24.78 48.3566 22.764 48.8606 20.02H49.7006V28.63H55.0346V30.058H49.7006L49.6166 39.76L49.6586 43.246C49.7986 45.85 50.7786 47.152 52.5986 47.152C53.1866 47.152 53.6906 47.04 54.1106 46.816C54.5306 46.592 55.0066 46.2 55.5386 45.64C55.6786 45.472 55.8046 45.388 55.9166 45.388C56.0286 45.388 56.1406 45.458 56.2526 45.598C56.3926 45.71 56.4626 45.822 56.4626 45.934C56.4626 45.99 56.4346 46.074 56.3786 46.186C55.5946 47.39 54.7266 48.258 53.7746 48.79C52.8226 49.294 51.7446 49.546 50.5406 49.546ZM81.1147 43.624C81.2547 43.708 81.3247 43.848 81.3247 44.044L81.2827 44.338C80.6387 45.71 79.6027 46.928 78.1747 47.992C76.7747 49.028 75.0107 49.546 72.8827 49.546C70.8387 49.546 68.9907 49.084 67.3387 48.16C65.6867 47.236 64.3847 45.976 63.4327 44.38C62.5087 42.756 62.0467 40.992 62.0467 39.088C62.0467 37.352 62.4387 35.644 63.2227 33.964C64.0347 32.284 65.2247 30.898 66.7927 29.806C68.3607 28.714 70.2227 28.168 72.3787 28.168C73.9467 28.168 75.3887 28.532 76.7047 29.26C78.0207 29.988 79.0987 31.024 79.9387 32.368C80.8067 33.712 81.3387 35.308 81.5347 37.156L67.3387 37.24C67.3107 37.548 67.2967 38.038 67.2967 38.71C67.2967 41.174 67.8707 43.246 69.0187 44.926C70.1667 46.606 71.8187 47.446 73.9747 47.446C76.6067 47.446 78.7627 46.214 80.4427 43.75C80.5267 43.61 80.6527 43.54 80.8207 43.54C80.8487 43.54 80.9467 43.568 81.1147 43.624ZM72.2107 29.344C71.2307 29.344 70.2647 29.82 69.3127 30.772C68.3887 31.696 67.7727 33.362 67.4647 35.77L76.3687 35.686V34.972C76.3407 33.208 75.9207 31.836 75.1087 30.856C74.3247 29.848 73.3587 29.344 72.2107 29.344ZM89.1665 49C88.9425 49 88.8305 48.818 88.8305 48.454C88.8305 48.146 88.9425 47.992 89.1665 47.992H89.5865C90.3985 47.992 91.0425 47.866 91.5185 47.614C91.9945 47.362 92.2325 46.816 92.2325 45.976L92.1485 22.414C92.1485 21.518 91.9385 20.93 91.5185 20.65C91.1265 20.37 90.4545 20.202 89.5025 20.146C89.2225 20.146 89.0825 19.936 89.0825 19.516C89.0825 19.348 89.1665 19.25 89.3345 19.222C90.1465 19.026 91.3365 18.76 92.9045 18.424C94.4725 18.088 95.8585 17.808 97.0625 17.584V45.976C97.0625 46.816 97.2865 47.362 97.7345 47.614C98.2105 47.866 98.8545 47.992 99.6665 47.992H100.129C100.325 47.992 100.423 48.146 100.423 48.454C100.423 48.818 100.325 49 100.129 49H89.1665ZM107.384 49C107.16 49 107.048 48.818 107.048 48.454C107.048 48.146 107.16 47.992 107.384 47.992H107.804C108.616 47.992 109.26 47.866 109.736 47.614C110.212 47.362 110.45 46.816 110.45 45.976L110.366 22.414C110.366 21.518 110.156 20.93 109.736 20.65C109.344 20.37 108.672 20.202 107.72 20.146C107.44 20.146 107.3 19.936 107.3 19.516C107.3 19.348 107.384 19.25 107.552 19.222C108.364 19.026 109.554 18.76 111.122 18.424C112.69 18.088 114.076 17.808 115.28 17.584V45.976C115.28 46.816 115.504 47.362 115.952 47.614C116.428 47.866 117.072 47.992 117.884 47.992H118.346C118.542 47.992 118.64 48.146 118.64 48.454C118.64 48.818 118.542 49 118.346 49H107.384ZM147.148 45.304C147.372 45.304 147.484 45.402 147.484 45.598L147.442 45.85C147.106 46.914 146.476 47.782 145.552 48.454C144.656 49.126 143.718 49.462 142.738 49.462C140.722 49.462 139.42 48.524 138.832 46.648C137.74 47.6 136.522 48.328 135.178 48.832C133.834 49.336 132.504 49.588 131.188 49.588C129.452 49.588 128.094 49.196 127.114 48.412C126.134 47.6 125.644 46.466 125.644 45.01C125.644 42.882 126.806 41.188 129.13 39.928C129.774 39.592 130.502 39.326 131.314 39.13C132.126 38.906 133.218 38.654 134.59 38.374C135.01 38.29 135.612 38.164 136.396 37.996C137.208 37.8 137.922 37.618 138.538 37.45V35.56C138.538 33.964 138.482 32.83 138.37 32.158C138.286 31.458 138.062 30.884 137.698 30.436C137.166 29.736 136.34 29.386 135.22 29.386C134.464 29.386 133.82 29.624 133.288 30.1C132.756 30.548 132.322 31.43 131.986 32.746C131.734 33.698 131.356 34.412 130.852 34.888C130.376 35.336 129.816 35.56 129.172 35.56C128.528 35.56 127.954 35.378 127.45 35.014C126.946 34.622 126.694 34.076 126.694 33.376C126.694 32.844 126.904 32.186 127.324 31.402C127.772 30.59 128.626 29.848 129.886 29.176C131.146 28.504 132.924 28.168 135.22 28.168C136.9 28.168 138.314 28.392 139.462 28.84C140.61 29.288 141.506 29.89 142.15 30.646C142.654 31.206 142.99 31.822 143.158 32.494C143.326 33.166 143.41 33.992 143.41 34.972C143.41 36.876 143.396 38.332 143.368 39.34L143.326 44.044C143.326 45.248 143.466 46.032 143.746 46.396C144.054 46.76 144.418 46.942 144.838 46.942C145.174 46.942 145.524 46.83 145.888 46.606C146.252 46.354 146.574 45.99 146.854 45.514C146.938 45.374 147.036 45.304 147.148 45.304ZM134.002 47.278C134.758 47.278 135.528 47.124 136.312 46.816C137.124 46.508 137.866 46.06 138.538 45.472C138.454 44.828 138.412 44.184 138.412 43.54L138.496 38.626C135.808 39.298 133.834 40.124 132.574 41.104C131.314 42.056 130.684 43.246 130.684 44.674C130.684 45.43 130.978 46.06 131.566 46.564C132.154 47.04 132.966 47.278 134.002 47.278Z" fill="#34495E"/>
<path d="M66.986 96.95C67.182 96.95 67.28 97.132 67.28 97.496C67.28 97.832 67.182 98 66.986 98H52.916C52.72 98 52.622 97.832 52.622 97.496C52.622 97.132 52.72 96.95 52.916 96.95C53.812 96.95 54.484 96.852 54.932 96.656C55.408 96.46 55.646 96.138 55.646 95.69C55.646 95.214 55.324 94.528 54.68 93.632L49.976 87.542L46.49 83.048L45.02 84.56L43.844 85.778V93.59C43.844 94.906 44.166 95.802 44.81 96.278C45.454 96.726 46.308 96.95 47.372 96.95H47.876C48.072 96.95 48.17 97.118 48.17 97.454C48.17 97.818 48.072 98 47.876 98H34.268C34.072 98 33.974 97.818 33.974 97.454C33.974 97.118 34.072 96.95 34.268 96.95H34.814C35.878 96.95 36.718 96.712 37.334 96.236C37.978 95.76 38.3 94.878 38.3 93.59V71.456C38.3 70.14 37.978 69.258 37.334 68.81C36.69 68.334 35.85 68.096 34.814 68.096H34.268C34.072 68.096 33.974 67.914 33.974 67.55C33.974 67.214 34.072 67.046 34.268 67.046H47.876C48.1 67.046 48.212 67.214 48.212 67.55C48.212 67.914 48.1 68.096 47.876 68.096H47.372C46.28 68.096 45.412 68.334 44.768 68.81C44.152 69.258 43.844 70.14 43.844 71.456V83.552C46.084 81.2 48.436 78.708 50.9 76.076C53.392 73.444 54.904 71.82 55.436 71.204C55.856 70.7 56.066 70.238 56.066 69.818C56.066 69.286 55.772 68.866 55.184 68.558C54.596 68.222 53.798 68.054 52.79 68.054C52.594 68.054 52.496 67.872 52.496 67.508C52.496 67.2 52.594 67.046 52.79 67.046H65.18C65.404 67.046 65.516 67.2 65.516 67.508C65.516 67.872 65.404 68.054 65.18 68.054C62.576 68.054 60.168 69.118 57.956 71.246C57.536 71.61 55.268 73.934 51.152 78.218L50.396 78.974L52.58 81.872C57.088 87.976 59.888 91.7 60.98 93.044C61.848 94.136 62.52 94.934 62.996 95.438C63.5 95.914 64.06 96.292 64.676 96.572C65.292 96.824 66.062 96.95 66.986 96.95ZM96.5484 96.992C96.7724 96.992 96.8844 97.16 96.8844 97.496C96.8844 97.832 96.7724 98 96.5484 98H85.9644C85.7684 98 85.6704 97.832 85.6704 97.496C85.6704 97.16 85.7684 96.992 85.9644 96.992H86.4684C87.2524 96.992 87.8404 96.866 88.2324 96.614C88.6524 96.362 88.8624 95.816 88.8624 94.976L88.9044 87.584C88.9044 86.24 88.8764 85.064 88.8204 84.056C88.7644 82.6 88.4704 81.438 87.9384 80.57C87.4064 79.702 86.4964 79.268 85.2084 79.268C84.2844 79.268 83.4024 79.576 82.5624 80.192C81.7224 80.808 80.9804 81.676 80.3364 82.796V94.976C80.3364 95.816 80.5464 96.362 80.9664 96.614C81.3864 96.866 81.9884 96.992 82.7724 96.992H83.2764C83.4724 96.992 83.5704 97.16 83.5704 97.496C83.5704 97.832 83.4724 98 83.2764 98H72.6504C72.4264 98 72.3144 97.832 72.3144 97.496C72.3144 97.16 72.4264 96.992 72.6504 96.992H73.0704C73.8824 96.992 74.4984 96.866 74.9184 96.614C75.3384 96.362 75.5484 95.816 75.5484 94.976L75.5064 82.04C75.5064 81.172 75.2824 80.598 74.8344 80.318C74.4144 80.01 73.7284 79.828 72.7764 79.772C72.5244 79.744 72.3984 79.52 72.3984 79.1C72.3984 78.932 72.4824 78.834 72.6504 78.806C72.9304 78.694 75.4924 78.148 80.3364 77.168V80.906C81.1204 79.758 82.0584 78.848 83.1504 78.176C84.2424 77.504 85.4464 77.168 86.7624 77.168C88.2744 77.168 89.5484 77.476 90.5844 78.092C91.6204 78.708 92.3904 79.506 92.8944 80.486C93.3984 81.466 93.6644 82.502 93.6924 83.594V87.458V94.976C93.6924 95.816 93.9024 96.362 94.3224 96.614C94.7424 96.866 95.3444 96.992 96.1284 96.992H96.5484ZM114.127 98.546C112.055 98.546 110.221 98.042 108.625 97.034C107.029 95.998 105.797 94.654 104.929 93.002C104.061 91.35 103.627 89.628 103.627 87.836C103.627 85.988 104.061 84.252 104.929 82.628C105.797 80.976 107.029 79.66 108.625 78.68C110.221 77.672 112.055 77.168 114.127 77.168C116.199 77.168 118.033 77.672 119.629 78.68C121.253 79.66 122.499 80.976 123.367 82.628C124.263 84.252 124.711 85.988 124.711 87.836C124.711 89.628 124.263 91.35 123.367 93.002C122.499 94.654 121.253 95.998 119.629 97.034C118.033 98.042 116.199 98.546 114.127 98.546ZM114.127 97.412C115.835 97.412 117.165 96.488 118.117 94.64C119.097 92.764 119.587 90.496 119.587 87.836C119.587 85.12 119.111 82.866 118.159 81.074C117.207 79.254 115.863 78.344 114.127 78.344C112.447 78.344 111.131 79.254 110.179 81.074C109.227 82.894 108.751 85.148 108.751 87.836C108.751 90.496 109.227 92.764 110.179 94.64C111.131 96.488 112.447 97.412 114.127 97.412ZM140.122 98.546C138.302 98.546 136.916 98.028 135.964 96.992C135.012 95.956 134.508 94.444 134.452 92.456V79.058H130.798V77.63C132.786 77.182 134.424 76.328 135.712 75.068C137.028 73.78 137.938 71.764 138.442 69.02H139.282V77.63H144.616V79.058H139.282L139.198 88.76L139.24 92.246C139.38 94.85 140.36 96.152 142.18 96.152C142.768 96.152 143.272 96.04 143.692 95.816C144.112 95.592 144.588 95.2 145.12 94.64C145.26 94.472 145.386 94.388 145.498 94.388C145.61 94.388 145.722 94.458 145.834 94.598C145.974 94.71 146.044 94.822 146.044 94.934C146.044 94.99 146.016 95.074 145.96 95.186C145.176 96.39 144.308 97.258 143.356 97.79C142.404 98.294 141.326 98.546 140.122 98.546Z" fill="#34495E"/>
<path d="M31.64 144.546C29.26 144.546 26.866 144 24.458 142.908C22.078 141.816 20.076 140.108 18.452 137.784C16.856 135.46 16.058 132.562 16.058 129.09C16.058 126.318 16.688 123.672 17.948 121.152C19.208 118.604 20.958 116.546 23.198 114.978C25.438 113.41 27.944 112.626 30.716 112.626C31.556 112.626 32.368 112.724 33.152 112.92C33.964 113.116 34.832 113.382 35.756 113.718C36.848 114.11 37.59 114.306 37.982 114.306C38.682 114.306 39.494 113.928 40.418 113.172L42.056 120.144L42.14 120.564C42.14 120.732 42.028 120.872 41.804 120.984C41.748 121.012 41.678 121.026 41.594 121.026C41.426 121.026 41.272 120.942 41.132 120.774C40.236 119.458 39.396 118.366 38.612 117.498C37.856 116.63 36.848 115.86 35.588 115.188C34.328 114.488 32.844 114.138 31.136 114.138C28.644 114.138 26.726 115.09 25.382 116.994C24.038 118.898 23.156 120.956 22.736 123.168C22.316 125.38 22.106 127.242 22.106 128.754C22.106 131.75 22.596 134.298 23.576 136.398C24.584 138.47 25.858 140.024 27.398 141.06C28.966 142.096 30.604 142.614 32.312 142.614C34.636 142.614 36.526 142.026 37.982 140.85C39.466 139.674 40.852 138.078 42.14 136.062C42.28 135.922 42.406 135.852 42.518 135.852C42.574 135.852 42.672 135.894 42.812 135.978C43.008 136.09 43.106 136.23 43.106 136.398C43.106 136.454 43.078 136.538 43.022 136.65C41.958 138.694 40.502 140.528 38.654 142.152C36.834 143.748 34.496 144.546 31.64 144.546ZM72.0998 140.304C72.3238 140.304 72.4358 140.402 72.4358 140.598L72.3938 140.85C72.0578 141.914 71.4278 142.782 70.5038 143.454C69.6078 144.126 68.6698 144.462 67.6898 144.462C65.6738 144.462 64.3718 143.524 63.7838 141.648C62.6918 142.6 61.4738 143.328 60.1298 143.832C58.7858 144.336 57.4558 144.588 56.1398 144.588C54.4038 144.588 53.0458 144.196 52.0658 143.412C51.0858 142.6 50.5958 141.466 50.5958 140.01C50.5958 137.882 51.7578 136.188 54.0818 134.928C54.7258 134.592 55.4538 134.326 56.2658 134.13C57.0778 133.906 58.1698 133.654 59.5418 133.374C59.9618 133.29 60.5638 133.164 61.3478 132.996C62.1598 132.8 62.8738 132.618 63.4898 132.45V130.56C63.4898 128.964 63.4338 127.83 63.3218 127.158C63.2378 126.458 63.0138 125.884 62.6498 125.436C62.1178 124.736 61.2918 124.386 60.1718 124.386C59.4158 124.386 58.7718 124.624 58.2398 125.1C57.7078 125.548 57.2738 126.43 56.9378 127.746C56.6858 128.698 56.3078 129.412 55.8038 129.888C55.3278 130.336 54.7678 130.56 54.1238 130.56C53.4798 130.56 52.9058 130.378 52.4018 130.014C51.8978 129.622 51.6458 129.076 51.6458 128.376C51.6458 127.844 51.8558 127.186 52.2758 126.402C52.7238 125.59 53.5778 124.848 54.8378 124.176C56.0978 123.504 57.8758 123.168 60.1718 123.168C61.8518 123.168 63.2658 123.392 64.4138 123.84C65.5618 124.288 66.4578 124.89 67.1018 125.646C67.6058 126.206 67.9418 126.822 68.1098 127.494C68.2778 128.166 68.3618 128.992 68.3618 129.972C68.3618 131.876 68.3478 133.332 68.3198 134.34L68.2778 139.044C68.2778 140.248 68.4178 141.032 68.6978 141.396C69.0058 141.76 69.3698 141.942 69.7898 141.942C70.1258 141.942 70.4758 141.83 70.8398 141.606C71.2038 141.354 71.5258 140.99 71.8058 140.514C71.8898 140.374 71.9878 140.304 72.0998 140.304ZM58.9538 142.278C59.7098 142.278 60.4798 142.124 61.2638 141.816C62.0758 141.508 62.8178 141.06 63.4898 140.472C63.4058 139.828 63.3638 139.184 63.3638 138.54L63.4478 133.626C60.7598 134.298 58.7858 135.124 57.5258 136.104C56.2658 137.056 55.6358 138.246 55.6358 139.674C55.6358 140.43 55.9298 141.06 56.5178 141.564C57.1058 142.04 57.9178 142.278 58.9538 142.278ZM115.163 142.992C115.359 142.992 115.457 143.16 115.457 143.496C115.457 143.832 115.359 144 115.163 144H104.495C104.299 144 104.201 143.832 104.201 143.496C104.201 143.16 104.299 142.992 104.495 142.992H104.999C105.783 142.992 106.385 142.866 106.805 142.614C107.225 142.362 107.435 141.816 107.435 140.976L107.477 134.424C107.477 132.688 107.449 131.232 107.393 130.056C107.309 128.6 107.001 127.438 106.469 126.57C105.965 125.702 105.083 125.268 103.823 125.268C102.927 125.268 102.059 125.562 101.219 126.15C100.407 126.738 99.6789 127.55 99.0349 128.586C99.0909 129.034 99.1189 129.384 99.1189 129.636C99.1469 130.252 99.1609 131.47 99.1609 133.29L99.1189 140.976C99.1189 141.816 99.3289 142.362 99.7489 142.614C100.169 142.866 100.771 142.992 101.555 142.992H102.017C102.213 142.992 102.311 143.16 102.311 143.496C102.311 143.832 102.213 144 102.017 144H91.3909C91.1949 144 91.0969 143.832 91.0969 143.496C91.0969 143.16 91.1949 142.992 91.3909 142.992H91.8949C92.6789 142.992 93.2809 142.866 93.7009 142.614C94.1209 142.362 94.3309 141.816 94.3309 140.976V134.508C94.3309 132.716 94.3029 131.232 94.2469 130.056C94.1909 128.6 93.8969 127.438 93.3649 126.57C92.8609 125.702 91.9649 125.268 90.6769 125.268C89.7249 125.268 88.8289 125.576 87.9889 126.192C87.1489 126.808 86.4069 127.676 85.7629 128.796V140.976C85.7629 141.816 85.9729 142.362 86.3929 142.614C86.8129 142.866 87.4149 142.992 88.1989 142.992H88.7029C88.8989 142.992 88.9969 143.16 88.9969 143.496C88.9969 143.832 88.8989 144 88.7029 144H78.0769C77.8809 144 77.7829 143.832 77.7829 143.496C77.7829 143.16 77.8809 142.992 78.0769 142.992H78.4969C79.3089 142.992 79.9249 142.866 80.3449 142.614C80.7649 142.362 80.9749 141.816 80.9749 140.976L80.9329 128.082C80.9049 127.186 80.6809 126.598 80.2609 126.318C79.8689 126.038 79.1829 125.87 78.2029 125.814C78.0629 125.786 77.9649 125.702 77.9089 125.562C77.8529 125.422 77.8249 125.282 77.8249 125.142C77.8249 124.946 77.9089 124.834 78.0769 124.806C78.3569 124.694 80.9189 124.148 85.7629 123.168V126.906C86.5469 125.758 87.4849 124.848 88.5769 124.176C89.6689 123.504 90.8729 123.168 92.1889 123.168C93.8689 123.168 95.2549 123.546 96.3469 124.302C97.4389 125.058 98.2089 126.052 98.6569 127.284C100.449 124.54 102.661 123.168 105.293 123.168C106.805 123.168 108.079 123.476 109.115 124.092C110.179 124.708 110.963 125.52 111.467 126.528C111.971 127.508 112.237 128.544 112.265 129.636C112.293 130.252 112.307 131.47 112.307 133.29C112.307 135.502 112.279 138.064 112.223 140.976C112.223 141.816 112.433 142.362 112.853 142.614C113.273 142.866 113.875 142.992 114.659 142.992H115.163ZM136.373 123.168C137.969 123.168 139.439 123.63 140.783 124.554C142.127 125.45 143.177 126.696 143.933 128.292C144.717 129.86 145.109 131.638 145.109 133.626C145.109 135.67 144.731 137.532 143.975 139.212C143.219 140.864 142.169 142.166 140.825 143.118C139.509 144.07 138.011 144.546 136.331 144.546C133.923 144.546 131.781 143.692 129.905 141.984V150.594C129.905 151.434 130.115 151.98 130.535 152.232C130.955 152.484 131.557 152.61 132.341 152.61H132.761C132.957 152.61 133.055 152.764 133.055 153.072C133.055 153.436 132.957 153.618 132.761 153.618H122.135C121.939 153.618 121.841 153.436 121.841 153.072C121.841 152.764 121.939 152.61 122.135 152.61H122.597C123.409 152.61 124.025 152.484 124.445 152.232C124.865 151.98 125.075 151.434 125.075 150.594L124.991 128.082C124.991 127.186 124.781 126.598 124.361 126.318C123.969 126.038 123.283 125.87 122.303 125.814C122.051 125.786 121.925 125.562 121.925 125.142C121.925 124.946 122.009 124.834 122.177 124.806L129.905 123.168V125.772C130.689 125.016 131.627 124.4 132.719 123.924C133.811 123.42 135.029 123.168 136.373 123.168ZM134.651 142.698C135.491 142.698 136.317 142.362 137.129 141.69C137.941 140.99 138.599 139.94 139.103 138.54C139.635 137.14 139.901 135.446 139.901 133.458C139.901 131.722 139.677 130.224 139.229 128.964C138.781 127.676 138.151 126.696 137.339 126.024C136.555 125.324 135.673 124.974 134.693 124.974C133.937 124.974 133.111 125.198 132.215 125.646C131.347 126.066 130.577 126.626 129.905 127.326V140.388C130.605 141.088 131.375 141.648 132.215 142.068C133.083 142.488 133.895 142.698 134.651 142.698Z" fill="#34495E"/>
<path d="M13.7749 70L13.6849 70.0881L13.5949 70.1761V70.2642L13.5048 70.3522V70.4403L13.4148 70.5283V70.6164V70.7044V70.7925V70.8805V70.9686L13.3248 71.0566V71.1447V71.2327V71.3208V71.4088V71.4969V71.5849V71.673V71.761L13.2347 71.8491V71.9371V72.0252V72.1132V72.2013V72.2893V72.3774V72.4654L13.1447 72.5535V72.6415V72.7296V72.8176V72.9057V72.9937V73.0818V73.1698L13.0547 73.2579V73.3459V73.434V73.522V73.6101V73.6981V73.7862V73.8742L12.9646 73.9623V74.0503V74.1384V74.2264V74.3145V74.4025L12.8746 74.4906V74.5786V74.6667V74.7547V74.8428V74.9308V75.0189L12.7846 75.1069V75.195V75.283V75.3711V75.4591V75.5472L12.6945 75.6352V75.7233V75.8113V75.8994V75.9874V76.0755L12.6045 76.1635V76.2516V76.3396V76.4277V76.5157L12.5145 76.6038V76.6918V76.7799V76.8679V76.956L12.4244 77.044V77.1321V77.2201V77.3082V77.3962L12.3344 77.4843V77.5723V77.6604V77.7484L12.2444 77.8365V77.9245V78.0126V78.1006L12.1543 78.1887V78.2767V78.3648L12.0643 78.4528V78.5409V78.6289L11.9743 78.717V78.805V78.8931L11.8842 78.9811V79.0692V79.1572L11.7942 79.2453V79.3333L11.7042 79.4214V79.5094V79.5975L11.6141 79.6855V79.7736L11.5241 79.8616V79.9497L11.4341 80.0377L11.3441 80.1258V80.2138L11.254 80.3019V80.3899L11.164 80.478L11.074 80.566L10.9839 80.6541V80.7421L10.8939 80.8302L10.8039 80.9182L10.7138 81.0063L10.6238 81.0943L10.5338 81.1824L10.4437 81.2704L10.3537 81.3585L10.2637 81.4465H10.1736L10.0836 81.5346L9.99357 81.6226L9.90354 81.7107H9.8135L9.72347 81.7987H9.63344L9.54341 81.8868H9.45338L9.36334 81.9748H9.27331L9.18328 82.0629H9.09325L9.00321 82.1509H8.91318H8.82315L8.73312 82.239H8.64309H8.55305H8.46302L8.37299 82.327H8.28296H8.19293L8.10289 82.4151H8.01286H7.92283H7.8328L7.74276 82.5031H7.65273H7.5627L7.47267 82.5912H7.38264H7.2926H7.20257H7.11254L7.02251 82.6792H6.93248H6.84244H6.75241H6.66238L6.57235 82.7673H6.48232H6.39228H6.30225H6.21222H6.12219L6.03215 82.8553H5.94212H5.85209H5.76206H5.67203H5.58199L5.49196 82.9434H5.40193H5.3119H5.22186H5.13183H5.0418H4.95177L4.86174 83.0314H4.7717H4.68167H4.59164H4.50161H4.41158H4.32154L4.23151 83.1195H4.14148H4.05145H3.96141H3.87138H3.78135H3.69132H3.60129L3.51125 83.2075H3.42122H3.33119H3.24116H3.15113H3.06109H2.97106H2.88103H2.791L2.70096 83.2956H2.61093H2.5209H2.43087H2.34084H2.2508H2.16077H2.07074H1.98071H1.89068H1.80064L1.71061 83.3836H1.62058H1.53055H1.44051H1.35048H1.26045H1.17042H1.08039H0.990354H0.900322L0.810289 83.4717H0.720257H0.630225H0.540193H0.450161H0.360129L0.270096 83.5597H0.180064L0.0900322 83.6478L0 83.7358V83.8239V83.9119V84V84.088V84.1761V84.2642L0.0900322 84.3522V84.4403H0.180064L0.270096 84.5283H0.360129H0.450161L0.540193 84.6164H0.630225H0.720257H0.810289H0.900322H0.990354L1.08039 84.7044H1.17042H1.26045H1.35048H1.44051H1.53055H1.62058H1.71061H1.80064L1.89068 84.7925H1.98071H2.07074H2.16077H2.2508H2.34084H2.43087H2.5209L2.61093 84.8805H2.70096H2.791H2.88103H2.97106H3.06109H3.15113H3.24116L3.33119 84.9686H3.42122H3.51125H3.60129H3.69132H3.78135H3.87138L3.96141 85.0566H4.05145H4.14148H4.23151H4.32154H4.41158H4.50161L4.59164 85.1447H4.68167H4.7717H4.86174H4.95177H5.0418L5.13183 85.2327H5.22186H5.3119H5.40193H5.49196H5.58199L5.67203 85.3208H5.76206H5.85209H5.94212H6.03215H6.12219L6.21222 85.4088H6.30225H6.39228H6.48232H6.57235L6.66238 85.4969H6.75241H6.84244H6.93248L7.02251 85.5849H7.11254H7.20257H7.2926L7.38264 85.673H7.47267H7.5627H7.65273L7.74276 85.761H7.8328H7.92283H8.01286L8.10289 85.8491H8.19293H8.28296L8.37299 85.9371H8.46302H8.55305L8.64309 86.0252H8.73312H8.82315L8.91318 86.1132H9.00321H9.09325L9.18328 86.2013H9.27331L9.36334 86.2893H9.45338L9.54341 86.3774H9.63344L9.72347 86.4654L9.8135 86.5535H9.90354L9.99357 86.6415L10.0836 86.7296L10.1736 86.8176L10.2637 86.9057H10.3537L10.4437 86.9937L10.5338 87.0818L10.6238 87.1698L10.7138 87.2579L10.8039 87.3459V87.434L10.8939 87.522L10.9839 87.6101L11.074 87.6981L11.164 87.7862V87.8742L11.254 87.9623L11.3441 88.0503V88.1384L11.4341 88.2264V88.3145L11.5241 88.4025V88.4906L11.6141 88.5786V88.6667L11.7042 88.7547V88.8428L11.7942 88.9308V89.0189L11.8842 89.1069V89.195V89.283L11.9743 89.3711V89.4591L12.0643 89.5472V89.6352V89.7233V89.8113L12.1543 89.8994V89.9874V90.0755L12.2444 90.1635V90.2516V90.3396V90.4277L12.3344 90.5157V90.6038V90.6918V90.7799L12.4244 90.8679V90.956V91.044V91.1321L12.5145 91.2201V91.3082V91.3962V91.4843V91.5723L12.6045 91.6604V91.7484V91.8365V91.9245L12.6945 92.0126V92.1006V92.1887V92.2767V92.3648V92.4528V92.5409L12.7846 92.6289V92.717V92.805V92.8931V92.9811V93.0692L12.8746 93.1572V93.2453V93.3333V93.4214V93.5094V93.5975V93.6855L12.9646 93.7736V93.8616V93.9497V94.0377V94.1258V94.2138V94.3019L13.0547 94.3899V94.478V94.566V94.6541V94.7421V94.8302V94.9182V95.0063L13.1447 95.0943V95.1824V95.2704V95.3585V95.4465V95.5346V95.6226L13.2347 95.7107V95.7987V95.8868V95.9748V96.0629V96.1509V96.239V96.327L13.3248 96.4151V96.5031V96.5912V96.6792V96.7673V96.8553V96.9434L13.4148 97.0314V97.1195V97.2075V97.2956V97.3836V97.4717L13.5048 97.5597V97.6478L13.5949 97.7358V97.8239L13.6849 97.9119H13.7749L13.865 98H13.955H14.045H14.135L14.2251 97.9119H14.3151L14.4051 97.8239L14.4952 97.7358V97.6478L14.5852 97.5597V97.4717V97.3836L14.6752 97.2956V97.2075V97.1195V97.0314V96.9434V96.8553L14.7653 96.7673V96.6792V96.5912V96.5031V96.4151V96.327V96.239V96.1509L14.8553 96.0629V95.9748V95.8868V95.7987V95.7107V95.6226V95.5346V95.4465V95.3585L14.9453 95.2704V95.1824V95.0943V95.0063V94.9182V94.8302V94.7421V94.6541L15.0354 94.566V94.478V94.3899V94.3019V94.2138V94.1258V94.0377V93.9497L15.1254 93.8616V93.7736V93.6855V93.5975V93.5094V93.4214V93.3333L15.2154 93.2453V93.1572V93.0692V92.9811V92.8931V92.805V92.717L15.3055 92.6289V92.5409V92.4528V92.3648V92.2767V92.1887L15.3955 92.1006V92.0126V91.9245V91.8365V91.7484V91.6604L15.4855 91.5723V91.4843V91.3962V91.3082V91.2201L15.5756 91.1321V91.044V90.956V90.8679L15.6656 90.7799V90.6918V90.6038V90.5157L15.7556 90.4277V90.3396V90.2516V90.1635L15.8457 90.0755V89.9874V89.8994V89.8113L15.9357 89.7233V89.6352V89.5472L16.0257 89.4591V89.3711V89.283L16.1158 89.195V89.1069V89.0189L16.2058 88.9308V88.8428L16.2958 88.7547V88.6667V88.5786L16.3859 88.4906V88.4025L16.4759 88.3145V88.2264L16.5659 88.1384V88.0503L16.6559 87.9623L16.746 87.8742V87.7862L16.836 87.6981L16.926 87.6101V87.522L17.0161 87.434L17.1061 87.3459L17.1961 87.2579L17.2862 87.1698V87.0818L17.3762 86.9937L17.4662 86.9057H17.5563L17.6463 86.8176L17.7363 86.7296L17.8264 86.6415H17.9164L18.0064 86.5535L18.0965 86.4654H18.1865L18.2765 86.3774H18.3666L18.4566 86.2893H18.5466L18.6367 86.2013H18.7267L18.8167 86.1132H18.9068H18.9968L19.0868 86.0252H19.1768L19.2669 85.9371H19.3569H19.4469L19.537 85.8491H19.627H19.717L19.8071 85.761H19.8971H19.9871H20.0772L20.1672 85.673H20.2572H20.3473H20.4373L20.5273 85.5849H20.6174H20.7074H20.7974L20.8875 85.4969H20.9775H21.0675H21.1576H21.2476L21.3376 85.4088H21.4277H21.5177H21.6077H21.6977H21.7878L21.8778 85.3208H21.9678H22.0579H22.1479H22.2379L22.328 85.2327H22.418H22.508H22.5981H22.6881H22.7781L22.8682 85.1447H22.9582H23.0482H23.1383H23.2283H23.3183L23.4084 85.0566H23.4984H23.5884H23.6785H23.7685H23.8585H23.9486L24.0386 84.9686H24.1286H24.2186H24.3087H24.3987H24.4887H24.5788L24.6688 84.8805H24.7588H24.8489H24.9389H25.0289H25.119H25.209H25.299L25.3891 84.7925H25.4791H25.5691H25.6592H25.7492H25.8392H25.9293H26.0193H26.1093L26.1994 84.7044H26.2894H26.3794H26.4695H26.5595H26.6495H26.7395H26.8296H26.9196L27.0096 84.6164H27.0997H27.1897H27.2797H27.3698H27.4598L27.5498 84.5283H27.6399H27.7299L27.8199 84.4403L27.91 84.3522V84.2642L28 84.1761V84.088V84V83.9119L27.91 83.8239V83.7358L27.8199 83.6478L27.7299 83.5597H27.6399L27.5498 83.4717H27.4598H27.3698H27.2797H27.1897L27.0997 83.3836H27.0096H26.9196H26.8296H26.7395H26.6495H26.5595H26.4695H26.3794L26.2894 83.2956H26.1994H26.1093H26.0193H25.9293H25.8392H25.7492H25.6592H25.5691H25.4791H25.3891L25.299 83.2075H25.209H25.119H25.0289H24.9389H24.8489H24.7588H24.6688H24.5788L24.4887 83.1195H24.3987H24.3087H24.2186H24.1286H24.0386H23.9486H23.8585L23.7685 83.0314H23.6785H23.5884H23.4984H23.4084H23.3183H23.2283L23.1383 82.9434H23.0482H22.9582H22.8682H22.7781H22.6881L22.5981 82.8553H22.508H22.418H22.328H22.2379H22.1479H22.0579L21.9678 82.7673H21.8778H21.7878H21.6977H21.6077H21.5177L21.4277 82.6792H21.3376H21.2476H21.1576L21.0675 82.5912H20.9775H20.8875H20.7974H20.7074L20.6174 82.5031H20.5273H20.4373H20.3473L20.2572 82.4151H20.1672H20.0772H19.9871L19.8971 82.327H19.8071H19.717L19.627 82.239H19.537H19.4469H19.3569L19.2669 82.1509H19.1768H19.0868L18.9968 82.0629H18.9068L18.8167 81.9748H18.7267L18.6367 81.8868H18.5466L18.4566 81.7987H18.3666L18.2765 81.7107H18.1865L18.0965 81.6226L18.0064 81.5346H17.9164L17.8264 81.4465L17.7363 81.3585L17.6463 81.2704L17.5563 81.1824L17.4662 81.0943L17.3762 81.0063L17.2862 80.9182L17.1961 80.8302L17.1061 80.7421L17.0161 80.6541V80.566L16.926 80.478L16.836 80.3899L16.746 80.3019V80.2138L16.6559 80.1258V80.0377L16.5659 79.9497L16.4759 79.8616V79.7736L16.3859 79.6855V79.5975L16.2958 79.5094V79.4214V79.3333L16.2058 79.2453V79.1572V79.0692L16.1158 78.9811V78.8931L16.0257 78.805V78.717V78.6289L15.9357 78.5409V78.4528V78.3648L15.8457 78.2767V78.1887V78.1006V78.0126L15.7556 77.9245V77.8365V77.7484L15.6656 77.6604V77.5723V77.4843V77.3962V77.3082L15.5756 77.2201V77.1321V77.044V76.956L15.4855 76.8679V76.7799V76.6918V76.6038V76.5157V76.4277L15.3955 76.3396V76.2516V76.1635V76.0755V75.9874L15.3055 75.8994V75.8113V75.7233V75.6352V75.5472V75.4591L15.2154 75.3711V75.283V75.195V75.1069V75.0189V74.9308V74.8428L15.1254 74.7547V74.6667V74.5786V74.4906V74.4025V74.3145V74.2264L15.0354 74.1384V74.0503V73.9623V73.8742V73.7862V73.6981L14.9453 73.6101V73.522V73.434V73.3459V73.2579V73.1698V73.0818V72.9937L14.8553 72.9057V72.8176V72.7296V72.6415V72.5535V72.4654V72.3774V72.2893L14.7653 72.2013V72.1132V72.0252V71.9371V71.8491V71.761V71.673V71.5849V71.4969L14.6752 71.4088V71.3208V71.2327V71.1447V71.0566V70.9686V70.8805V70.7925L14.5852 70.7044V70.6164V70.5283V70.4403L14.4952 70.3522V70.2642V70.1761L14.4051 70.0881H14.3151L14.2251 70H14.135H14.045H13.955H13.865H13.7749Z" fill="#34495E"/>
</svg>
