<svg width="95" height="112" viewBox="0 0 95 112" fill="none" xmlns="http://www.w3.org/2000/svg">
<path fill-rule="evenodd" clip-rule="evenodd" d="M61.4882 103.866C62.0531 102 65.054 101.463 66.7677 101.197C65.1125 101.026 64.1597 98.0256 64.453 96.8258C66.7076 96.3369 68.4226 98.8474 68.245 100.522C69.6596 99.2657 71.2383 98.1739 73.6846 98.3416C73.4599 99.8681 72.2555 101.634 69.4505 102.244C70.9207 103.184 72.0971 106.151 70.7939 107.141C69.0024 107.022 66.7394 104.152 67.5142 103.057C66.0868 104.029 63.0278 105.196 61.4882 103.866ZM67.6394 102.745C69.3299 103.035 69.6128 101.494 68.8405 100.93C68.0652 100.362 67.2738 100.917 66.9916 101.21C66.4809 101.754 66.9526 102.628 67.6394 102.745Z" fill="#4D6651" fill-opacity="0.7"/>
<path d="M57.3517 68.6954C60.5095 73.1317 63.5215 78.5278 63.7617 83.7189C63.9502 87.7441 60.508 90.9942 60.9395 95.0227C61.0236 95.8073 59.0792 96.1647 58.9809 95.2715C58.5686 91.4283 61.5115 88.3127 61.793 84.5589C62.1736 79.5009 58.5013 73.5433 55.467 69.2775C54.9687 68.5763 56.8281 67.9721 57.3466 68.7037L57.3517 68.6954Z" fill="#4D6651" fill-opacity="0.7"/>
<path d="M59.5455 90.6746C59.585 90.6509 59.6215 90.6237 59.648 90.592C59.7353 90.492 59.7627 90.3644 59.7215 90.241C58.4932 86.3166 55.6357 84.3478 53.5938 83.2073C53.4397 83.1199 53.2518 83.1109 53.0945 83.1788C52.9372 83.2466 52.8443 83.3817 52.842 83.5312C52.8409 85.8121 53.8256 88.0521 55.4153 89.3844C56.4972 90.291 57.8306 90.7612 59.2799 90.7492C59.3803 90.7472 59.4735 90.723 59.5485 90.678L59.5455 90.6746ZM53.8774 84.3705C55.6374 85.4631 57.5434 87.0765 58.5821 89.8767C57.6554 89.7711 56.8223 89.4136 56.0937 88.803C54.8793 87.7853 54.0654 86.136 53.8774 84.3705Z" fill="#4D6651" fill-opacity="0.7"/>
<path d="M62.0451 83.0923C62.1451 83.0326 62.2136 82.9437 62.2346 82.8353C62.2615 82.7127 62.2209 82.5824 62.1212 82.4821C58.9875 79.2816 55.4247 78.5111 53.0202 78.2103C52.8388 78.1908 52.6633 78.2477 52.5609 78.3674C52.4585 78.4872 52.4432 78.6509 52.5221 78.7902C53.7051 80.9128 55.7482 82.6336 57.8505 83.2854C59.2812 83.7255 60.7117 83.6703 61.9901 83.1199C62.0101 83.108 62.0261 83.0984 62.0461 83.0864L62.0451 83.0923ZM53.8729 79.1875C56.0003 79.5473 58.5318 80.3423 60.9104 82.566C60.0354 82.8115 59.1093 82.7893 58.144 82.492C56.5375 81.997 54.9554 80.7628 53.8689 79.1899L53.8729 79.1875Z" fill="#4D6651" fill-opacity="0.7"/>
<path d="M60.5646 76.8716C60.6044 76.8478 60.6421 76.8147 60.6727 76.7804C60.7706 76.6634 60.788 76.5096 60.7164 76.3718C59.0987 73.2016 55.4056 71.8252 52.5962 71.227C52.4326 71.192 52.2577 71.2276 52.1376 71.326C52.0215 71.422 51.973 71.5679 52.0085 71.7059C53.2416 76.3386 58.5038 76.7923 60.2329 76.9426C60.3501 76.9521 60.4691 76.9288 60.5646 76.8716ZM53.216 72.2373C55.4323 72.8079 57.9928 73.9056 59.4136 76.0091C57.057 75.7083 54.2884 74.8997 53.216 72.2373Z" fill="#4D6651" fill-opacity="0.7"/>
<path d="M57.5932 69.0371C57.6769 68.9871 57.7394 68.9125 57.7716 68.8241C57.8174 68.6957 57.7827 68.5515 57.6811 68.4419C55.2377 65.7371 52.8123 64.4311 50.2735 64.4431C50.122 64.4432 49.979 64.5021 49.8947 64.6003C49.8065 64.7009 49.7818 64.8327 49.8233 64.9569C50.3099 66.4268 51.4797 67.664 53.1124 68.4437C54.5745 69.1391 56.2839 69.3941 57.4622 69.0888C57.5112 69.0755 57.5572 69.0586 57.5971 69.0347L57.5932 69.0371ZM51.0098 65.3223C52.8088 65.5131 54.5391 66.4951 56.3683 68.3702C55.5974 68.3841 54.5805 68.1992 53.5683 67.7137C52.3948 67.1543 51.5074 66.3176 51.0138 65.3199L51.0098 65.3223Z" fill="#4D6651" fill-opacity="0.7"/>
<path d="M57.5876 68.1974C57.6118 68.183 57.636 68.1685 57.6581 68.1446C59.5935 66.4172 59.5095 64.0809 57.408 61.1936C57.3184 61.07 57.1632 60.9909 56.9975 60.9771C56.8278 60.9656 56.6689 61.0228 56.5715 61.1291C54.9856 62.8628 54.5873 65.8137 56.9011 68.1079C56.9955 68.2018 57.1353 68.2632 57.2806 68.2678C57.3933 68.2703 57.5028 68.248 57.5916 68.195L57.5876 68.1974ZM56.9656 62.2188C58.2764 64.2582 58.3794 65.886 57.2834 67.1614C55.9514 65.5261 56.0768 63.5906 56.9656 62.2188Z" fill="#4D6651" fill-opacity="0.7"/>
<path d="M61.7285 74.4737C63.9505 73.1445 66.6133 70.9917 64.118 67.6843C64.0322 67.572 63.8962 67.495 63.7432 67.4772C63.587 67.4559 63.4366 67.491 63.326 67.5787C60.8925 69.4369 60.083 71.6732 60.9163 74.2166C60.9642 74.3569 61.0903 74.4725 61.2489 74.5251C61.4115 74.5753 61.592 74.5604 61.7275 74.4797L61.7285 74.4737ZM63.5842 68.6015C64.6334 70.3353 64.0597 71.7993 61.7337 73.3593C61.3654 71.5685 61.9742 70.0019 63.5842 68.6015Z" fill="#4D6651" fill-opacity="0.7"/>
<path d="M66.6391 78.7501C68.6309 77.5591 69.893 75.2623 69.5612 73.4082C69.5387 73.2663 69.4348 73.1399 69.2844 73.0689C69.134 72.998 68.955 72.9885 68.806 73.0498C68.2809 73.2529 67.7584 73.5098 67.2636 73.8057C64.8643 75.2403 63.2877 77.4811 62.7932 79.0693C62.7528 79.2044 62.79 79.3486 62.8958 79.4628C62.9975 79.5795 63.1604 79.643 63.3257 79.644C64.5238 79.6543 65.636 79.3555 66.6423 78.7538L66.6391 78.7501ZM68.5587 74.1741C68.4659 75.4611 67.5919 77.071 66.0034 78.0208C65.3922 78.3863 64.7386 78.6162 64.047 78.708C64.6673 77.3441 65.9999 75.6652 67.8961 74.5314C68.1123 74.4021 68.3307 74.2826 68.5555 74.1704L68.5587 74.1741Z" fill="#4D6651" fill-opacity="0.7"/>
<path d="M68.0369 85.3334C70.0822 84.1077 71.6286 81.9574 71.799 80.1011C71.815 79.9296 71.7165 79.7651 71.5389 79.6704C71.3645 79.5794 71.146 79.5763 70.981 79.664C70.6677 79.8294 70.3178 80.0112 69.9397 80.2043C68.9359 80.722 67.7973 81.3038 66.7371 81.9392C64.2911 83.4051 63.2182 84.5955 63.3585 85.6846C63.3794 85.862 63.5251 86.015 63.7232 86.075C65.0253 86.4846 66.5592 86.219 68.0452 85.3284L68.0369 85.3334ZM70.524 80.9714C70.0338 82.321 68.8416 83.7394 67.4015 84.6025C66.3538 85.2304 65.3124 85.4857 64.4252 85.3415C64.5641 84.8001 65.2501 83.9533 67.3789 82.6775C68.414 82.0571 69.5327 81.4817 70.524 80.9714Z" fill="#4D6651" fill-opacity="0.7"/>
<path d="M66.6461 91.3594C68.1669 90.4491 69.3895 89.0213 69.7589 87.7201C69.8004 87.5784 69.7526 87.4289 69.635 87.3156C69.5173 87.2023 69.3458 87.1435 69.1708 87.1536C67.4537 87.2851 64.83 88.2099 62.9301 89.3472C61.9968 89.9059 61.3119 90.4661 60.8818 91.0131C60.7308 91.2037 60.7903 91.4687 61.0195 91.6154C62.6036 92.6491 64.6545 92.5516 66.6461 91.3594ZM68.4531 88.1566C67.9651 89.0667 67.0589 89.9989 66.009 90.6274C65.3215 91.0389 63.6507 91.8497 62.0893 91.1699C62.4513 90.814 62.9516 90.4422 63.5682 90.0731C65.039 89.1926 66.9549 88.4522 68.4573 88.1541L68.4531 88.1566Z" fill="#4D6651" fill-opacity="0.7"/>
<path fill-rule="evenodd" clip-rule="evenodd" d="M40.5838 63.4128C39.4254 64.4901 35.8651 63.6516 34.8409 62.8421C35.7012 61.0126 39.2296 61.07 40.7927 62.0363C40.3878 60.414 40.2405 58.7526 41.8682 57.1211C43.2541 58.0457 44.3001 59.7776 43.229 62.0542C45.0424 61.4937 48.7079 62.1583 48.9154 63.5694C47.7269 64.7641 43.5148 64.9144 42.8841 63.8211C43.0012 65.3087 42.3379 68.0464 40.0969 68.4595C38.573 67.1259 39.8313 64.7497 40.5838 63.4128ZM42.6465 63.5774C43.9435 62.5344 42.5785 61.5657 41.5547 61.8218C40.5266 62.0806 40.6046 62.9165 40.7319 63.2592C40.9661 63.8896 42.1232 63.9985 42.6465 63.5774Z" fill="#4D6651" fill-opacity="0.7"/>
<path d="M36.0279 23.1714C44.3546 25.3269 50.3258 33.5312 50.6148 40.6283C50.7518 43.9879 47.3303 56.3776 54.3207 56.4768C55.3207 56.4917 53.6897 57.1844 53.3692 57.2177C46.4133 57.9781 42.085 52.6216 39.0313 48.0486C36.5624 44.3548 35.1612 40.4284 31.4172 37.3993C28.8248 35.3016 24.9832 32.9091 21.3287 32.7536C20.7934 32.7303 22.3609 31.9856 22.8246 32.0042C25.9801 32.1357 28.9162 33.8521 31.3825 35.4368C34.4971 37.4437 36.6148 40.0119 38.3142 42.9532C41.1836 47.9073 45.8052 57.4045 54.1069 56.4991C53.7894 56.748 53.476 56.9945 53.1554 57.2399C45.9846 57.1377 48.3895 47.1454 48.6578 43.5108C49.2264 35.7344 43.6723 26.2932 34.2779 23.8613C34.0662 23.8081 35.4583 23.0308 36.0198 23.1763L36.0279 23.1714Z" fill="#4D6651" fill-opacity="0.7"/>
<path d="M57.0145 46.8374C58.5677 45.9065 59.6415 44.7091 60.2081 43.2788C60.2562 43.1661 60.2421 43.0403 60.1725 42.9309C60.1029 42.8216 59.9915 42.7373 59.8502 42.699C58.129 42.2091 56.0929 42.6574 53.7883 44.0387C52.2309 44.972 50.5923 46.3233 49.1796 47.8468C49.0613 47.9737 49.0413 48.1479 49.1261 48.304C49.211 48.4601 49.3878 48.5612 49.5856 48.5769C51.5476 48.7155 54.5294 48.3324 57.0136 46.8436L57.0145 46.8374ZM58.9989 43.4218C58.4615 44.4766 57.5818 45.3786 56.3752 46.1018C54.5465 47.1978 52.3841 47.6323 50.7188 47.6963C51.9013 46.5289 53.1969 45.5062 54.4286 44.7681C55.6602 44.0299 57.4105 43.2382 58.9947 43.4243L58.9989 43.4218Z" fill="#4D6651" fill-opacity="0.7"/>
<path d="M54.6964 41.6055C56.6153 40.4577 57.6026 38.6548 57.8061 35.9304C57.8188 35.756 57.7132 35.5912 57.5319 35.4994C57.3507 35.4076 57.1308 35.4168 56.9684 35.5139C56.5813 35.7455 56.2045 35.9598 55.8194 36.179C55.3968 36.4207 54.9627 36.6637 54.5298 36.9226C52.203 38.3144 49.9205 40.0913 50.6118 42.7309C50.65 42.8693 50.7625 42.9911 50.9109 43.0524C51.0625 43.1175 51.2396 43.1172 51.3855 43.0522C51.7222 42.9008 52.0831 42.7628 52.4482 42.6222C53.194 42.3374 53.968 42.0412 54.7048 41.6005L54.6964 41.6055ZM56.6437 36.7982C56.2328 39.2628 55.0677 40.2656 54.0563 40.8706C53.3945 41.2665 52.6643 41.5476 51.9623 41.8174C51.8141 41.8726 51.6734 41.929 51.5252 41.9843C51.4352 40.1584 53.199 38.8254 55.1552 37.6551C55.5798 37.4012 56.0066 37.157 56.424 36.924C56.4948 36.8817 56.5655 36.8394 56.6395 36.8007L56.6437 36.7982Z" fill="#4D6651" fill-opacity="0.7"/>
<path d="M49.6108 33.0356C54.0399 30.395 54.0376 27.4984 53.5471 25.2715C53.5175 25.13 53.4061 25.0098 53.2568 24.9396C53.1034 24.8719 52.9279 24.8722 52.78 24.9329C50.1367 26.0753 46.8576 30.2751 48.5812 33.0073C48.6562 33.1217 48.7807 33.2067 48.9244 33.2417C49.0723 33.2743 49.2247 33.2548 49.3476 33.187C49.4343 33.1354 49.521 33.0837 49.6077 33.032L49.6108 33.0356ZM52.652 26.0576C52.9311 27.9495 52.544 30.0848 49.2646 32.1443C48.5748 30.1131 50.6969 27.2616 52.652 26.0576Z" fill="#4D6651" fill-opacity="0.7"/>
<path d="M40.6841 24.0759C40.6841 24.0759 40.7198 24.0545 40.7356 24.045C41.674 23.3028 41.9935 22.0569 41.621 20.6317C41.1297 18.7584 39.3501 16.4219 36.4834 15.4252C36.3403 15.3784 36.1819 15.3832 36.054 15.4439C35.9261 15.5046 35.8406 15.6141 35.8211 15.7371C35.5096 17.8368 37.0643 19.9424 38.5763 21.9782C39.031 22.591 39.4969 23.2235 39.9008 23.8401C39.9153 23.8844 39.9437 23.931 39.9771 23.9693C40.1468 24.1644 40.4505 24.2158 40.6802 24.0782L40.6841 24.0759ZM36.7794 16.451C38.9191 17.4219 40.2543 19.2615 40.6466 20.7648C40.8771 21.639 40.7943 22.4093 40.433 22.9702C40.1035 22.4945 39.7551 22.0248 39.4128 21.562C38.0901 19.7785 36.8332 18.0775 36.7794 16.451Z" fill="#4D6651" fill-opacity="0.7"/>
<path d="M35.7173 24.2764C35.8639 24.1891 35.9402 24.0356 35.9129 23.8842C35.8836 23.7233 35.755 23.5836 35.5658 23.5233C32.5694 22.5503 29.0208 21.5979 25.399 21.9488C25.2117 21.9684 25.059 22.0701 24.9981 22.2199C24.9372 22.3697 24.9809 22.5329 25.1083 22.6571C28.4205 25.7666 31.9822 26.3165 35.6928 24.291C35.6969 24.2885 35.7051 24.2837 35.7091 24.2813L35.7173 24.2764ZM26.6012 22.7412C29.2535 22.6703 31.8732 23.2838 34.2151 23.9977C31.5474 25.1266 29.0467 24.7126 26.6012 22.7412Z" fill="#4D6651" fill-opacity="0.7"/>
<path d="M44.2223 30.6244C44.3732 30.5345 44.5219 30.4351 44.6645 30.3286C44.7652 30.2524 44.8236 30.1419 44.8234 30.0283C44.8273 29.9123 44.7686 29.7957 44.6681 29.7093C41.2663 26.7818 37.8083 27.3683 34.2626 28.2939C34.1009 28.3361 33.9759 28.4484 33.9384 28.5898C33.9009 28.7312 33.9507 28.8802 34.073 28.9914C36.4942 31.182 41.2601 32.3934 44.2254 30.6279L44.2223 30.6244ZM35.4245 28.9121C38.2986 28.2186 40.9361 27.9636 43.5338 29.9517C41.2807 31.2336 37.6423 30.4876 35.4245 28.9121Z" fill="#4D6651" fill-opacity="0.7"/>
<path d="M48.8773 38.9253L48.9172 38.9015C49.1371 38.7701 49.1724 38.504 49.0043 38.3113C47.3852 36.4912 45.7448 35.8243 44.159 35.178C43.2008 34.791 42.2982 34.4188 41.3908 33.8044C41.2509 33.7067 41.0635 33.6801 40.8969 33.7263C40.7335 33.7759 40.6171 33.8934 40.5896 34.0431C40.2455 35.9483 41.822 37.7405 43.5358 38.6727C45.3994 39.686 47.446 39.78 48.8773 38.9253ZM41.5653 34.9311C42.3064 35.3411 43.0432 35.6418 43.7599 35.9332C45.1759 36.5104 46.5212 37.0552 47.8655 38.4211C46.6165 38.9272 45.1089 38.538 44.0471 37.9624C42.8526 37.3116 41.7281 36.1767 41.5694 34.9287L41.5653 34.9311Z" fill="#4D6651" fill-opacity="0.7"/>
<path d="M42.2101 48.214C44.237 47.007 45.5731 45.0183 45.6213 43.1484C45.6531 41.9584 45.1519 40.9441 44.1802 40.2264C44.0709 40.1444 43.9219 40.1024 43.7795 40.111C43.6331 40.1219 43.5047 40.182 43.4221 40.2802C42.1143 41.838 39.0462 45.4846 40.7216 48.4033C40.7857 48.5122 40.8972 48.6038 41.0359 48.641C41.1777 48.6818 41.3242 48.6708 41.4485 48.6132C41.7084 48.4965 41.9599 48.3631 42.206 48.2165L42.2101 48.214ZM43.9235 41.2236C44.4853 41.8368 44.6003 42.5527 44.5894 43.0821C44.5491 44.7185 43.2588 46.56 41.4355 47.586C40.6712 45.4156 42.7007 42.7144 43.9307 41.2247L43.9235 41.2236Z" fill="#4D6651" fill-opacity="0.7"/>
<path d="M37.2343 40.8902C37.2788 40.8637 37.3172 40.8301 37.3525 40.7929C38.4087 39.5076 41.5335 35.0806 37.4084 32.0085C37.2872 31.9193 37.1288 31.8792 36.9752 31.9008C36.8216 31.9224 36.692 31.9996 36.6228 32.1107C34.8506 35.0489 34.7855 37.9169 36.4286 40.6386C36.4465 40.6871 36.4715 40.7368 36.5117 40.7828C36.6819 40.9772 37.0034 41.0277 37.2262 40.895C37.2262 40.895 37.2302 40.8926 37.2343 40.8902ZM37.2453 33.047C39.5451 35.2377 38.0356 38.1593 36.9836 39.6465C35.9492 37.5357 36.0335 35.3232 37.2453 33.047Z" fill="#4D6651" fill-opacity="0.7"/>
<path d="M28.6263 34.2486C28.6738 34.2201 28.7153 34.1847 28.7468 34.1446C29.4766 33.1829 29.6338 31.6946 29.1572 30.1566C28.7967 28.9943 27.7573 26.8233 24.8333 25.3461C24.7109 25.2816 24.5661 25.2676 24.4319 25.3003C24.2976 25.333 24.1918 25.4122 24.1392 25.5179C23.1072 27.5035 25.6861 31.8111 27.9461 34.1523C28.051 34.2591 28.2023 34.3222 28.3639 34.3209C28.4606 34.3213 28.555 34.2913 28.6303 34.2462L28.6263 34.2486ZM24.9119 26.3645C27.0879 27.6535 27.8946 29.3702 28.1918 30.3212C28.5038 31.3377 28.5055 32.3438 28.2061 33.1008C26.288 30.91 24.6948 27.9363 24.9119 26.3645Z" fill="#4D6651" fill-opacity="0.7"/>
<path d="M21.6426 32.6477C21.698 32.6145 21.7444 32.5709 21.7816 32.5167C22.2918 31.7183 22.2022 30.7915 21.5261 29.8343C20.2115 27.977 16.7652 26.2726 14.1582 26.1909C13.9727 26.1854 13.8061 26.264 13.7239 26.398C13.6417 26.532 13.6516 26.6957 13.7558 26.8294C15.856 29.5412 17.8304 31.4646 21.1635 32.6855C21.3297 32.745 21.5079 32.7284 21.6426 32.6477ZM15.1752 27.1453C17.2783 27.5341 19.6993 28.8561 20.6774 30.2366C21.0636 30.7844 21.1921 31.2851 21.0558 31.7378C18.5256 30.7196 16.8854 29.2428 15.1752 27.1453Z" fill="#4D6651" fill-opacity="0.7"/>
<path d="M23.132 36.3332C23.9056 35.8717 24.6524 35.2501 25.289 34.5455C25.3805 34.4413 25.4092 34.3086 25.3703 34.1776C25.3273 34.0492 25.2251 33.9394 25.0777 33.8788C22.8409 32.9394 19.7643 33.2498 17.4147 34.6515C17.0631 34.8612 16.7336 35.0963 16.4438 35.3408C16.2489 35.5066 16.2581 35.7764 16.4546 35.9509C18.338 37.6021 20.77 37.7423 23.132 36.3332ZM24.0117 34.4376C23.542 34.894 23.0259 35.29 22.4964 35.6058C21.2223 36.3659 19.377 36.9547 17.5768 35.6724C17.7245 35.5677 17.8795 35.4643 18.0408 35.368C19.8402 34.2946 22.194 33.9419 24.0085 34.434L24.0117 34.4376Z" fill="#4D6651" fill-opacity="0.7"/>
<path d="M30.5673 39.7029C31.0896 39.3918 31.5591 38.9919 31.9636 38.5106C32.1107 38.3356 32.075 38.0947 31.8841 37.9409C28.9509 35.5976 24.9854 37.2281 22.8512 38.1062L22.7596 38.1444C22.6082 38.2073 22.5061 38.3337 22.49 38.4798C22.474 38.6258 22.5511 38.7711 22.6886 38.8639C25.2871 40.6747 28.3839 41.0036 30.5673 39.7029ZM30.8202 38.2907C30.5499 38.5609 30.2524 38.7927 29.9317 38.9838C28.3075 39.9514 26.0412 39.7995 23.9834 38.6278C25.9304 37.8503 28.7015 36.9422 30.8202 38.2907Z" fill="#4D6651" fill-opacity="0.7"/>
<path d="M35.8335 44.1608C35.9434 44.0953 36.0575 44.0274 36.1653 43.9524C36.2802 43.8786 36.3425 43.7658 36.3474 43.644C36.3522 43.5223 36.2905 43.4023 36.1871 43.3125C32.7736 40.4973 29.3268 41.1174 27.0356 41.833C26.8804 41.8822 26.7628 41.9955 26.7325 42.1378C26.6992 42.2765 26.7561 42.4264 26.8791 42.5315C30.0511 45.269 33.0667 45.819 35.8397 44.1679L35.8335 44.1608ZM28.177 42.4289C30.8753 41.7464 33.0344 42.1038 35.025 43.5559C32.8781 44.7477 30.683 44.3847 28.177 42.4289Z" fill="#4D6651" fill-opacity="0.7"/>
<path d="M40.1269 51.4107C40.1627 51.3893 40.1956 51.3643 40.2223 51.3324C40.3303 51.22 40.3547 51.0671 40.2869 50.9268C38.6675 47.401 33.9512 45.2316 30.9719 45.7148C30.8347 45.7383 30.7192 45.8073 30.6491 45.9077C30.579 46.0081 30.5703 46.1303 30.6168 46.2461C32.1655 50.0801 36.5796 51.0687 39.7666 51.4772C39.8941 51.4913 40.0202 51.4691 40.1198 51.4096L40.1269 51.4107ZM31.7921 46.4956C34.1343 46.4358 37.4511 48.043 38.9925 50.5199C36.2034 50.081 33.1499 49.1513 31.7921 46.4956Z" fill="#4D6651" fill-opacity="0.7"/>
<path fill-rule="evenodd" clip-rule="evenodd" d="M7.17089 23.2479C6.01253 24.3252 2.45221 23.4867 1.42801 22.6772C2.28828 20.8476 5.81676 20.9051 7.37987 21.8714C6.97495 20.2491 6.82765 18.5877 8.45529 16.9562C9.84124 17.8808 10.8872 19.6126 9.81608 21.8892C11.6295 21.3288 15.295 21.9934 15.5026 23.4045C14.3097 24.6018 10.1019 24.7495 9.46832 23.6528C9.58542 25.1404 8.92215 27.8781 6.68112 28.2912C5.15721 26.9576 6.41556 24.5813 7.16801 23.2445L7.17089 23.2479ZM9.22939 23.4152C10.5264 22.3721 9.16136 21.4034 8.13755 21.6595C7.10949 21.9183 7.18747 22.7542 7.31481 23.0969C7.54901 23.7273 8.70608 23.8362 9.22939 23.4152Z" fill="#4D6651" fill-opacity="0.7"/>
</svg>
