<svg width="98" height="124" viewBox="0 0 98 124" fill="none" xmlns="http://www.w3.org/2000/svg">
<path d="M97.5 102.252C97.3659 102.695 97.2223 103.134 97.1635 103.597C97.0811 104.254 97.0129 104.916 96.9023 105.571C96.7705 106.356 96.5752 107.132 96.2058 107.844C96.1305 107.991 95.9611 108.088 95.8057 108.233C95.6151 108.173 95.4128 108.09 95.2033 108.052C94.8104 107.981 94.4103 107.929 94.015 107.879C93.8691 107.86 93.7208 107.874 93.5749 107.855C93.2408 107.815 93.1843 107.746 93.0926 107.416C93.0549 107.281 92.9725 107.151 92.8831 107.042C92.2784 106.306 91.7513 105.516 91.25 104.707C91.1088 104.479 90.9347 104.273 90.7771 104.055C90.3276 103.431 89.904 102.792 89.5158 102.126C89.1534 101.507 88.711 100.935 88.3063 100.342C87.8733 99.7035 87.445 99.0629 87.0097 98.4247C86.3555 97.4686 85.7178 96.4983 85.0307 95.5659C84.753 95.1887 84.3765 94.8826 84.0282 94.5599C83.3482 93.9265 82.654 93.3073 81.9716 92.6762C81.3245 92.0807 80.6844 91.4781 80.0397 90.8826C79.842 90.6999 79.6302 90.5314 79.4349 90.3464C79.1431 90.0688 78.8607 89.7817 78.569 89.5018C78.5195 89.4543 78.456 89.4211 78.3501 89.3476C78.4395 89.6418 78.5078 89.8814 78.5854 90.121C78.6419 90.2966 78.7172 90.465 78.776 90.6382C79.0466 91.452 79.3031 92.2705 79.5855 93.0819C79.7055 93.4283 79.8867 93.7533 80.0255 94.0926C80.5126 95.2859 80.9927 96.484 81.4821 97.6774C81.621 98.019 81.7927 98.3464 81.9316 98.6857C82.1481 99.2195 82.3457 99.7604 82.5528 100.297C82.8258 101.006 83.1058 101.713 83.3741 102.422C83.6141 103.063 83.8353 103.711 84.08 104.351C84.2282 104.74 84.4024 105.12 84.5624 105.504C84.746 105.946 84.9248 106.387 85.106 106.828C85.2189 107.101 85.2589 107.367 85.0448 107.616C84.793 107.912 84.5459 108.214 84.2965 108.515C83.8753 109.02 83.447 109.521 83.0964 110.086C82.8328 110.51 82.4963 110.887 82.2069 111.298C81.8422 111.817 81.4704 112.335 81.2609 112.942C81.1739 113.193 81.0021 113.319 80.7644 113.357C79.8373 113.507 78.9078 113.642 77.9783 113.787C77.6206 113.841 77.2676 113.917 76.91 113.957C76.5641 113.998 76.2393 113.941 75.964 113.68C75.8816 113.602 75.7687 113.438 75.5828 113.545C75.564 113.556 75.4769 113.459 75.4298 113.405C75.058 112.951 74.8415 112.42 74.6627 111.867C74.3709 110.97 74.0768 110.074 73.7803 109.179C73.7544 109.103 73.6956 109.037 73.6485 108.963C73.305 109.011 73.079 109.227 72.8814 109.452C72.6108 109.763 72.2366 109.919 71.9237 110.164C71.6013 110.415 71.2318 110.605 70.893 110.838C70.5141 111.099 70.0788 111.189 69.6458 111.205C69.4529 111.212 69.2246 111.027 69.0552 110.88C68.4622 110.356 67.8857 109.81 67.3044 109.272C66.8385 108.84 66.3608 108.42 65.9161 107.969C65.5137 107.561 65.0007 107.374 64.4995 107.163C64.13 107.008 63.7488 106.885 63.3723 106.75C63.1229 106.66 62.8688 106.579 62.624 106.479C62.5558 106.451 62.4899 106.38 62.4523 106.311C62.1558 105.756 61.7275 105.31 61.2921 104.868C61.2498 104.826 61.2074 104.781 61.1674 104.733C60.4521 103.931 59.7414 103.125 59.019 102.33C58.6496 101.924 58.2542 101.545 57.8754 101.148C57.5648 100.823 57.2659 100.484 56.9529 100.159C56.7788 99.9763 56.5858 99.815 56.4117 99.63C55.9717 99.1602 55.5387 98.6833 55.101 98.2112C54.8139 97.9028 54.5221 97.5967 54.1927 97.248C54.0562 97.6038 53.9221 97.9146 53.8162 98.2373C53.5173 99.1483 53.2232 100.059 52.9408 100.975C52.7855 101.48 52.6655 101.993 52.5267 102.503C52.4537 102.776 52.3643 103.044 52.3031 103.319C52.1431 104.024 51.9996 104.733 51.8395 105.44C51.7878 105.668 51.729 105.896 51.6466 106.112C51.296 107.046 51.1148 108.024 50.903 108.994C50.7595 109.654 50.5736 110.304 50.3853 110.951C50.2418 111.445 50.1029 111.938 50.0841 112.458C50.07 112.873 49.9641 112.999 49.5546 113.077C49.4252 113.103 49.2934 113.127 49.1334 113.156C49.1452 113.298 49.1452 113.431 49.1687 113.559C49.2487 113.969 49.3429 114.375 49.4276 114.783C49.4652 114.963 49.4958 115.146 49.3899 115.319C49.1099 115.777 49.0746 116.297 49.0581 116.814C49.0464 117.12 49.0558 117.431 49.0817 117.737C49.0958 117.91 49.0558 118.048 48.964 118.183C48.5828 118.75 48.1851 119.31 47.8298 119.893C47.4486 120.52 47.1027 121.165 46.7591 121.813C46.6391 122.038 46.4979 122.223 46.2626 122.313C46.0367 122.401 45.8037 122.475 45.5731 122.551C45.1213 122.695 44.6695 122.833 44.2177 122.98C43.7494 123.132 43.2623 123.113 42.7823 123.146C42.4081 123.17 42.034 123.182 41.6598 123.194C41.4363 123.201 41.2269 123.17 41.0645 122.985C40.8339 122.721 40.5609 122.489 40.3586 122.207C39.8103 121.44 39.2879 120.655 38.7561 119.879C38.5702 119.606 38.396 119.324 38.1843 119.07C37.9937 118.842 38.0172 118.619 38.0854 118.363C38.1466 118.128 38.1748 117.886 38.2219 117.649C38.2454 117.528 38.2572 117.405 38.2996 117.291C38.4502 116.866 38.6078 116.441 38.7702 116.022C38.8926 115.704 39.0455 115.398 39.1561 115.077C39.4102 114.342 39.662 113.604 39.8926 112.859C40.2644 111.658 40.6244 110.453 40.9821 109.248C41.1516 108.676 41.2998 108.097 41.4598 107.521C41.6787 106.74 41.8999 105.962 42.1164 105.182C42.3352 104.392 42.547 103.602 42.7611 102.809C42.7658 102.79 42.7517 102.764 42.7376 102.7C42.2787 102.989 41.8199 103.255 41.3845 103.556C40.9563 103.855 40.5586 104.202 40.1326 104.508C39.8879 104.686 39.615 104.826 39.3585 104.989C38.9067 105.276 38.4572 105.571 38.0054 105.858C37.2995 106.309 36.5912 106.759 35.8829 107.205C35.5323 107.426 35.1628 107.616 34.831 107.86C34.6216 108.014 34.4051 107.979 34.2333 107.905C33.8615 107.749 33.4638 107.72 33.0897 107.59C32.4543 107.369 31.7813 107.253 31.1883 106.916C30.6659 106.619 30.3718 106.183 30.3859 105.545C30.4024 104.809 30.5106 104.088 30.6306 103.364C30.6589 103.196 30.6589 103.025 30.6777 102.769C30.5577 102.911 30.4824 102.994 30.4142 103.082C29.8329 103.836 29.2517 104.591 28.6728 105.348C28.5458 105.514 28.4446 105.696 28.3199 105.865C27.8375 106.522 27.3433 107.174 26.8656 107.836C26.4209 108.451 25.9949 109.077 25.5526 109.692C24.8819 110.624 24.1972 111.547 23.5336 112.484C23.1806 112.982 22.8535 113.5 22.5288 114.019C22.3735 114.268 22.1687 114.358 21.8934 114.306C21.1969 114.176 20.5239 114.335 19.8462 114.458C19.5497 114.513 19.2767 114.664 18.959 114.622C18.2013 114.52 17.4436 114.43 16.6859 114.337C16.4223 114.304 16.1564 114.28 15.8788 114.252C15.7117 114.645 15.4058 114.861 15.0457 115.044C14.6904 115.224 14.3704 115.481 14.0339 115.699C13.6998 115.912 13.3703 116.133 13.0244 116.33C12.6573 116.539 12.2855 116.738 11.9043 116.918C11.6408 117.044 11.4054 117.02 11.1207 116.857C10.3089 116.394 9.69234 115.73 9.07582 115.054C8.77932 114.728 8.44989 114.434 8.14398 114.119C7.99103 113.962 7.85924 113.784 7.71805 113.616C7.47332 113.329 7.2333 113.039 6.98387 112.757C6.74385 112.486 6.57913 112.176 6.46148 111.839C6.43559 111.763 6.42618 111.654 6.46148 111.592C6.58149 111.386 6.70149 111.165 6.86857 110.997C7.43568 110.427 7.82158 109.723 8.30162 109.089C8.5793 108.719 8.83817 108.337 9.1229 107.936C8.84993 107.758 8.55106 107.779 8.2781 107.789C7.7957 107.803 7.31331 107.694 6.83326 107.813C6.81209 107.817 6.78622 107.803 6.76269 107.798C6.03086 107.668 5.28961 107.644 4.54837 107.599C3.87066 107.559 3.19295 107.549 2.5176 107.509C2.35523 107.5 2.18111 107.438 2.03992 107.35C1.89873 107.262 1.8752 107.096 1.83284 106.921C1.72224 106.463 1.5081 106.033 1.3575 105.585C1.22337 105.179 1.09866 104.766 1.0116 104.346C0.889233 103.758 0.806871 103.163 0.70098 102.569C0.672742 102.413 0.656265 102.247 0.59273 102.107C0.371534 101.632 0.57626 101.274 0.889229 100.951C1.08454 100.75 1.30808 100.579 1.51516 100.389C2.04462 99.9075 2.56467 99.4188 3.09884 98.9419C3.57182 98.5196 4.0542 98.1092 4.53895 97.6987C5.23783 97.108 5.95085 96.5362 6.64032 95.936C7.17213 95.4734 7.68982 94.9917 8.19339 94.4959C8.81227 93.8885 9.41467 93.2645 10.0147 92.6382C10.5795 92.0475 11.1395 91.452 11.6808 90.8399C11.9302 90.5575 12.0973 90.1946 12.3632 89.9312C13.3374 88.9609 14.0904 87.8078 14.9705 86.7568C15.5376 86.0807 16.1023 85.4045 16.6506 84.7141C17.2883 83.9075 17.8954 83.0794 18.5331 82.2728C19.0579 81.6109 19.6062 80.9679 20.1403 80.3131C20.4815 79.8956 20.8157 79.4733 21.1545 79.0509C21.7216 78.3439 22.2864 77.6369 22.8606 76.9347C23.5642 76.0711 24.263 75.2028 24.9854 74.3534C25.5008 73.7461 26.0561 73.1743 26.5809 72.5764C27.1527 71.924 27.6986 71.2478 28.2704 70.5954C28.8587 69.924 29.4753 69.2763 30.0588 68.6001C30.5295 68.0544 30.9718 67.4851 31.4236 66.9228C31.8143 66.4364 32.2026 65.9501 32.5932 65.4637C32.6238 65.4257 32.6543 65.3854 32.6943 65.3569C33.5909 64.7211 34.271 63.8599 35.0122 63.0675C35.7652 62.2632 36.5135 61.4518 37.25 60.6309C37.796 60.0236 38.3137 59.3877 38.7796 58.7116C38.9184 58.5123 39.0784 58.3272 39.2267 58.1374C39.3161 58.0212 39.3232 57.9168 39.2714 57.765C38.8314 56.434 38.4737 55.084 38.4243 53.67C38.4031 53.0959 38.3442 52.5194 38.3631 51.9476C38.3866 51.1884 38.476 50.4339 38.6713 49.6937C38.8314 49.0911 38.9255 48.4695 39.1278 47.8835C39.3396 47.2643 39.4808 46.6166 39.8526 46.0496C40.1562 45.5846 40.3562 45.0508 40.6409 44.5715C40.8951 44.1445 41.2057 43.753 41.4904 43.3449C41.6292 43.1456 41.761 42.9416 41.9069 42.7495C42.2646 42.2844 42.6576 41.8432 42.9823 41.3568C43.46 40.6356 43.893 39.8835 44.3424 39.1433C44.686 38.5786 44.9707 37.9831 45.2249 37.3734C45.5849 36.505 45.8508 35.6249 45.799 34.6687C45.7896 34.5098 45.8249 34.3508 45.8202 34.1919C45.7896 32.925 45.759 31.6604 45.7167 30.3935C45.7072 30.1491 45.6461 29.9095 45.6084 29.6652C45.5002 28.9487 45.3919 28.2322 45.2813 27.5157C45.2084 27.0436 45.1001 26.5738 45.0719 26.0969C45.0084 24.9795 44.8813 23.862 45.0201 22.7422C45.1213 21.919 45.286 21.1194 45.6484 20.365C45.9237 19.7908 46.1097 19.1811 46.272 18.5619C46.4038 18.0589 46.6462 17.5844 46.8321 17.0933C47.0321 16.5595 47.4039 16.1325 47.7121 15.6651C47.9569 15.295 48.1545 14.9035 48.2063 14.4504C48.2651 13.9498 48.3475 13.4515 48.4063 12.9509C48.4275 12.7706 48.4087 12.588 48.4087 12.4053C48.7028 12.448 48.7734 12.5002 48.7781 12.7896C48.7875 13.2665 48.7781 13.7457 48.7616 14.225C48.7334 14.9771 48.491 15.6674 48.1498 16.3294C47.9757 16.6639 47.7921 16.9984 47.651 17.3472C47.2792 18.2701 46.985 19.2072 46.9285 20.2179C46.8791 21.0957 46.9803 21.9593 46.9991 22.83C47.025 24.0661 47.2956 25.2689 47.4768 26.4836C47.5404 26.9083 47.5921 27.333 47.6627 27.7577C47.8345 28.785 48.0369 29.8099 48.1875 30.8419C48.3757 32.1397 48.3287 33.4327 48.0275 34.7162C47.9404 35.0863 47.8863 35.4635 47.811 35.8384C47.7898 35.9451 47.7521 36.0472 47.7051 36.2085C47.6462 36.1112 47.5898 36.059 47.5851 36.0045C47.5521 35.6391 47.5098 35.2714 47.5098 34.9036C47.5098 34.4362 47.5851 33.9689 47.5615 33.5062C47.5145 32.6616 47.4486 31.817 47.3333 30.9795C47.2227 30.1657 47.0391 29.3639 46.8885 28.5572C46.7921 28.04 46.6956 27.5204 46.5991 27.0032C46.472 26.3294 46.3049 25.6628 46.2273 24.9842C46.1402 24.1989 45.9991 23.416 46.032 22.6141C46.0485 22.1989 45.9826 21.7814 45.9614 21.3662C45.952 21.1598 45.9614 20.9534 45.8978 20.7232C45.8484 20.8537 45.7943 20.9795 45.752 21.1123C45.6014 21.5939 45.5167 22.085 45.4437 22.5856C45.3331 23.3614 45.366 24.1301 45.4037 24.9059C45.4484 25.7932 45.632 26.6592 45.799 27.5299C45.912 28.1207 45.9826 28.7233 46.1402 29.3045C46.4155 30.3271 46.4414 31.371 46.4956 32.4149C46.552 33.5086 46.5614 34.6023 46.4838 35.696C46.4391 36.3295 46.2673 36.9274 46.072 37.5252C45.7237 38.6 45.1895 39.594 44.7189 40.6118C44.5307 41.0175 44.2365 41.371 44.013 41.7625C43.5259 42.6142 42.9141 43.3758 42.3375 44.1658C41.9728 44.6641 41.674 45.2168 41.3775 45.7625C41.0386 46.3841 40.7351 47.0271 40.4197 47.6629C40.3562 47.7934 40.2997 47.9333 40.2668 48.0733C40.1703 48.4648 40.0903 48.8586 39.9962 49.2524C39.8832 49.7293 39.7703 50.2062 39.6408 50.6759C39.4361 51.4209 39.4597 52.1848 39.4432 52.944C39.4338 53.4423 39.4432 53.9429 39.4596 54.4411C39.4902 55.3403 39.6267 56.2252 39.8126 57.1054C39.822 57.1481 39.8456 57.1884 39.8879 57.2905C39.9915 57.1529 40.062 57.0627 40.1303 56.9678C40.608 56.3154 41.0621 55.6463 41.5704 55.02C41.8622 54.6594 42.1987 54.3201 42.4058 53.912C42.7493 53.2359 43.3494 52.9464 43.9894 52.702C44.6672 52.4411 45.3684 52.2631 46.0743 52.0994C46.4861 52.0045 46.8862 51.8551 47.298 51.7531C47.7357 51.6463 48.1781 51.5561 48.6205 51.4802C48.7922 51.4518 48.9052 51.3996 48.9828 51.2335C49.1499 50.88 49.3123 50.5194 49.5288 50.1967C49.8864 49.6605 50.2606 49.1315 50.6771 48.6403C50.8771 48.4055 51.1783 48.2963 51.5313 48.3272C52.1361 48.3794 52.7455 48.377 53.3879 48.3984C53.3668 48.1706 53.3667 47.9262 53.315 47.6913C53.0891 46.6356 52.8349 45.587 52.6232 44.5288C52.449 43.6605 52.4184 42.7756 52.4584 41.8906C52.4867 41.269 52.5031 40.6474 52.6161 40.0282C52.8655 38.6759 53.2632 37.3852 53.9433 36.1848C54.2751 35.5964 54.621 35.0128 54.8163 34.358C55.0092 33.7103 55.2045 33.0626 55.3763 32.4101C55.4422 32.1658 55.4493 31.9072 55.4846 31.6557C55.6681 31.6414 55.6775 31.7696 55.6705 31.8739C55.6446 32.2654 55.6469 32.6664 55.5575 33.046C55.4069 33.6913 55.2163 34.3271 55.0069 34.9534C54.8869 35.3117 54.701 35.6486 54.5363 35.9902C54.0068 37.0768 53.5926 38.2014 53.3667 39.3924C53.2938 39.7767 53.2209 40.1634 53.1761 40.5525C53.1432 40.842 53.1432 41.1385 53.1479 41.4303C53.162 42.3556 53.322 43.2619 53.5432 44.1587C53.7456 44.9796 53.948 45.8029 54.1103 46.6332C54.2821 47.5087 54.3692 48.3983 54.3268 49.2952C54.2892 50.0923 54.2656 50.8918 54.1974 51.6866C54.0774 53.0508 53.8444 54.3984 53.4279 55.7033C53.1549 56.5574 52.8232 57.3901 52.5196 58.2347C52.2208 59.0674 51.8748 59.886 51.6419 60.7377C51.3242 61.9097 51.2819 63.1125 51.3878 64.3273C51.4725 65.2857 51.5525 66.2395 51.7784 67.1766C51.896 67.6654 52.0231 68.1541 52.1761 68.6333C52.3949 69.3237 52.6232 70.0118 52.882 70.6856C53.1079 71.2787 53.3738 71.8552 53.6326 72.4341C53.8727 72.9703 54.1174 73.5041 54.3786 74.0284C54.6398 74.5551 54.9292 75.0675 55.1975 75.5895C55.4563 76.0877 55.7034 76.5907 55.9599 77.0913C56.2164 77.5895 56.4776 78.0854 56.6282 78.6334C56.6776 78.809 56.7459 78.9798 56.7953 79.1577C56.9576 79.7508 57.1506 80.3368 57.2636 80.9395C57.3836 81.5777 57.4189 82.2325 57.5036 82.8778C57.6095 83.6726 57.5083 84.4697 57.5295 85.2645C57.5483 85.9549 57.4306 86.6334 57.4047 87.3191C57.3765 88.0783 57.4048 88.8422 57.4448 89.6014C57.4965 90.6263 57.673 91.6299 58.186 92.5362C58.4378 92.9822 58.7201 93.4164 59.0237 93.8316C59.3037 94.2136 59.6238 94.5671 59.9391 94.9229C60.1885 95.2029 60.4591 95.4639 60.7674 95.7058C60.7486 95.6465 60.7415 95.5825 60.7109 95.5327C60.5109 95.1958 60.292 94.8707 60.1085 94.5243C59.9744 94.2681 59.8873 93.9882 59.7767 93.7201C59.6567 93.4259 59.5108 93.1388 59.4237 92.8351C59.1155 91.7699 58.9602 90.6762 58.8519 89.573C58.7813 88.8636 58.6943 88.1566 58.6754 87.4448C58.659 86.771 58.7131 86.0925 58.7531 85.4187C58.7672 85.1933 58.7907 85.1933 59.0731 85.2313C59.2496 85.7034 59.3061 86.1993 59.3626 86.7022C59.4402 87.3831 59.4732 88.0712 59.685 88.7355C59.7956 89.0818 59.8473 89.452 59.892 89.815C59.9767 90.5101 60.2026 91.172 60.3321 91.8553C60.438 92.4176 60.6285 92.9348 60.8992 93.4306C61.1909 93.9668 61.4686 94.5101 61.7581 95.0463C61.871 95.2551 61.991 95.4639 62.1228 95.6608C62.4428 96.1376 62.7652 96.6098 63.2076 96.9846C63.2264 97.0012 63.2547 97.0107 63.2641 97.0297C63.6288 97.6465 64.2148 97.9929 64.8054 98.3441C65.6361 98.8399 66.4832 99.2978 67.3915 99.6276C68.121 99.8909 68.8716 100.093 69.5988 100.356C70.0435 100.517 70.4647 100.74 70.8271 101.061C70.9447 101.163 71.0906 101.231 71.2671 101.345C71.2412 101.184 71.2412 101.063 71.2036 100.956C71.053 100.541 70.9071 100.121 70.7259 99.7177C70.3588 98.8992 69.9705 98.0902 69.587 97.2812C69.3328 96.7426 69.0646 96.2088 68.8128 95.6679C68.3916 94.7592 67.9657 93.8529 67.5704 92.9324C67.0527 91.7295 66.5608 90.5172 66.0643 89.3072C65.9443 89.0131 65.8149 88.7141 65.7513 88.4033C65.6007 87.6655 65.2125 87.0391 64.8971 86.3772C64.043 84.5931 63.2335 82.7948 62.7558 80.8588C62.5299 79.9406 62.1981 79.0486 61.9957 78.1281C61.7722 77.1103 61.6239 76.0735 61.4733 75.0391C61.2969 73.8338 61.2027 72.6191 61.2663 71.402C61.3157 70.4222 61.3627 69.4424 61.471 68.4673C61.5651 67.6298 61.7345 66.7994 61.8899 65.969C61.9416 65.6938 62.0428 65.4257 62.144 65.1624C62.3416 64.6476 62.5417 64.1351 62.7629 63.6321C63.0876 62.8966 63.4335 62.1683 63.77 61.4376C64.0453 60.8397 64.3771 60.2727 64.5795 59.6392C64.6642 59.3759 64.836 59.141 64.9466 58.8824C65.2054 58.2869 65.4619 57.6938 65.6972 57.0888C66.0314 56.2347 66.3561 55.3758 66.662 54.5123C67.0997 53.2786 67.3256 51.9974 67.4644 50.6973C67.5327 50.0615 67.6362 49.4304 67.6739 48.7946C67.7115 48.1516 67.7092 47.5039 67.6339 46.8586C67.5844 46.4458 67.5939 46.0282 67.5562 45.6154C67.5162 45.1646 67.4715 44.7139 67.4009 44.2678C67.295 43.613 67.1821 42.9582 67.0385 42.3129C66.8197 41.3354 66.5561 40.3651 66.1302 39.4541C65.9655 39.1029 65.7255 38.785 65.5231 38.4505C65.429 38.2963 65.3254 38.1468 65.2501 37.9831C64.876 37.1765 64.2948 36.5098 63.8147 35.7767C63.6735 35.5632 63.5512 35.3354 63.4123 35.1195C62.7887 34.142 62.1087 33.1954 61.7322 32.078C61.4992 31.3805 61.2357 30.6924 61.0521 29.9807C60.9439 29.5631 60.8592 29.1266 60.8803 28.6758C60.9133 27.9783 60.878 27.2784 61.0168 26.5857C61.0333 26.5026 61.038 26.4125 61.0686 26.3342C61.3274 25.6628 61.5863 24.989 61.8593 24.3223C61.9063 24.206 62.0122 24.1135 62.1087 23.9854C62.2734 24.0945 62.4075 24.1823 62.5534 24.2796C62.5417 24.6497 62.3299 24.9463 62.2075 25.2737C62.0946 25.5702 61.9604 25.8597 61.8498 26.1586C61.4969 27.1147 61.5627 28.0946 61.7228 29.072C61.7839 29.4398 61.8993 29.8028 62.024 30.1563C62.1957 30.6426 62.3746 31.1266 62.5911 31.5916C62.8923 32.2346 63.2029 32.8751 63.5653 33.4849C63.9818 34.1895 64.4571 34.8609 64.9089 35.5418C65.1984 35.9784 65.5019 36.4054 65.7843 36.8467C65.949 37.1029 66.0855 37.3781 66.2408 37.6415C66.5044 38.0946 66.7609 38.5549 67.0385 38.9985C67.2833 39.3876 67.4291 39.817 67.5515 40.2512C67.7845 41.0768 68.0198 41.9025 68.1986 42.74C68.3633 43.5158 68.4975 44.2987 68.5398 45.0958C68.5916 46.0709 68.6763 47.046 68.7046 48.0211C68.7187 48.5454 68.6598 49.0721 68.6104 49.5965C68.561 50.135 68.4975 50.6736 68.4128 51.2074C68.2975 51.9334 68.1704 52.6594 68.0292 53.3806C67.8245 54.4292 67.4691 55.4352 67.102 56.4316C66.7985 57.2549 66.4761 58.0734 66.1279 58.88C65.7302 59.8006 65.3066 60.7092 64.876 61.6155C64.5512 62.3012 64.1959 62.9702 63.8547 63.6487C63.8171 63.7247 63.7982 63.8101 63.7629 63.9121C64.1489 64.0853 64.5277 64.2561 64.9231 64.434C64.956 64.3439 64.9866 64.2988 64.9866 64.2561C64.9913 63.8599 65.076 63.4827 65.1889 63.1031C65.3395 62.6001 65.4572 62.0853 65.5702 61.5728C65.7325 60.8231 66.1537 60.211 66.5585 59.587C67.0385 58.8492 67.568 58.1446 67.9633 57.3521C68.241 56.7946 68.5657 56.2584 68.8363 55.6961C69.1163 55.1173 69.3611 54.5194 69.6105 53.9263C69.8576 53.3426 70.1047 52.7566 70.3259 52.1611C70.4388 51.8527 70.4623 51.5111 70.5847 51.2074C70.8341 50.5953 70.8436 49.9381 70.9942 49.3094C71.2177 48.377 71.2718 47.4233 71.3518 46.4766C71.4624 45.1907 71.5024 43.8977 71.3071 42.6118C71.2271 42.0899 71.1259 41.5703 71.0295 41.0531C70.9589 40.6688 70.9 40.2821 70.7941 39.9048C70.6365 39.3402 70.4506 38.7826 70.267 38.2227C69.8694 37.0009 69.1211 35.9831 68.4151 34.9368C67.6551 33.8099 66.9044 32.6759 66.2055 31.511C65.8455 30.9083 65.6196 30.2251 65.316 29.5869C64.8666 28.6402 64.7348 27.613 64.5607 26.5999C64.4454 25.9309 64.5112 25.2476 64.6195 24.5762C64.8219 23.3045 65.3396 22.1562 65.9773 21.0554C66.0243 20.9747 66.0878 20.9012 66.1961 20.8419C66.1937 20.8893 66.2055 20.9462 66.1867 20.9842C65.6666 21.9688 65.316 23.0174 65.1042 24.1088C64.923 25.0341 64.8877 25.9664 65.1466 26.8917C65.2548 27.2808 65.3207 27.6865 65.4478 28.0685C65.6055 28.543 65.8008 29.008 65.9937 29.4706C66.1679 29.8882 66.3514 30.3034 66.5538 30.7067C66.6855 30.9677 66.855 31.2096 67.0173 31.454C67.3844 32.0044 67.7539 32.5501 68.1257 33.0982C68.6057 33.8075 69.0999 34.5122 69.5682 35.2287C69.9094 35.7506 70.2529 36.2749 70.54 36.8277C70.9283 37.5774 71.2695 38.3556 71.4577 39.186C71.7048 40.2868 71.959 41.39 72.1496 42.5027C72.3096 43.4327 72.3566 44.3794 72.2696 45.326C72.2366 45.6795 72.2625 46.0377 72.2413 46.3912C72.1943 47.148 72.1472 47.9049 72.0696 48.657C72.006 49.2785 71.9448 49.9073 71.7919 50.5099C71.6272 51.1528 71.5966 51.8385 71.2624 52.4387C71.1636 52.6143 71.166 52.842 71.1001 53.039C70.8248 53.8385 70.5659 54.6451 70.2506 55.4281C69.947 56.1825 69.5917 56.9156 69.2387 57.6463C69.0952 57.9453 68.8928 58.2157 68.7281 58.5028C68.6128 58.7021 68.5304 58.9227 68.4033 59.1125C68.2598 59.3284 68.0786 59.5206 67.9186 59.727C67.2691 60.5645 66.7091 61.4471 66.422 62.4886C66.2949 62.9488 66.1114 63.3925 65.9278 63.8338C65.8008 64.1351 65.629 64.4174 65.4784 64.7092C65.8525 64.9085 66.2102 65.0699 66.5373 65.2786C67.1515 65.6725 67.7492 66.0924 68.3516 66.5028C68.4198 66.5503 68.4998 66.5906 68.5516 66.6523C68.641 66.7614 68.7446 66.8753 68.7869 67.0034C69.0481 67.7959 69.2834 68.5978 69.547 69.3878C69.6434 69.6772 69.7941 69.9501 69.9164 70.23C70.06 70.5551 70.1988 70.8825 70.3423 71.2099C70.3941 71.3261 70.4576 71.4044 70.6082 71.421C71.0553 71.4732 71.5048 71.5207 71.9401 71.6227C72.6837 71.7959 73.4203 72.0023 74.1568 72.2087C74.9522 72.4341 75.7428 72.6761 76.5382 72.9086C76.5711 72.9181 76.6111 72.9086 76.6982 72.9086C76.637 72.4981 76.597 72.0877 76.5123 71.6891C76.4276 71.2858 76.3217 70.8848 76.1829 70.5005C76.0205 70.0521 75.8275 69.6132 75.6205 69.1838C75.1404 68.1944 74.6415 67.2122 74.1521 66.2276C73.9074 65.7341 73.6203 65.2549 73.432 64.7401C73.0885 63.8101 72.6249 62.9275 72.3943 61.9524C72.1519 60.9275 72.0601 59.9026 72.1825 58.8563C72.2955 57.8883 72.5214 56.9417 72.8249 56.0212C73.0085 55.466 73.2979 54.9464 73.5191 54.4031C73.7968 53.7222 74.0721 53.0389 74.3168 52.3462C74.538 51.7246 74.7427 51.0959 74.9122 50.4577C75.1357 49.6036 75.4157 48.7613 75.4816 47.8717C75.5381 47.1125 75.6722 46.3556 75.6651 45.5964C75.6487 43.8432 75.2369 42.1824 74.3144 40.6735C74.2321 40.5407 74.1544 40.4054 74.0721 40.2726C74.0909 40.2583 74.1121 40.2441 74.1309 40.2299C74.2015 40.3248 74.2744 40.4197 74.3403 40.5169C75.1451 41.734 75.6487 43.0697 75.917 44.5027C76.1123 45.5419 76.1005 46.5882 76.0228 47.6297C75.9616 48.4482 75.8487 49.2691 75.6793 50.0733C75.2698 52.014 74.6251 53.8788 73.7991 55.6843C73.6462 56.0164 73.5685 56.3818 73.4555 56.7329C73.1049 57.8029 72.912 58.9037 72.9096 60.0307C72.9096 60.517 72.9755 61.0105 73.0743 61.485C73.3426 62.7709 73.8956 63.9524 74.5004 65.1007C75.0533 66.1517 75.6816 67.16 76.277 68.1897C76.5405 68.6428 76.8158 69.0912 76.9547 69.6061C76.9876 69.7247 77.0394 69.8362 77.0888 69.9501C77.3665 70.5598 77.463 71.2122 77.5735 71.8647C77.6677 72.4175 77.6465 72.9631 77.6301 73.5136C77.6253 73.6796 77.6653 73.8172 77.79 73.9382C78.1618 74.2941 78.5054 74.6785 78.8913 75.0154C79.5079 75.5539 79.9761 76.1992 80.3809 76.9062C80.9362 77.8742 81.5316 78.8161 82.0987 79.7769C82.654 80.7141 83.1882 81.6654 83.7459 82.6002C83.9388 82.9252 84.1694 83.2313 84.393 83.5373C84.6942 83.9525 85.0165 84.3558 85.313 84.7758C85.9955 85.7461 86.6614 86.7283 87.3438 87.7011C87.8144 88.3701 88.3039 89.0273 88.7769 89.6963C89.2005 90.2966 89.6052 90.911 90.0335 91.5089C90.5323 92.2064 91.05 92.8873 91.5536 93.5825C92.0054 94.2064 92.4525 94.8375 92.8972 95.4662C93.702 96.6074 94.5068 97.7533 95.3092 98.8969C95.5116 99.1863 95.7022 99.4876 95.914 99.7699C96.2317 100.19 96.5588 100.603 96.8905 101.013C97.1612 101.348 97.3682 101.713 97.4835 102.128V102.275L97.5 102.252ZM48.3451 52.3984C48.2322 52.4102 48.1851 52.4102 48.1404 52.4221C47.6015 52.5787 47.058 52.7163 46.5261 52.899C45.792 53.1505 45.006 53.2098 44.2954 53.5656C43.8342 53.7958 43.3635 53.9832 43.0764 54.4506C42.9752 54.6167 42.8388 54.7614 42.7164 54.9132C41.9799 55.829 41.2339 56.7353 40.5115 57.6606C39.8173 58.5455 39.1302 59.4376 38.4713 60.3486C37.6689 61.4566 36.6829 62.3961 35.7652 63.3972C34.9746 64.2632 34.1298 65.0794 33.3509 65.9548C32.6261 66.7686 31.9649 67.6393 31.2613 68.4744C30.7718 69.0556 30.2588 69.6155 29.7553 70.1849C29.2117 70.7994 28.6634 71.4092 28.1246 72.026C27.7292 72.4768 27.348 72.937 26.9574 73.3926C26.4303 74.0047 25.8985 74.612 25.3784 75.2312C24.969 75.7176 24.5807 76.2229 24.1713 76.7117C23.6677 77.3119 23.1406 77.8932 22.6488 78.5005C21.7781 79.5777 20.9263 80.6714 20.065 81.7532C19.2014 82.8374 18.3331 83.9146 17.4719 84.9988C16.8412 85.7936 16.2153 86.5931 15.587 87.3926C15.1564 87.9407 14.7187 88.484 14.2928 89.0391C13.8551 89.6085 13.4597 90.2183 12.9891 90.7568C12.3396 91.5018 11.6431 92.2041 10.956 92.9134C10.5324 93.3523 10.0877 93.7723 9.65468 94.2041C9.43819 94.42 9.24054 94.6548 9.01935 94.8636C8.74638 95.1222 8.4546 95.3595 8.17457 95.611C7.3698 96.3393 6.56973 97.0724 5.76024 97.7984C5.18843 98.3108 4.5978 98.7996 4.03304 99.3215C3.56006 99.7604 3.12472 100.237 2.65644 100.681C2.33171 100.989 1.98109 101.274 1.64224 101.568C1.47516 101.713 1.40927 101.858 1.4728 102.109C1.64694 102.823 1.77401 103.547 1.91284 104.271C2.03521 104.902 2.28464 105.481 2.61879 106.055C2.71056 105.979 2.79528 105.91 2.87764 105.844C3.20237 105.587 3.51535 105.319 3.8542 105.084C4.18364 104.857 4.54131 104.672 4.87546 104.451C5.38374 104.114 5.88026 103.763 6.38619 103.419C7.11331 102.923 7.791 102.37 8.36987 101.699C8.70402 101.31 9.04052 100.918 9.40055 100.553C10.3724 99.5683 11.3654 98.6027 12.3302 97.6133C13.0315 96.8968 13.6903 96.1376 14.3939 95.4211C15.3069 94.4959 16.1376 93.5018 16.9659 92.503C17.7636 91.5421 18.5684 90.586 19.3967 89.6489C20.0627 88.8944 20.7686 88.1779 21.4487 87.4377C21.997 86.8446 22.5358 86.2396 23.0817 85.6441C23.8536 84.8043 24.6348 83.9762 25.3996 83.1293C26.1644 82.2823 26.9033 81.4116 27.6751 80.5694C28.0045 80.2087 28.3857 79.8956 28.7481 79.5658C28.8069 79.5136 28.8893 79.4899 28.9552 79.4566C29.127 79.6085 29.0823 79.7058 28.9458 79.8315C28.5575 80.1874 28.1598 80.5385 27.8092 80.93C26.8444 82.0071 25.9079 83.1127 24.9455 84.1921C24.2042 85.0273 23.4394 85.841 22.6911 86.669C22.2158 87.1957 21.7546 87.7366 21.2816 88.2633C20.5356 89.0913 19.7662 89.898 19.0367 90.7426C18.4931 91.3713 18.006 92.0522 17.4813 92.6975C16.7941 93.5421 16.107 94.3867 15.3964 95.21C14.9351 95.7462 14.4316 96.2491 13.9515 96.7711C13.5797 97.1768 13.2291 97.6015 12.8409 97.9929C11.9796 98.8589 11.0737 99.6845 10.2359 100.572C9.43822 101.416 8.70168 102.32 7.94397 103.203C7.86632 103.293 7.81452 103.412 7.77217 103.523C7.68745 103.749 7.54864 103.919 7.34862 104.052C7.00506 104.28 6.67328 104.527 6.32972 104.75C5.66613 105.182 4.99313 105.599 4.32954 106.033C4.19777 106.119 4.0142 106.15 3.92949 106.351C4.03773 106.373 4.11774 106.401 4.19775 106.406C5.09901 106.46 6.00026 106.517 6.90151 106.558C7.16742 106.569 7.43333 106.524 7.70159 106.522C8.15104 106.52 8.60048 106.522 9.04758 106.539C9.38408 106.553 9.71824 106.596 10.1136 106.631C10.0806 106.655 10.1136 106.638 10.1371 106.612C10.6336 106.007 11.1372 105.409 11.6219 104.797C12.4808 103.711 13.3303 102.622 14.1233 101.483C14.8622 100.42 15.7023 99.4283 16.4977 98.4034C17.0295 97.7177 17.5895 97.0487 18.086 96.3369C18.7237 95.4188 19.512 94.6691 20.4015 94.019C20.9333 93.6323 21.4769 93.2646 22.0134 92.885C22.1311 92.8019 22.2534 92.7094 22.3381 92.5931C22.9476 91.777 23.5477 90.9561 24.1501 90.1352C24.2725 89.9668 24.3925 89.796 24.5266 89.637C25.2772 88.7639 25.9996 87.8648 26.6374 86.9087C27.3456 85.8458 28.1481 84.8588 28.9034 83.8339C29.5717 82.9276 30.24 82.0189 30.8965 81.1032C31.7484 79.9122 32.5932 78.7117 33.4332 77.5112C33.8756 76.8801 34.3016 76.2372 34.7392 75.6013C35.184 74.956 35.6264 74.3107 36.0829 73.6725C36.4264 73.1933 36.7888 72.7306 37.1394 72.2585C37.7277 71.4614 38.3137 70.6594 38.9019 69.8623C39.4079 69.1743 39.9138 68.4839 40.4244 67.7982C41.0245 66.9939 41.6245 66.1897 42.2317 65.3925C42.8082 64.6333 43.3988 63.8836 43.9777 63.1268C44.5095 62.4269 45.046 61.7318 45.5543 61.0129C45.799 60.6665 45.9967 60.2845 46.185 59.9026C46.392 59.4779 46.5708 59.039 46.7497 58.6001C46.9121 58.2062 47.0462 57.8005 47.218 57.4115C47.3356 57.1457 47.4933 56.899 47.6392 56.6451C47.8015 56.3604 47.9663 56.0734 48.1357 55.7934C48.3334 55.4708 48.5357 55.1528 48.7428 54.8349C49.2182 54.1066 49.7005 53.3806 50.1735 52.6499C50.4983 52.1469 50.8018 51.6321 51.1242 51.1267C51.2654 50.9037 51.4066 50.6759 51.7148 50.6404C51.9313 50.6166 52.1431 50.555 52.3596 50.5194C52.7432 50.4553 53.1267 50.3984 53.5315 50.3343C53.5079 49.9191 53.4844 49.5324 53.4609 49.1243C52.8514 49.1694 52.2702 49.2216 51.6889 49.2572C51.3901 49.2762 51.1618 49.3948 50.9853 49.6439C50.59 50.1991 50.1806 50.7424 49.8912 51.3663C49.717 51.7436 49.4676 52.0852 49.2911 52.4601C49.0793 52.9108 48.7758 53.2904 48.451 53.6534C48.1028 54.0449 47.7121 54.3984 47.345 54.7756C46.6038 55.5396 45.8814 56.3201 45.1237 57.0674C44.4177 57.7626 43.7071 58.453 43.0717 59.2169C42.7587 59.5941 42.4458 59.9714 42.114 60.3344C40.9657 61.5942 39.8032 62.8397 38.6619 64.1042C37.8571 64.9963 37.0853 65.9168 36.29 66.8136C35.7464 67.4281 35.1863 68.0284 34.631 68.6333C34.5486 68.7235 34.4498 68.797 34.3604 68.8801C34.2474 68.9845 34.1039 69.0106 33.9909 68.9299C33.9203 68.8801 33.9039 68.752 33.8686 68.6547C33.7744 68.3795 34.0098 68.2561 34.1462 68.1043C34.7087 67.4732 35.2922 66.8611 35.857 66.23C36.7794 65.198 37.683 64.147 38.6102 63.1197C39.2243 62.4388 39.8691 61.7887 40.4927 61.1149C41.0833 60.4767 41.6693 59.8361 42.2434 59.1837C42.6882 58.6807 43.1 58.1469 43.5471 57.6463C43.8224 57.3379 44.1471 57.0746 44.4318 56.7733C44.8272 56.3557 45.2084 55.9263 45.592 55.4992C46.4014 54.6001 47.2085 53.7009 48.0157 52.7993C48.1192 52.6854 48.211 52.5621 48.3475 52.3936L48.3451 52.3984ZM62.784 66.695C62.7346 66.8184 62.697 66.8824 62.6852 66.9512C62.6005 67.4566 62.5064 67.9643 62.4428 68.472C62.3605 69.1055 62.2758 69.7413 62.2428 70.3795C62.1981 71.236 62.144 72.0996 62.1934 72.956C62.2569 74.0545 62.4052 75.1506 62.5487 76.2443C62.6334 76.8872 62.7534 77.5302 62.9088 78.1589C63.1582 79.172 63.4735 80.1708 63.7135 81.1862C63.9465 82.1684 64.2689 83.1198 64.6124 84.0617C64.9348 84.949 65.3042 85.8221 65.6596 86.6975C65.7513 86.9229 65.869 87.1388 65.982 87.357C66.0643 87.5207 66.1702 87.6726 66.2432 87.8387C66.4244 88.242 66.5867 88.6548 66.7679 89.0558C67.1044 89.7912 67.4503 90.5219 67.7892 91.2551C68.1327 92 68.4598 92.7545 68.8175 93.4923C69.3634 94.6145 69.9282 95.7248 70.4859 96.8399C70.6671 97.2005 70.8553 97.5588 71.0271 97.9241C71.4554 98.8423 72.0742 99.6679 72.279 100.698C72.4649 101.62 72.7261 102.527 72.9614 103.438C73.039 103.744 73.1285 104.048 73.2226 104.351C73.2838 104.55 73.3685 104.74 73.4273 104.94C73.5756 105.454 73.6979 105.979 73.8627 106.489C74.1262 107.303 74.4203 108.107 74.6957 108.918C74.9333 109.616 75.1592 110.316 75.3946 111.011C75.484 111.277 75.5946 111.533 75.6957 111.794C75.724 111.794 75.7546 111.794 75.7828 111.794C76.0228 111.049 76.2676 110.304 76.5005 109.556C76.5805 109.298 76.6488 109.046 76.8488 108.838C77.0841 108.591 77.2724 108.299 77.4983 108.043C77.6112 107.915 77.6348 107.808 77.5665 107.647C77.4536 107.376 77.3524 107.101 77.2747 106.819C77.0112 105.846 76.877 104.849 76.7994 103.846C76.7806 103.609 76.79 103.348 76.5876 103.158C76.5476 103.12 76.5382 103.049 76.5193 102.989C76.3523 102.453 76.197 101.915 76.0205 101.381C75.8016 100.721 75.5663 100.069 75.3428 99.4117C75.1027 98.7047 74.8768 97.9906 74.6345 97.2836C74.4556 96.7616 74.2603 96.2468 74.0744 95.7248C73.7003 94.6738 73.3308 93.6204 72.9496 92.5694C72.4931 91.312 72.0296 90.0569 71.5707 88.7995C71.5354 88.7023 71.5236 88.5955 71.5024 88.4982C71.9378 88.3582 72.0084 88.4009 72.159 88.7948C72.4955 89.6655 72.839 90.5314 73.1802 91.3998C73.2885 91.6726 73.3944 91.9478 73.5026 92.223C73.7521 92.8636 73.9968 93.5042 74.2486 94.1424C74.5686 94.9514 74.9216 95.7486 75.2157 96.5671C75.7405 98.0285 76.2323 99.5042 76.7382 100.973C76.8111 101.182 76.8935 101.386 76.9806 101.587C77.2041 102.1 77.4371 102.61 77.6559 103.125C77.7077 103.246 77.7312 103.386 77.7383 103.518C77.7736 104.169 77.7948 104.819 77.8324 105.469C77.8724 106.131 78.0677 106.762 78.1971 107.421C78.4607 107.314 78.6725 107.139 78.9478 107.262C78.9808 107.276 79.0372 107.231 79.0843 107.22C79.8396 107.039 80.5903 106.828 81.3527 106.69C82.094 106.558 82.8446 106.451 83.5976 106.655C83.7176 106.688 83.8541 106.66 84.0141 106.66C83.9529 106.484 83.9106 106.344 83.8588 106.211C83.5364 105.39 83.2094 104.572 82.8893 103.751C82.6587 103.155 82.4422 102.555 82.2116 101.96C81.781 100.849 81.3456 99.7391 80.908 98.6335C80.5597 97.7533 80.2091 96.8755 79.8514 96.0024C79.5337 95.2313 79.209 94.465 78.8796 93.6987C78.7101 93.3049 78.5172 92.9229 78.3477 92.5291C78.1783 92.1353 78.0066 91.739 77.8654 91.3333C77.6771 90.79 77.5124 90.2373 77.3429 89.6868C77.1006 88.8992 76.8347 88.1162 76.63 87.3191C76.5382 86.9585 76.3876 86.6667 76.1405 86.4009C75.8746 86.1139 75.6322 85.8078 75.3828 85.5065C75.3451 85.4614 75.3004 85.4092 75.2863 85.3523C75.1639 84.828 74.9569 84.3369 74.771 83.8363C74.2862 82.5243 73.6532 81.2787 73.1049 79.9952C72.7096 79.0699 72.3284 78.1399 71.9495 77.2075C71.686 76.5598 71.4413 75.9027 71.173 75.2573C70.98 74.7947 70.7518 74.3487 70.5612 73.8837C70.3376 73.338 70.1305 72.7852 69.9282 72.2324C69.5964 71.3356 69.1163 70.5076 68.721 69.6416C68.4881 69.1292 68.3233 68.5859 68.1139 68.0592C68.0221 67.8243 67.9492 67.5491 67.7798 67.3878C67.5021 67.1268 67.1491 66.9441 66.8291 66.7259C66.6573 66.6096 66.4926 66.4839 66.3208 66.3676C66.142 66.2442 65.9631 66.1185 65.7772 66.007C65.5278 65.8575 65.269 65.727 65.0219 65.5776C64.5136 65.2715 64.01 64.956 63.4712 64.6238C63.33 64.9773 63.2123 65.3119 63.0617 65.6298C62.9817 65.8006 63.017 65.9263 63.0923 66.0805C63.3582 66.6333 63.6194 67.1885 63.8712 67.7484C64.0924 68.2419 64.283 68.7472 64.5113 69.2383C64.996 70.2846 65.5019 71.3237 65.9914 72.3676C66.3796 73.2004 66.7491 74.0426 67.1421 74.8754C67.5186 75.6749 67.921 76.4626 68.3022 77.2621C68.4387 77.5492 68.5516 77.8505 68.6669 78.147C68.7681 78.408 68.5163 78.6476 68.2551 78.5385C68.0151 78.4365 67.8951 78.2657 67.8009 78.0474C67.6009 77.5848 67.3962 77.1245 67.1891 76.6642C67.1585 76.5978 67.0997 76.5456 67.0668 76.5029C66.8832 76.8611 66.7185 77.2028 66.535 77.5349C66.4667 77.6583 66.3349 77.7366 66.1914 77.682C66.0431 77.6251 65.9066 77.5254 65.9278 77.3309C65.9443 77.1743 65.9631 77.013 66.0055 76.8611C66.1279 76.4127 66.3679 76.0355 66.7514 75.7271C66.6267 75.5159 66.5114 75.3238 66.3679 75.0841C66.109 75.4495 65.8925 75.7579 65.6713 76.064C65.4831 76.3202 65.2925 76.5765 65.0948 76.8256C65.0101 76.9323 64.8925 77.0272 64.7466 76.9465C64.6054 76.8683 64.6077 76.7212 64.6312 76.5859C64.6524 76.4649 64.6783 76.3416 64.7277 76.2301C65.0689 75.4851 65.4854 74.7876 65.9608 74.1185C65.7961 73.7461 65.6337 73.3641 65.4596 72.9869C64.9536 71.8955 64.4383 70.8113 63.9371 69.7199C63.537 68.8492 63.2029 67.9524 62.937 67.0295C62.9087 66.9299 62.8476 66.8397 62.7817 66.6998L62.784 66.695ZM48.6205 69.0011C48.5428 69.0438 48.5075 69.0533 48.484 69.077C48.2298 69.338 47.978 69.6061 47.7215 69.8647C47.5427 70.045 47.3615 70.2276 47.1662 70.3913C46.4061 71.0224 45.6108 71.6108 44.8884 72.2799C43.9706 73.1268 43.0129 73.9145 41.9893 74.6263C41.8504 74.7235 41.7069 74.8279 41.5986 74.956C41.0245 75.6512 40.4597 76.3558 39.8926 77.0581C39.7703 77.2099 39.6573 77.3712 39.5396 77.5278C39.0102 78.2348 38.4784 78.9371 37.956 79.6488C37.6242 80.102 37.3112 80.5717 36.9818 81.0272C36.4923 81.7034 35.9982 82.3724 35.504 83.0439C34.8946 83.8719 34.2992 84.7093 33.6733 85.5207C32.9485 86.4602 32.1908 87.3784 31.4519 88.3084C30.9577 88.93 30.4589 89.5469 29.9812 90.1827C29.5105 90.809 29.0658 91.4543 28.6093 92.0925C28.4328 92.3417 28.2398 92.5789 28.0775 92.8375C27.3904 93.9241 26.7268 95.0249 26.0232 96.0997C25.3149 97.1815 24.5642 98.2373 23.8371 99.3073C23.4229 99.9146 23.0276 100.534 22.6017 101.134C22.0793 101.872 21.5428 102.6 20.9969 103.324C20.7686 103.628 20.498 103.896 20.265 104.195C19.7426 104.871 19.2226 105.549 18.7167 106.237C18.3331 106.759 17.9754 107.298 17.6013 107.827C17.4765 108.005 17.3495 108.185 17.2107 108.351C16.8883 108.733 16.5518 109.101 16.2341 109.485C15.7446 110.081 15.2646 110.683 14.7846 111.286C14.601 111.516 14.4151 111.744 14.2504 111.986C13.8856 112.52 13.5374 113.068 13.1703 113.599C12.8997 113.993 12.6056 114.37 12.3255 114.757C12.2573 114.852 12.2008 114.959 12.1232 115.087C12.2455 115.103 12.3302 115.101 12.4055 115.129C12.7067 115.241 12.9491 115.113 13.1821 114.947C13.5845 114.657 13.9868 114.368 14.3822 114.071C14.5657 113.931 14.7563 113.789 14.9022 113.613C15.0975 113.381 15.2505 113.11 15.4293 112.864C16.0529 112 16.6812 111.141 17.3024 110.275C17.7307 109.68 18.1378 109.068 18.5755 108.479C19.0579 107.829 19.5638 107.198 20.058 106.558C20.5145 105.965 20.9686 105.369 21.4275 104.781C21.5546 104.619 21.691 104.46 21.891 104.401C22.0675 104.489 22.1076 104.605 22.0323 104.771C21.9287 104.994 21.8487 105.229 21.7287 105.44C21.3498 106.102 20.971 106.762 20.5662 107.407C20.2486 107.915 19.9003 108.406 19.5544 108.895C19.2649 109.303 18.9214 109.68 18.6625 110.104C18.0813 111.058 17.4318 111.962 16.7753 112.859C16.7377 112.911 16.7306 112.987 16.7047 113.056C16.7612 113.08 16.7918 113.101 16.8247 113.103C17.3566 113.167 17.886 113.253 18.4202 113.279C18.8249 113.298 19.2226 113.381 19.6462 113.293C20.3121 113.158 21.0016 113.129 21.6816 113.068C21.8016 113.056 21.8746 113.03 21.9499 112.925C22.5005 112.164 23.07 111.417 23.6183 110.655C24.3925 109.58 25.1502 108.494 25.9267 107.421C26.4209 106.738 26.9409 106.076 27.4398 105.397C27.9857 104.66 28.5105 103.905 29.0658 103.174C29.8306 102.169 30.633 101.196 31.3837 100.18C32.3132 98.923 33.2144 97.6442 34.1086 96.3607C34.5816 95.6821 35.0169 94.9799 35.4687 94.2871C35.7158 93.9099 35.9511 93.5231 36.2123 93.153C36.5488 92.6738 36.9206 92.2183 37.25 91.7343C37.8218 90.8944 38.3772 90.0474 38.9278 89.1934C39.3655 88.5172 39.782 87.8244 40.2127 87.1459C40.408 86.8375 40.6315 86.5457 40.8245 86.2349C41.1469 85.7177 41.4786 85.2052 41.8787 84.7449C42.3776 84.1732 42.8647 83.5895 43.4059 83.0605C44.333 82.1542 45.2413 81.2289 46.0814 80.2396C46.865 79.3143 47.6133 78.3606 48.3734 77.4163C48.8275 76.8517 49.277 76.2846 49.8135 75.7959C49.8723 75.7413 49.9217 75.6749 49.9664 75.6227C49.7994 75.3546 49.6464 75.1102 49.4817 74.8516C49.4205 74.9062 49.3852 74.9347 49.3499 74.9679C48.7263 75.5539 48.1169 76.1565 47.4745 76.7235C46.8321 77.2882 46.152 77.8125 45.4955 78.3629C44.7283 79.0082 43.9659 79.6559 43.2106 80.3155C42.9635 80.5314 42.7093 80.7615 42.5258 81.0296C42.0058 81.7888 41.4339 82.5077 40.8409 83.2099C40.2503 83.9122 39.6808 84.6358 39.1043 85.3547C38.5372 86.064 37.9772 86.7782 37.4101 87.4852C37.3442 87.5682 37.25 87.6299 37.1747 87.6987C36.9488 87.6109 36.93 87.4709 37.0406 87.312C37.1865 87.1008 37.3465 86.8992 37.5018 86.6927C38.4713 85.4116 39.4455 84.1328 40.4127 82.8469C40.8551 82.2609 41.2786 81.6607 41.7187 81.0699C41.9069 80.8161 42.1046 80.567 42.3187 80.3345C42.4834 80.1565 42.6834 80.0094 42.867 79.8505C43.6435 79.1743 44.4107 78.4887 45.199 77.8267C46.465 76.7639 47.771 75.7461 48.9617 74.593C49.0393 74.5171 49.117 74.4436 49.2111 74.3534C49.117 74.109 49.0275 73.8742 48.924 73.6037C48.5804 73.8979 48.2769 74.147 47.9874 74.408C47.3803 74.956 46.785 75.5159 46.1755 76.0616C45.8296 76.37 45.4602 76.6547 45.1119 76.9584C44.6789 77.3356 44.2554 77.7247 43.8271 78.1067C43.4741 78.4246 43.0953 78.7164 42.7705 79.0604C42.2175 79.6465 41.6975 80.2657 41.1633 80.8707C40.9774 81.0794 40.7821 81.2811 40.6056 81.497C40.0573 82.1708 39.5161 82.8517 38.9726 83.5255C38.4972 84.1139 38.0148 84.6927 37.5465 85.2859C37.0477 85.9169 36.5653 86.5599 36.0711 87.1957C35.6664 87.7153 35.2499 88.223 34.8498 88.745C34.1651 89.637 33.4921 90.5386 32.812 91.433C32.3979 91.9787 31.9767 92.5172 31.5672 93.0653C31.2166 93.535 30.8966 94.0285 30.5295 94.4864C29.9482 95.2124 29.3435 95.917 28.7434 96.6264C28.7128 96.662 28.6281 96.6857 28.5905 96.6691C28.5505 96.6501 28.5081 96.5694 28.5152 96.5244C28.5316 96.4295 28.5693 96.3346 28.6187 96.2515C28.9011 95.777 29.2093 95.3144 29.4682 94.828C30.0094 93.8173 30.6754 92.8921 31.3436 91.9715C32.059 90.9822 32.8191 90.0237 33.5674 89.0581C34.3322 88.0735 35.1063 87.0984 35.8805 86.121C36.6006 85.2123 37.3112 84.2965 38.0454 83.3997C38.9608 82.2847 39.8926 81.1814 40.8221 80.0782C41.2316 79.5919 41.6504 79.1103 42.0716 78.631C42.2175 78.465 42.3587 78.2894 42.5329 78.1613C43.2929 77.6108 44.06 77.0676 44.7589 76.4341C45.7284 75.5563 46.7168 74.7022 47.7004 73.8386C47.9945 73.58 48.2934 73.3285 48.5946 73.0794C48.6958 72.9963 48.7687 72.9228 48.7287 72.7733C48.6063 72.3131 48.5428 71.841 48.5404 71.3641C48.5381 70.7259 48.5593 70.0877 48.5734 69.4495C48.5757 69.3095 48.5922 69.1719 48.604 68.994L48.6205 69.0011ZM51.2372 77.0035C51.1971 77.0889 51.1666 77.1411 51.1477 77.198C51.016 77.58 50.8818 77.9644 50.7571 78.3487C50.4535 79.2953 50.1641 80.2491 49.8464 81.1886C49.7523 81.4661 49.75 81.6939 49.8817 81.9573C50.0465 82.2894 49.9288 82.5978 49.6346 82.8114C49.5499 82.873 49.4723 82.9632 49.4229 83.0557C49.2511 83.3807 49.0911 83.7129 48.9287 84.0427C48.7946 84.3179 48.6181 84.5812 48.5404 84.8731C48.178 86.2254 47.8486 87.5872 47.4956 88.9419C47.3333 89.5682 47.1403 90.1898 46.9662 90.8138C46.6862 91.8197 46.4108 92.8256 46.1285 93.8316C45.9755 94.3749 45.8155 94.9158 45.6602 95.4567C45.6108 95.6323 45.5661 95.8102 45.5119 95.9834C45.3613 96.4745 45.1872 96.9609 45.0554 97.4567C44.9189 97.9668 44.8389 98.4911 44.7048 98.9989C44.486 99.8292 44.2365 100.65 44.013 101.478C43.8553 102.064 43.7212 102.66 43.5683 103.248C43.453 103.687 43.3165 104.116 43.2059 104.555C43.0294 105.257 42.8717 105.965 42.6976 106.669C42.6082 107.025 42.4952 107.376 42.3964 107.73C42.1658 108.543 41.9446 109.357 41.7046 110.166C41.5681 110.634 41.3963 111.091 41.2527 111.556C41.1657 111.839 41.1116 112.128 41.0268 112.411C40.8833 112.887 40.7327 113.364 40.5727 113.834C40.3397 114.515 40.0997 115.196 39.855 115.872C39.7161 116.254 39.5656 116.631 39.3891 117.094C39.6456 116.989 39.8197 116.935 39.9774 116.85C40.328 116.655 40.6597 116.427 41.0151 116.242C41.7987 115.834 42.6364 115.571 43.5024 115.424C43.8036 115.374 43.9542 115.25 44.0248 114.961C44.1565 114.413 44.2977 113.87 44.4554 113.329C44.6342 112.709 44.799 112.088 44.9496 111.459C45.1566 110.603 45.4578 109.77 45.7143 108.925C45.759 108.778 45.7896 108.629 45.839 108.432C45.7237 108.475 45.6672 108.494 45.6131 108.515C45.2037 108.669 44.8013 108.847 44.3824 108.973C43.9612 109.099 43.8365 109.013 43.653 108.541C43.7565 108.427 43.8553 108.259 43.9989 108.173C44.1942 108.057 44.4342 108.014 44.6436 107.919C45.1096 107.711 45.5684 107.49 46.0296 107.269C46.1449 107.215 46.1967 107.122 46.2344 106.987C46.3991 106.37 46.5685 105.756 46.7709 105.151C47.0791 104.23 47.4486 103.331 47.7357 102.406C48.2345 100.797 48.6863 99.1744 49.1664 97.5611C49.6041 96.0878 50.0512 94.6169 50.5006 93.1483C50.7053 92.4793 50.9383 91.8197 51.136 91.1483C51.4301 90.159 51.7054 89.1649 51.9925 88.1732C52.0019 88.1447 52.0419 88.1257 52.0725 88.0973C52.3102 88.1898 52.3267 88.3654 52.2749 88.5789C52.0231 89.618 51.7854 90.6596 51.5195 91.694C51.3454 92.3725 51.103 93.0344 50.9501 93.7177C50.7665 94.5338 50.55 95.3381 50.2818 96.1305C50.1806 96.4318 50.1029 96.7402 50.0111 97.0677C50.51 97.3666 50.7783 97.8577 51.1007 98.3014C51.1924 98.4271 51.2536 98.5861 51.2866 98.7379C51.3054 98.8257 51.256 98.9562 51.1901 99.0202C51.1571 99.0534 51.0018 99.006 50.9383 98.9491C50.6442 98.6928 50.3547 98.4247 50.0794 98.1495C49.9711 98.0427 49.9005 97.898 49.7758 97.7177C49.6205 98.2112 49.4864 98.643 49.3523 99.0748C49.0346 100.081 48.7169 101.084 48.4016 102.09C48.2416 102.605 48.0651 103.118 47.938 103.642C47.6368 104.871 47.3568 106.104 47.0721 107.338C46.9591 107.825 46.8603 108.316 46.7403 108.802C46.6532 109.158 46.5356 109.507 46.4438 109.863C46.3379 110.278 46.2485 110.698 46.1426 111.113C45.9732 111.777 45.7967 112.439 45.6273 113.103C45.5543 113.386 45.5002 113.675 45.4319 113.96C45.3284 114.396 45.2178 114.833 45.1143 115.269C45.1072 115.3 45.1237 115.338 45.1237 115.341C45.3166 115.49 45.5167 115.597 45.6461 115.761C45.9261 116.116 46.1826 116.491 46.4226 116.876C46.7073 117.331 46.9615 117.808 47.2297 118.273C47.3309 118.449 47.4321 118.627 47.5662 118.859C47.9428 118.161 48.3898 117.58 48.3639 116.788C48.3428 116.093 48.491 115.424 48.8134 114.797C48.8816 114.664 48.9005 114.487 48.8887 114.332C48.8534 113.891 48.7899 113.452 48.7405 113.013C48.7263 112.883 48.724 112.75 48.7146 112.593C48.8652 112.572 48.9852 112.558 49.1028 112.541C49.3876 112.503 49.4793 112.408 49.5217 112.126C49.5641 111.846 49.6088 111.568 49.6699 111.293C49.8935 110.299 50.2559 109.343 50.39 108.325C50.4865 107.592 50.6983 106.89 50.9171 106.183C51.1148 105.552 51.2371 104.897 51.3736 104.249C51.6325 103.008 51.9902 101.798 52.3784 100.596C52.6843 99.6513 53.0091 98.7118 53.2985 97.7628C53.5126 97.0629 53.6538 96.3393 53.8821 95.6442C54.1362 94.866 54.4421 94.102 54.7433 93.3381C55.0304 92.6097 55.3481 91.8956 55.6375 91.1696C55.7928 90.7829 55.9364 90.3915 56.0564 89.9929C56.1764 89.5848 56.1599 89.5824 56.5741 89.6678C56.5929 89.6726 56.6141 89.6536 56.6565 89.6394C56.6494 89.5374 56.6376 89.4282 56.6353 89.3215C56.6164 88.5741 56.5458 87.8221 56.5906 87.0771C56.6659 85.8268 56.72 84.5789 56.6635 83.3262C56.64 82.8256 56.52 82.3463 56.3199 81.9003C56.0093 81.2123 55.4893 80.669 54.9716 80.1399C54.5221 79.6797 54.028 79.2621 53.5479 78.8327C53.3573 78.6619 53.1549 78.5053 52.9526 78.3487C52.7008 78.1565 52.4372 77.981 52.1902 77.784C51.8795 77.5349 51.5783 77.274 51.2536 77.0011L51.2372 77.0035ZM95.8128 106.451C95.9163 105.844 96.0364 105.305 96.0975 104.757C96.1799 104.026 96.2717 103.303 96.5587 102.615C96.7141 102.242 96.6788 101.891 96.394 101.556C96.0293 101.129 95.7022 100.667 95.3751 100.209C94.8292 99.4402 94.295 98.6596 93.7561 97.8862C92.9843 96.7806 92.2242 95.6703 91.4383 94.5765C90.617 93.433 89.7252 92.344 88.9581 91.1554C88.3627 90.2301 87.6803 89.3618 87.0379 88.4674C86.5085 87.7319 85.9884 86.9917 85.4519 86.2633C84.9954 85.6441 84.5247 85.0344 84.0541 84.427C83.8306 84.1376 83.5859 83.8647 83.3552 83.58C83.287 83.4946 83.2305 83.3997 83.1764 83.3025C82.9105 82.8375 82.6493 82.3701 82.3787 81.9051C82.1575 81.5231 81.9222 81.1506 81.701 80.7663C81.3833 80.2135 81.0962 79.6441 80.755 79.1079C80.2938 78.3867 79.762 77.7129 79.3172 76.9821C78.9572 76.389 78.4489 75.9715 77.943 75.5349C77.6018 75.2407 77.2818 74.9228 76.9664 74.6002C76.8064 74.4365 76.6558 74.2538 76.5452 74.0545C76.4064 73.8006 76.1899 73.701 75.9381 73.6346C75.2675 73.4566 74.5921 73.2929 73.9215 73.1055C72.9991 72.8445 72.0837 72.5669 71.1612 72.2988C71.053 72.268 70.9377 72.2633 70.7894 72.2395C70.8153 72.351 70.8224 72.4104 70.8436 72.4649C71.02 72.9109 71.1942 73.357 71.3777 73.7983C71.8201 74.8635 72.2649 75.9288 72.7096 76.994C72.8108 77.2384 72.9285 77.4448 73.1567 77.6298C73.6885 78.0545 74.1591 78.5622 74.6627 79.0225C75.058 79.3831 75.4581 79.7366 75.8746 80.0735C76.1311 80.2823 76.3829 80.4887 76.5782 80.7639C76.8535 81.153 77.1288 81.5444 77.43 81.9145C78.1336 82.7805 78.936 83.5516 79.7596 84.2989C80.0349 84.548 80.3832 84.7426 80.4962 85.1411C80.5103 85.1933 80.5762 85.2313 80.6162 85.2764C81.0633 85.7627 81.5057 86.2515 81.9575 86.7307C82.8564 87.6845 83.7529 88.6429 84.6683 89.5824C84.9836 89.9051 85.3436 90.1851 85.6966 90.4626C85.866 90.5955 86.1037 90.6501 86.2543 90.7972C86.4873 91.0249 86.6991 91.2883 86.8779 91.5635C87.4944 92.522 88.0921 93.4899 88.6992 94.4556C89.0569 95.0249 89.4217 95.592 89.7746 96.1661C90.1158 96.7189 90.4594 97.2693 90.7794 97.834C91.4195 98.9633 92.0431 100.102 92.6784 101.236C92.8808 101.599 93.0831 101.964 93.3114 102.311C94.0244 103.386 94.688 104.486 95.2857 105.63C95.4245 105.893 95.5093 106.202 95.8081 106.446L95.8128 106.451ZM32.9932 106.358C33.2379 106.01 33.4662 105.663 33.7133 105.331C34.1651 104.721 34.6663 104.147 35.0734 103.509C35.5534 102.757 36.1135 102.055 36.49 101.236C36.7582 100.648 37.0477 100.069 37.3442 99.4947C37.5607 99.0724 37.7913 98.6549 38.0407 98.2515C38.2548 97.9099 38.5066 97.592 38.7396 97.2622C38.8455 97.1127 38.9467 96.9609 39.0502 96.8114C39.3561 96.3701 39.6714 95.936 39.9679 95.49C40.5092 94.6738 41.0174 93.8363 41.5798 93.0368C41.9446 92.5196 42.3846 92.0593 42.7823 91.5682C43.1894 91.0676 43.5965 90.5647 43.9918 90.0546C44.5142 89.3784 45.0201 88.6904 45.5402 88.0119C45.8884 87.5587 46.2555 87.1174 46.6085 86.6667C46.8791 86.3179 47.1168 85.9407 47.4133 85.618C47.5874 85.4282 47.6886 85.2313 47.7663 84.994C47.8886 84.6145 47.9733 84.2111 48.3028 83.9312C48.3828 83.8624 48.4369 83.7556 48.4863 83.6583C48.7028 83.2455 48.9052 82.8256 49.1334 82.4199C49.2205 82.2657 49.204 82.1494 49.1123 82.0166C49.0487 81.9264 48.9805 81.8363 48.9405 81.7366C48.9075 81.6559 48.8816 81.5468 48.9075 81.4685C49.077 80.9561 49.2676 80.4484 49.4393 79.9383C49.7311 79.0676 50.1335 78.2348 50.2535 77.3048C50.2959 76.9774 50.3477 76.6239 50.6253 76.3629C50.543 76.3036 50.4888 76.2656 50.4041 76.2063C49.87 76.873 49.3476 77.5207 48.8322 78.1731C48.4299 78.6832 48.0533 79.2123 47.6392 79.7129C47.1709 80.2799 46.6838 80.8279 46.192 81.3736C45.6508 81.9739 45.1095 82.5765 44.5401 83.1482C43.78 83.9098 43.027 84.669 42.4764 85.6133C42.0646 86.3203 41.5751 86.9846 41.1304 87.6726C40.7256 88.2966 40.3374 88.9324 39.9373 89.5611C39.5444 90.1779 39.1584 90.7995 38.7466 91.4045C38.3066 92.0498 37.8336 92.6738 37.3889 93.3167C36.7983 94.1732 36.2194 95.0368 35.6381 95.9004C35.2828 96.4295 34.944 96.9704 34.5722 97.49C33.9203 98.4057 33.2497 99.3097 32.5838 100.214C32.4096 100.448 32.2167 100.667 32.0355 100.897C31.739 101.272 31.539 101.677 31.5931 102.178C31.6049 102.287 31.586 102.399 31.5719 102.508C31.5107 102.966 31.4354 103.421 31.3813 103.881C31.3248 104.38 31.3131 104.885 31.2283 105.379C31.1766 105.682 31.3154 105.815 31.5389 105.919C32.0002 106.138 32.4849 106.287 32.9861 106.363L32.9932 106.358ZM95.3916 107.201C95.0692 106.705 94.7656 106.275 94.5021 105.822C93.9985 104.954 93.4832 104.095 92.9161 103.267C92.3984 102.513 91.9325 101.72 91.4689 100.928C90.9818 100.093 90.5276 99.2385 90.0546 98.3963C89.8335 98.0024 89.6146 97.6038 89.3746 97.2195C89.1299 96.8257 88.8475 96.4532 88.6027 96.057C88.198 95.4069 87.8121 94.7426 87.4144 94.0878C87.0967 93.5635 86.7626 93.0487 86.4496 92.5243C86.0472 91.8506 85.626 91.1957 85.0471 90.6596C84.9295 90.5504 84.8024 90.4555 84.6918 90.3393C83.7435 89.3452 82.7905 88.3582 81.8563 87.3523C81.0892 86.5291 80.2867 85.7414 79.4796 84.9608C79.1455 84.6382 78.816 84.3084 78.4913 83.9762C77.9501 83.4258 77.4065 82.8802 76.8794 82.3179C76.4017 81.8102 75.9805 81.2455 75.4722 80.771C74.9357 80.2704 74.4321 79.7413 73.9215 79.2147C73.8297 79.1198 73.7285 79.0367 73.5897 78.911C73.5991 79.0225 73.5897 79.0747 73.6085 79.115C73.9238 79.8196 74.2344 80.5243 74.5592 81.2265C74.811 81.7722 75.1145 82.2965 75.331 82.8541C75.684 83.7698 76.1782 84.5884 76.8041 85.3333C76.9523 85.5089 77.0653 85.7295 77.2418 85.8648C77.4489 86.0213 77.5971 86.204 77.6677 86.4436C77.7242 86.6263 77.7289 86.8256 77.7712 87.013C77.823 87.2384 77.8324 87.5065 77.9642 87.6726C78.1712 87.9336 78.4748 88.1186 78.7219 88.3487C78.9996 88.605 79.2631 88.8755 79.529 89.1435C79.7973 89.4116 80.0561 89.6892 80.3267 89.9526C80.7291 90.3464 81.1409 90.7284 81.541 91.1222C81.8892 91.4638 82.2163 91.8292 82.5763 92.1613C83.0611 92.6074 83.567 93.032 84.0635 93.4638C84.5436 93.879 85.0424 94.2658 85.5907 94.5884C85.6872 94.6453 85.7649 94.7569 85.8237 94.8565C85.9178 95.0131 85.9719 95.1934 86.0708 95.3429C86.3084 95.6964 86.5673 96.0333 86.8073 96.3844C87.0497 96.7355 87.2779 97.0985 87.5203 97.4496C87.7156 97.732 87.9298 98.0001 88.1227 98.2824C88.3651 98.6359 88.5863 99.0036 88.8287 99.3595C89.1746 99.8648 89.5369 100.356 89.8758 100.866C90.2782 101.466 90.6571 102.081 91.0571 102.683C91.3206 103.08 91.6101 103.462 91.8736 103.858C92.2195 104.375 92.5466 104.906 92.8996 105.419C93.2031 105.86 93.5303 106.287 93.8573 106.712C93.9515 106.835 94.0621 107.001 94.1891 107.03C94.5656 107.118 94.9563 107.144 95.3845 107.201H95.3916ZM33.9509 106.593C34.1698 106.709 34.3604 106.731 34.5486 106.653C34.8616 106.522 35.1769 106.396 35.4758 106.235C36.21 105.841 36.97 105.497 37.6336 104.973C38.043 104.648 38.4925 104.361 38.9584 104.128C39.4102 103.9 39.7844 103.578 40.1891 103.293C40.6644 102.959 41.1351 102.605 41.6504 102.339C42.1211 102.097 42.5211 101.768 42.9494 101.473C43.1447 101.341 43.2788 101.148 43.3423 100.911C43.6624 99.7272 44.0083 98.5481 44.3048 97.3595C44.8578 95.1412 45.4343 92.93 46.1473 90.7568C46.2885 90.325 46.4344 89.8956 46.5567 89.4567C46.7521 88.7473 46.9309 88.0356 47.1144 87.3215C47.1333 87.2455 47.1427 87.1649 47.1733 87.0059C47.0533 87.134 46.9803 87.1981 46.9238 87.274C46.3826 87.9834 45.8367 88.6928 45.3049 89.4093C44.613 90.344 43.933 91.2883 43.2435 92.2254C43.02 92.5291 42.7682 92.8162 42.5587 93.1293C42.0646 93.8719 41.5916 94.6287 41.1021 95.3737C40.7303 95.936 40.3327 96.4793 39.9679 97.0463C39.5632 97.6726 39.1749 98.3085 38.7961 98.9514C38.4172 99.5944 38.0572 100.252 37.6948 100.904C37.3089 101.599 36.9606 102.316 36.5347 102.985C36.0829 103.696 35.5699 104.368 35.0734 105.051C34.7792 105.457 34.4663 105.846 34.1674 106.247C34.0898 106.351 34.0309 106.467 33.9533 106.591L33.9509 106.593ZM51.5007 59.5965L51.416 59.5348C51.3972 59.5799 51.3807 59.625 51.3619 59.6701C51.2019 60.0283 51.0089 60.3747 50.8889 60.7448C50.7077 61.3 50.4983 61.848 50.4088 62.4364C50.3171 63.039 50.1453 63.6298 50.0464 64.2324C49.9194 65.0058 49.8205 65.7863 49.7288 66.5669C49.597 67.6867 49.4252 68.8042 49.5029 69.9382C49.5523 70.6713 49.5499 71.4163 49.6911 72.1304C49.8511 72.9275 50.1029 73.7034 50.4794 74.4459C50.976 75.4258 51.736 76.1565 52.5055 76.8872C52.802 77.1696 53.1761 77.3641 53.4938 77.6274C53.9903 78.0403 54.4704 78.4744 54.9504 78.9062C55.1481 79.0842 55.3269 79.2858 55.5128 79.4804C55.7034 79.682 55.8917 79.8861 56.0823 80.0901C56.0211 79.6061 55.9481 79.1292 55.7787 78.6903C55.5505 78.0996 55.2516 77.5349 54.9716 76.9632C54.6539 76.3155 54.3151 75.6773 53.9974 75.0296C53.7503 74.529 53.5173 74.0213 53.2867 73.5136C53.0044 72.8896 52.7126 72.268 52.4561 71.6345C52.2466 71.1126 52.0772 70.5764 51.896 70.0426C51.5736 69.0889 51.2936 68.1232 51.1289 67.1292C51.0183 66.4625 50.9665 65.7863 50.9053 65.1126C50.8136 64.1066 50.7854 63.0959 50.9195 62.09C51.0042 61.4684 51.0795 60.8444 51.3054 60.2513C51.3877 60.0378 51.4372 59.8124 51.5007 59.5942V59.5965ZM84.0588 107.507C83.6 107.445 83.2164 107.35 82.8305 107.35C82.3834 107.35 81.9269 107.39 81.4892 107.488C80.7997 107.642 80.1267 107.855 79.4443 108.043C79.3172 108.078 79.1737 108.15 79.0584 108.119C78.8278 108.057 78.7007 108.176 78.5407 108.297C78.1619 108.581 77.9454 108.994 77.6747 109.367C77.5853 109.49 77.4982 109.63 77.4559 109.775C77.1523 110.812 76.8629 111.853 76.5499 112.951C76.6911 112.935 76.7805 112.928 76.8676 112.911C77.5477 112.785 78.2277 112.657 78.9078 112.532C79.2678 112.465 79.6278 112.406 79.9879 112.337C80.2044 112.294 80.3973 112.216 80.5409 112.019C80.8468 111.599 81.1833 111.198 81.4939 110.781C81.8798 110.263 82.2516 109.734 82.6328 109.212C82.7128 109.103 82.807 109.008 82.894 108.904C83.2658 108.458 83.6376 108.01 84.0588 107.502V107.507ZM14.8034 103.217C14.4857 102.97 14.3939 102.968 14.1586 103.222C14.0009 103.393 13.8645 103.583 13.7256 103.77C12.8009 105.008 11.8784 106.249 10.956 107.49C10.283 108.396 9.60764 109.3 8.9417 110.211C8.81228 110.389 8.70874 110.586 8.61461 110.785C8.54402 110.935 8.59108 111.08 8.72991 111.174C8.85463 111.26 9.00522 111.265 9.1017 111.156C9.28524 110.947 9.44762 110.719 9.60528 110.489C9.67352 110.392 9.69235 110.256 9.76059 110.161C10.2195 109.526 10.6524 108.864 11.1607 108.268C12.4338 106.769 13.528 105.139 14.6575 103.533C14.7187 103.445 14.7516 103.336 14.8057 103.22L14.8034 103.217ZM43.6177 66.7899C43.4859 66.6262 43.3729 66.6404 43.267 66.733C43.1941 66.797 43.1258 66.8706 43.0694 66.9489C42.3799 67.9216 41.6999 68.8991 41.0057 69.867C39.9044 71.4044 38.789 72.9323 37.6877 74.4673C37.1653 75.1957 36.6594 75.9335 36.1511 76.6713C36.0829 76.771 36.0311 76.8872 36.0052 77.0059C35.9911 77.077 36.0193 77.2028 36.0711 77.2312C36.1417 77.2716 36.2711 77.2811 36.337 77.2384C36.4453 77.1696 36.5347 77.0581 36.6123 76.9513C36.9912 76.4222 37.363 75.8884 37.7348 75.3546C39.1867 73.2692 40.6409 71.1838 42.0858 69.0936C42.6082 68.3368 43.1047 67.5633 43.6177 66.7899ZM48.6558 58.0212C48.4557 57.8599 48.3804 57.8646 48.2698 58.0829C48.2134 58.192 48.1734 58.3106 48.1475 58.4292C48.0628 58.8017 47.9922 59.1766 47.9027 59.5467C47.8745 59.6629 47.8321 59.7839 47.7639 59.8812C47.4062 60.396 47.0274 60.8943 46.6791 61.4162C45.9708 62.4791 45.2719 63.5467 44.5777 64.6191C44.4012 64.8919 44.4201 65.0817 44.5824 65.1695C44.7378 65.2525 44.8742 65.1861 45.046 64.9204C45.3331 64.4767 45.599 64.0188 45.8978 63.5847C46.6509 62.4933 47.4203 61.4115 48.1734 60.3201C48.2745 60.173 48.3639 59.9975 48.3945 59.8243C48.4957 59.2335 48.5687 58.6357 48.6534 58.0212H48.6558ZM19.6226 97.0368C19.6979 96.9917 19.8368 96.9206 19.9662 96.8352C20.6345 96.382 21.2957 95.9146 21.9711 95.4733C22.3311 95.2385 22.7029 95.0297 22.9076 94.6216C22.9617 94.5149 23.0582 94.4295 23.1359 94.3322C23.9359 93.3215 24.736 92.3108 25.5314 91.2954C25.6114 91.191 25.7855 91.0487 25.6161 90.9229C25.4773 90.8185 25.3949 91.0083 25.3102 91.1056C24.456 92.0878 23.6041 93.07 22.7523 94.0522C22.524 94.3156 22.2652 94.5315 21.964 94.7047C21.1028 95.1958 20.258 95.7177 19.4908 96.3535C19.4155 96.4152 19.3332 96.4745 19.2838 96.5552C19.152 96.7711 19.2932 97.0202 19.6226 97.0344V97.0368ZM64.0147 105.424C63.8594 105.435 63.7747 105.521 63.7559 105.677C63.7253 105.931 63.8524 106.093 64.1489 106.159C64.6124 106.263 65.0783 106.358 65.5419 106.47C65.669 106.501 65.8031 106.551 65.9019 106.631C66.7467 107.3 67.5844 107.979 68.4245 108.655C68.6434 108.833 68.8551 109.018 69.0787 109.189C69.2952 109.355 69.4152 109.369 69.4929 109.248C69.6152 109.053 69.4528 108.951 69.3375 108.852C68.4128 108.048 67.4456 107.291 66.5749 106.43C66.0361 105.898 65.4101 105.725 64.7324 105.585C64.4948 105.535 64.2571 105.478 64.0171 105.424H64.0147ZM14.7893 105.25C14.6716 105.357 14.5987 105.407 14.5469 105.473C13.1468 107.276 11.7443 109.08 10.3489 110.885C10.0947 111.215 9.85237 111.556 9.6147 111.9C9.48292 112.093 9.48761 112.237 9.59821 112.332C9.71351 112.43 9.84295 112.399 9.99826 112.209C10.1983 111.962 10.3912 111.706 10.5748 111.445C11.309 110.399 12.0337 109.348 12.7679 108.304C13.375 107.44 13.9915 106.584 14.601 105.72C14.681 105.606 14.7799 105.495 14.7893 105.253V105.25ZM60.2873 101.625C60.172 101.454 60.1038 101.31 59.9979 101.205C59.3908 100.6 58.7696 100.01 58.1601 99.4046C57.5859 98.8352 57.0235 98.2539 56.4517 97.6798C56.367 97.5944 56.2799 97.49 56.1717 97.4496C56.0893 97.4188 55.9529 97.4425 55.8823 97.4995C55.8399 97.535 55.8446 97.6916 55.8846 97.7581C55.9693 97.8909 56.0846 98.0072 56.1999 98.1163C57.0353 98.8921 57.873 99.6655 58.7084 100.439C58.8519 100.572 59.0025 100.7 59.1343 100.842C59.4402 101.177 59.7814 101.457 60.285 101.628L60.2873 101.625ZM44.4107 116.66C44.3048 116.755 44.1942 116.816 44.1401 116.911C44.0648 117.049 44.1401 117.177 44.2554 117.265C44.8836 117.749 45.2366 118.415 45.5119 119.137C45.559 119.262 45.6178 119.388 45.6884 119.5C45.799 119.673 45.9449 119.72 46.0908 119.649C46.2344 119.58 46.2979 119.438 46.2367 119.243C46.1473 118.961 46.0532 118.681 45.9332 118.411C45.6767 117.829 45.3307 117.31 44.8389 116.904C44.7213 116.807 44.5707 116.747 44.4083 116.657L44.4107 116.66ZM16.2859 101.528C16.3565 101.464 16.4835 101.374 16.5753 101.253C17.213 100.427 17.846 99.5967 18.4767 98.7664C18.5943 98.6098 18.6014 98.4556 18.4908 98.3725C18.3425 98.261 18.2131 98.3275 18.1025 98.4413C17.9919 98.5552 17.8789 98.6691 17.7825 98.7972C17.2318 99.5351 16.6835 100.275 16.1376 101.015C16.0811 101.094 16.0317 101.184 16.0082 101.276C15.9729 101.414 16.0694 101.521 16.2835 101.526L16.2859 101.528ZM52.0725 51.7056C51.9807 51.7958 51.889 51.8575 51.8348 51.9405C51.623 52.2679 51.4254 52.6048 51.2207 52.9393C50.6606 53.848 50.0959 54.7543 49.5429 55.6653C49.4158 55.8741 49.3193 56.1018 49.2205 56.3248C49.1664 56.4458 49.1358 56.5763 49.3076 56.695C49.3805 56.5835 49.4534 56.4862 49.5123 56.3842C49.7641 55.95 50.0017 55.5063 50.2629 55.0769C50.8559 54.1018 51.4583 53.1339 52.056 52.1635C52.129 52.0425 52.249 51.9239 52.0725 51.7056ZM42.9188 116.729C42.7917 116.755 42.7023 116.759 42.6246 116.79C42.2646 116.935 41.8975 117.07 41.5492 117.243C41.048 117.492 40.5633 117.77 40.0691 118.038C40.0056 118.074 39.935 118.102 39.8856 118.152C39.8032 118.233 39.8362 118.358 39.9444 118.382C40.0221 118.399 40.1162 118.392 40.1915 118.363C40.3279 118.311 40.455 118.237 40.5845 118.166C41.3445 117.756 42.0458 117.222 42.9164 117.042C42.9282 117.039 42.9447 117.037 42.9494 117.03C42.9917 116.975 43.0741 116.904 43.0623 116.866C43.0411 116.804 42.9588 116.764 42.9188 116.729ZM61.0098 102.584C60.9698 102.679 60.9109 102.752 60.918 102.814C60.9274 102.892 60.9768 102.98 61.0357 103.034C61.6428 103.623 62.2522 104.209 62.8711 104.785C62.9252 104.838 63.0711 104.868 63.1182 104.835C63.2358 104.75 63.1558 104.636 63.0852 104.551C62.9982 104.448 62.9017 104.354 62.8052 104.259C62.4828 103.941 62.1558 103.625 61.8334 103.307C61.6404 103.118 61.4521 102.925 61.2568 102.74C61.198 102.686 61.1204 102.653 61.0098 102.584ZM72.5637 107.86C72.4884 107.803 72.4319 107.73 72.3637 107.718C72.2884 107.704 72.1802 107.723 72.1237 107.772C71.6742 108.166 71.2295 108.569 70.7918 108.978C70.7518 109.013 70.7377 109.148 70.7636 109.17C70.8177 109.215 70.9259 109.248 70.9801 109.22C71.1095 109.156 71.2248 109.061 71.3354 108.966C71.6954 108.657 71.9872 108.266 72.4319 108.057C72.486 108.031 72.5096 107.943 72.5661 107.858L72.5637 107.86Z" fill="#4D6651" fill-opacity="0.7"/>
<path d="M52.3054 18.365C52.0607 18.2582 52.0866 18.0922 52.1313 17.9166C52.2513 17.4421 52.3689 16.9676 52.4913 16.4931C52.7407 15.518 52.9525 14.5405 52.889 13.5251C52.8419 12.7517 52.7313 11.9877 52.5619 11.2309C52.4137 10.5619 52.2842 9.88809 52.1313 9.21904C52.0395 8.81572 51.8936 8.42189 51.816 8.01619C51.7101 7.44916 51.6136 6.8774 51.5736 6.30326C51.5195 5.54643 51.5148 4.78485 51.5077 4.02328C51.5007 3.37796 51.6795 2.7635 51.8536 2.1514C51.9901 1.68164 52.1666 1.22375 52.4395 0.813309C52.6349 0.516747 52.8914 0.45032 53.1784 0.623512C53.169 0.699432 53.1855 0.796694 53.1455 0.865496C52.8631 1.36846 52.8207 1.94261 52.6631 2.48116C52.5737 2.78484 52.4937 3.09801 52.4631 3.41355C52.4184 3.88805 52.416 4.3673 52.4042 4.84417C52.3854 5.55592 52.4984 6.25581 52.6113 6.95569C52.7196 7.63423 52.8537 8.30563 53.1125 8.9462C53.1996 9.1621 53.2584 9.38986 53.3102 9.61762C53.4467 10.2013 53.5644 10.792 53.7079 11.3756C53.9244 12.2511 54.0067 13.1479 54.0161 14.0399C54.0256 15.0245 53.7549 15.9617 53.2773 16.8253C53.0631 17.212 52.8419 17.5939 52.6113 17.9712C52.5243 18.1135 52.4066 18.2369 52.3031 18.3674L52.3054 18.365Z" fill="#4D6651" fill-opacity="0.7"/>
<path d="M54.2093 58.0094C53.9763 57.9098 54.0022 57.7389 54.0304 57.5871C54.1198 57.1316 54.2187 56.6761 54.3293 56.2229C54.5575 55.281 54.8352 54.351 55.014 53.3996C55.2023 52.4008 55.2893 51.383 55.4329 50.3747C55.5105 49.8243 55.5835 49.2739 55.5247 48.7211C55.447 47.9666 55.3505 47.2122 55.0422 46.5052C54.9458 46.2798 54.8728 46.0449 54.8023 45.81C54.6046 45.1552 54.4187 44.4957 54.214 43.8409C54.0422 43.2952 53.9927 42.7353 53.9857 42.1683C53.9786 41.6772 53.9692 41.1861 53.9739 40.6973C53.9786 40.0212 54.1998 39.3925 54.4375 38.7732C54.4987 38.6167 54.6046 38.4743 54.7105 38.3391C54.7764 38.256 54.8705 38.1872 54.967 38.1421C55.1576 38.052 55.3129 38.1113 55.4729 38.3011C55.6094 38.4624 55.5364 38.6 55.4258 38.7234C54.7622 39.466 54.5834 40.3581 54.6281 41.3213C54.6611 41.9951 54.6916 42.6689 54.7481 43.3427C54.7669 43.5562 54.8564 43.765 54.9199 43.9737C55.0423 44.3723 55.1646 44.7685 55.2964 45.1647C55.4964 45.7697 55.6988 46.3771 55.9106 46.9773C56.24 47.9168 56.3883 48.8801 56.3247 49.8741C56.2706 50.7306 56.2518 51.5918 56.1365 52.4412C55.9647 53.7176 55.6494 54.9655 55.1105 56.1422C54.8469 56.7211 54.5693 57.2953 54.2963 57.8694C54.2775 57.9121 54.2469 57.9477 54.2045 58.0094H54.2093Z" fill="#4D6651" fill-opacity="0.7"/>
<path d="M53.4209 5.14058C53.5079 5.53205 53.5832 5.92826 53.6821 6.31497C53.7903 6.73016 53.915 7.1406 54.0468 7.5463C54.155 7.88082 54.2186 8.23431 54.4327 8.5285C54.5598 8.70406 54.6657 8.89861 54.8045 9.06468C55.0093 9.30905 55.1904 9.56053 55.3316 9.85235C55.4752 10.1465 55.6564 10.4289 55.8587 10.6851C56.3294 11.283 56.5411 11.9757 56.64 12.716C56.6494 12.7871 56.6729 12.8583 56.6941 12.9295C57.0494 14.0659 57.233 15.2284 57.113 16.4194C57.0659 16.8797 56.9177 17.3304 56.7976 17.7812C56.7671 17.8927 56.6847 17.9971 56.607 18.0897C56.5364 18.1751 56.4447 18.2486 56.3223 18.1632C56.2094 18.0825 56.1741 17.9734 56.2164 17.8405C56.2564 17.7124 56.3035 17.5867 56.3364 17.4562C56.4988 16.8109 56.4329 16.1584 56.3741 15.5108C56.3317 15.06 56.2847 14.6021 56.1764 14.1655C55.974 13.3565 55.7293 12.5617 55.4963 11.7622C55.4634 11.646 55.4093 11.5297 55.3387 11.4301C54.9386 10.8583 54.5692 10.2628 54.1198 9.73373C53.5291 9.03859 53.1903 8.26516 53.082 7.36361C53.0044 6.72066 52.9997 6.08721 53.1856 5.46324C53.2209 5.33987 53.2962 5.22837 53.3526 5.10974C53.3738 5.11923 53.3973 5.13109 53.4185 5.14058H53.4209Z" fill="#4D6651" fill-opacity="0.7"/>
<path d="M45.1378 42.9512C45.0978 43.0722 45.079 43.1955 45.0202 43.2952C44.5236 44.1564 44.0201 45.0105 43.5212 45.8693C43.2435 46.3486 42.9565 46.8231 42.6976 47.3118C42.4341 47.8077 42.1634 48.3059 41.9587 48.8302C41.6128 49.7199 41.2834 50.6214 41.1563 51.5775C41.0928 52.052 41.0598 52.5289 41.001 53.0034C40.9822 53.1529 40.928 53.3 40.8927 53.4352C40.6809 53.4423 40.6386 53.3213 40.6127 53.2003C40.5798 53.0438 40.5492 52.8848 40.5398 52.7258C40.5021 52.0165 40.4598 51.3047 40.4457 50.5953C40.441 50.3557 40.5092 50.1114 40.5657 49.8741C40.7304 49.1885 40.8527 48.4909 41.1869 47.8575C41.5163 47.2359 41.8081 46.5882 42.1776 45.9903C42.5376 45.4114 42.9682 44.8776 43.3847 44.3343C43.7189 43.8978 44.0765 43.4802 44.4295 43.0579C44.719 42.7116 44.6978 42.6878 45.1331 42.9535L45.1378 42.9512Z" fill="#4D6651" fill-opacity="0.7"/>
<path d="M59.8616 28.6877C59.9298 28.9463 60.0074 29.1646 60.0451 29.3876C60.1369 29.9214 60.2734 30.4363 60.5157 30.925C60.711 31.3165 60.8311 31.7506 61.0499 32.1279C61.5582 33.0009 61.9559 33.9357 62.5818 34.7423C62.9771 35.2524 63.2689 35.8432 63.6454 36.3699C63.9513 36.7993 64.1419 37.2619 64.2266 37.7744C64.2478 37.9001 64.2314 38.0472 64.1843 38.1659C64.0996 38.377 63.8313 38.396 63.7772 38.1872C63.6619 37.7507 63.3371 37.466 63.1042 37.1148C62.4571 36.1374 61.8076 35.1599 61.1699 34.1753C61.0193 33.9428 60.9134 33.6771 60.784 33.4304C60.5793 33.0413 60.3698 32.6546 60.1604 32.2678C60.0216 32.0092 59.8733 31.7649 59.8357 31.4564C59.8027 31.2073 59.6757 30.9725 59.6098 30.7257C59.4709 30.1967 59.4451 29.6605 59.5698 29.1243C59.6051 28.9724 59.6357 28.8111 59.8639 28.6877H59.8616Z" fill="#4D6651" fill-opacity="0.7"/>
<path d="M67.1563 46.7328C67.1021 47.4897 67.0527 48.2465 66.9892 49.0033C66.975 49.1599 66.9139 49.3117 66.8645 49.4636C66.8174 49.6178 66.7233 49.7198 66.5491 49.7222C66.3609 49.7222 66.2432 49.6035 66.2009 49.447C66.1538 49.2738 66.1326 49.0769 66.1609 48.9013C66.2291 48.4481 66.2503 48.0021 66.2126 47.5418C66.1797 47.1456 66.2267 46.7423 66.2244 46.3414C66.2244 46.0994 66.2009 45.8574 66.1797 45.6154C66.1185 44.9202 66.0879 44.2204 65.9773 43.5347C65.8785 42.9131 65.7044 42.3034 65.5373 41.696C65.4502 41.3781 65.3067 41.0768 65.1937 40.7684C65.1678 40.6996 65.1325 40.626 65.1396 40.5596C65.1467 40.4979 65.189 40.4149 65.2408 40.3912C65.2879 40.3698 65.382 40.3912 65.4243 40.4291C66.0197 40.9677 66.4009 41.6367 66.5986 42.4173C66.6997 42.8182 66.8197 43.2168 66.9068 43.6225C67.0762 44.4149 67.1398 45.2215 67.121 46.0329C67.1162 46.2654 67.121 46.5003 67.121 46.7328C67.1327 46.7328 67.1421 46.7328 67.1539 46.7352L67.1563 46.7328Z" fill="#4D6651" fill-opacity="0.7"/>
<path d="M71.0366 59.6938C71.0672 59.8954 71.1143 60.109 71.1331 60.3272C71.2061 61.1505 71.312 61.969 71.5967 62.7472C71.8697 63.4945 72.2485 64.192 72.6344 64.8895C73.025 65.5918 73.4557 66.2822 73.6627 67.0793C73.7451 67.3996 73.9051 67.6986 73.8957 68.0402C73.891 68.2229 73.8957 68.4127 73.8534 68.5882C73.8345 68.6713 73.7239 68.7757 73.6416 68.7923C73.5121 68.8184 73.458 68.6998 73.4486 68.5788C73.411 68.0473 73.1451 67.5989 72.9215 67.1387C72.7074 66.6997 72.4579 66.2798 72.2132 65.8575C72.0861 65.6369 71.9379 65.4305 71.7896 65.2217C71.512 64.8302 71.2955 64.4055 71.1378 63.95C70.9943 63.5348 70.8319 63.1244 70.6907 62.7092C70.4648 62.0473 70.4507 61.3616 70.479 60.6736C70.4884 60.4292 70.4742 60.1778 70.5213 59.9405C70.5825 59.6368 70.6648 59.6107 71.0343 59.6961L71.0366 59.6938Z" fill="#4D6651" fill-opacity="0.7"/>
<path d="M62.2123 17.5486C62.3064 17.6933 62.3817 17.7597 62.3982 17.838C62.5935 18.7918 62.5441 19.7289 62.2829 20.6732C62.097 21.3493 61.8876 22.0136 61.6146 22.6542C61.2146 23.5984 60.7675 24.5213 60.3392 25.4537C60.1556 25.8523 59.965 26.2485 59.7815 26.6495C59.7274 26.7681 59.6662 26.9081 59.5274 26.8488C59.4403 26.8108 59.3885 26.6684 59.3438 26.5641C59.3226 26.5166 59.3532 26.4431 59.3673 26.3837C59.5509 25.6839 59.7038 24.9769 59.9321 24.2912C60.1133 23.7479 60.3745 23.2331 60.6169 22.7135C60.9793 21.9353 61.3016 21.1405 61.544 20.3173C61.6264 20.035 61.7276 19.7574 61.7864 19.4703C61.8876 18.9673 61.9558 18.4573 62.0499 17.9519C62.0711 17.8404 62.1347 17.736 62.2123 17.5486Z" fill="#4D6651" fill-opacity="0.7"/>
<path d="M52.896 65.5206C52.6372 65.4044 52.5831 65.2359 52.5431 65.0746C52.2607 63.9785 52.0936 62.8658 52.136 61.7317C52.143 61.5396 52.2066 61.3474 52.2654 61.16C52.3713 60.8231 52.4842 60.4862 52.6113 60.1588C52.6537 60.0497 52.7454 59.9548 52.8231 59.8622C52.936 59.727 53.0702 59.7555 53.2161 59.8148C53.369 59.8788 53.3784 59.9737 53.3667 60.1327C53.3125 60.8895 53.1572 61.6345 53.0937 62.3866C53.0255 63.1885 53.0184 63.9951 52.9784 64.7994C52.9666 65.0248 52.929 65.2478 52.8984 65.523L52.896 65.5206Z" fill="#4D6651" fill-opacity="0.7"/>
<path d="M73.0296 51.9712C73.0296 52.2583 73.0367 52.5477 73.0296 52.8348C73.0037 53.7174 72.7402 54.5477 72.5025 55.3876C72.366 55.8716 72.2295 56.3532 72.0931 56.8348C72.0672 56.9273 72.0366 57.0199 72.006 57.1171C71.8177 57.1338 71.7518 57.0697 71.7895 56.8846C71.8554 56.5596 71.9048 56.2322 71.9754 55.9072C72.1966 54.8775 72.4225 53.8478 72.6508 52.8206C72.7166 52.524 72.759 52.218 72.9355 51.9594C72.9684 51.9617 72.999 51.9665 73.032 51.9688L73.0296 51.9712Z" fill="#4D6651" fill-opacity="0.7"/>
<path d="M36.6028 67.7816C36.3133 68.2039 36.0451 68.6428 35.7274 69.0414C35.318 69.5586 34.8732 70.0497 34.4379 70.5456C34.099 70.9323 33.7484 71.3095 33.4002 71.6867C33.3343 71.7579 33.2519 71.8125 33.1837 71.8813C33.0496 72.0213 32.8895 72.0402 32.7601 71.9192C32.6354 71.8054 32.6189 71.6298 32.7154 71.4803C32.8283 71.3072 32.9507 71.1363 33.0896 70.9845C33.859 70.1446 34.6238 69.3 35.4145 68.4815C35.6827 68.2039 36.0216 67.9975 36.3369 67.7674C36.3981 67.7223 36.4945 67.7294 36.5722 67.7104C36.5816 67.7318 36.591 67.7555 36.6004 67.7769L36.6028 67.7816Z" fill="#4D6651" fill-opacity="0.7"/>
<path d="M37.4359 66.6806C37.297 66.5216 37.337 66.3935 37.4359 66.2654C37.5629 66.0993 37.6782 65.9261 37.8171 65.7719C38.563 64.9463 39.3137 64.1254 40.069 63.3069C40.342 63.0103 40.6291 62.7257 40.9162 62.441C41.0362 62.3247 41.175 62.2274 41.3068 62.1183C41.4997 62.263 41.5092 62.4149 41.4103 62.5857C41.3727 62.6497 41.335 62.7138 41.2856 62.7684C40.1114 64.1183 38.9301 65.4611 37.5606 66.6165C37.5347 66.6379 37.4971 66.6498 37.4359 66.6806Z" fill="#4D6651" fill-opacity="0.7"/>
<path d="M67.3961 87.9573C67.4737 88.0617 67.5514 88.1376 67.5961 88.2301C68.015 89.1056 68.4197 89.9857 68.848 90.8565C69.0104 91.1839 69.2222 91.4875 69.4128 91.7983C69.674 92.2254 69.9375 92.6524 70.2011 93.0795C70.5634 93.6607 70.9352 94.2349 71.2859 94.8233C71.4482 95.0961 71.5682 95.3927 71.6977 95.6821C71.7377 95.7699 71.7541 95.8719 71.7612 95.9668C71.773 96.1732 71.6294 96.2681 71.4576 96.1519C71.3094 96.0522 71.1588 95.9241 71.0647 95.7746C70.5023 94.8707 69.9587 93.9549 69.4033 93.0463C69.1186 92.5765 68.8174 92.1162 68.5374 91.6441C68.4127 91.4353 68.3044 91.2123 68.2174 90.987C67.9256 90.2183 67.6385 89.4472 67.3632 88.6714C67.2879 88.4579 67.2243 88.223 67.3938 87.9573H67.3961Z" fill="#4D6651" fill-opacity="0.7"/>
<path d="M73.6086 88.9132C73.5733 89.0413 73.5662 89.1505 73.5144 89.2217C73.4627 89.2905 73.3568 89.364 73.2838 89.3545C73.2109 89.345 73.0932 89.2406 73.0885 89.1718C73.0697 88.7566 72.8203 88.434 72.6556 88.0852C72.2014 87.1291 71.8296 86.1445 71.5002 85.141C71.4578 85.0129 71.4154 84.8824 71.4037 84.7495C71.3966 84.6783 71.4531 84.6024 71.479 84.5265C71.5614 84.5597 71.6743 84.5716 71.7167 84.6333C71.8367 84.8041 71.9378 84.9891 72.0249 85.1765C72.4391 86.0662 72.8556 86.9536 73.2485 87.8527C73.3991 88.1991 73.4933 88.5692 73.6062 88.9109L73.6086 88.9132Z" fill="#4D6651" fill-opacity="0.7"/>
<path d="M70.8319 82.681C70.8248 83.0511 70.6365 83.1792 70.3401 83.0748C70.2036 83.0273 70.0695 82.987 70.0012 82.8257C69.693 82.0902 69.3682 81.3618 69.0694 80.624C68.9541 80.3417 68.9799 80.3298 69.2929 80.2397C69.5494 80.1637 69.7282 80.2183 69.8483 80.4579C70.0506 80.8636 70.2318 81.2788 70.4201 81.6916C70.5213 81.9146 70.6271 82.1353 70.7213 82.3607C70.773 82.484 70.8084 82.6122 70.8319 82.681Z" fill="#4D6651" fill-opacity="0.7"/>
<path d="M73.7637 100.911C73.7637 100.935 73.7638 100.961 73.7685 100.985C73.8108 101.139 73.8202 101.283 73.632 101.345C73.5002 101.39 73.2766 101.295 73.2084 101.143C73.0884 100.875 72.9755 100.603 72.8907 100.323C72.7495 99.8671 72.6248 99.4044 72.5095 98.9394C72.4789 98.8208 72.4248 98.6547 72.5989 98.5835C72.7613 98.5171 72.9166 98.5622 73.0272 98.6998C73.1025 98.7947 73.1637 98.9038 73.2084 99.0177C73.3684 99.4282 73.5331 99.841 73.672 100.259C73.7402 100.465 73.7543 100.688 73.7943 100.904C73.7849 100.904 73.7755 100.906 73.7661 100.909L73.7637 100.911Z" fill="#4D6651" fill-opacity="0.7"/>
<path d="M76.9006 99.7298C77.1265 99.6088 77.2935 99.6918 77.4371 99.8365C77.4959 99.8958 77.543 99.9718 77.5806 100.048C77.8536 100.593 78.1242 101.141 78.3972 101.687C78.4019 101.699 78.4066 101.708 78.4113 101.72C78.5242 101.984 78.5195 102.124 78.3925 102.226C78.2631 102.328 78.0677 102.283 77.8865 102.079C77.7924 101.972 77.7218 101.837 77.6653 101.704C77.4324 101.165 77.2065 100.624 76.9876 100.081C76.9429 99.9718 76.9288 99.8484 76.9006 99.7274V99.7298Z" fill="#4D6651" fill-opacity="0.7"/>
<path d="M62.7157 72.0664C62.944 71.9477 63.0616 71.9904 63.1416 72.1518C63.184 72.2396 63.2381 72.3273 63.2617 72.4222C63.4052 73.0201 63.5417 73.618 63.6805 74.2158C63.6899 74.2514 63.6876 74.2894 63.6923 74.325C63.7064 74.4744 63.7323 74.631 63.5487 74.6975C63.4193 74.7449 63.2358 74.6168 63.184 74.408C63.0687 73.943 62.9746 73.4732 62.8804 73.0035C62.8193 72.6927 62.7722 72.3795 62.7181 72.064L62.7157 72.0664Z" fill="#4D6651" fill-opacity="0.7"/>
<path d="M78.522 103.737C78.6161 103.748 78.7456 103.758 78.8232 103.926C79.0562 104.439 79.0962 104.989 79.1527 105.533C79.1715 105.72 79.0303 105.867 78.8868 105.869C78.7221 105.869 78.6138 105.789 78.5761 105.62C78.4632 105.132 78.3455 104.645 78.2349 104.157C78.2208 104.097 78.2232 104.036 78.2232 103.974C78.2232 103.805 78.3079 103.727 78.522 103.734V103.737Z" fill="#4D6651" fill-opacity="0.7"/>
<path d="M66.015 82.4339C66.0903 82.4932 66.2291 82.5596 66.3068 82.6688C66.4174 82.8254 66.4974 83.0104 66.5657 83.1907C66.721 83.6012 66.8645 84.0163 67.0033 84.4339C67.0222 84.4908 67.0128 84.6047 66.9798 84.6237C66.921 84.6593 66.8292 84.6546 66.7563 84.6379C66.7021 84.6261 66.6433 84.581 66.608 84.5359C66.2033 83.9784 65.8621 83.39 65.7679 82.6901C65.7491 82.5573 65.7891 82.4458 66.015 82.4315V82.4339Z" fill="#4D6651" fill-opacity="0.7"/>
<path d="M26.9009 99.0724C26.835 99.35 26.6491 99.5398 26.4468 99.7414C25.8914 100.289 25.3643 100.866 24.8301 101.435C24.4866 101.801 24.1524 102.173 23.8112 102.543C23.7689 102.588 23.7265 102.641 23.6747 102.664C23.6159 102.69 23.5241 102.721 23.4841 102.695C23.4371 102.664 23.3971 102.558 23.4159 102.508C23.4912 102.316 23.5642 102.112 23.6842 101.948C24.3713 101.03 25.0725 100.126 25.7691 99.2148C25.8938 99.0487 26.0044 98.8707 26.1361 98.7118C26.1997 98.6359 26.315 98.5362 26.3856 98.5504C26.5079 98.5789 26.7174 98.7118 26.7056 98.7569C26.6585 98.949 26.8797 98.9134 26.8985 99.07L26.9009 99.0724Z" fill="#4D6651" fill-opacity="0.7"/>
<path d="M54.1786 80.306C54.5904 80.5907 54.6045 80.5955 54.4963 80.9608C54.2492 81.796 53.9927 82.6263 53.7339 83.4567C53.5338 84.0996 53.3244 84.7402 53.1197 85.3808C53.0962 85.452 53.075 85.5208 53.0514 85.5896C53.0091 85.7106 52.9503 85.8387 52.802 85.8055C52.6491 85.7699 52.5973 85.6228 52.6114 85.4852C52.6349 85.2408 52.6702 84.9964 52.7338 84.7616C52.8938 84.1566 53.0562 83.554 53.2421 82.9561C53.4562 82.2657 53.6938 81.5848 53.9292 80.9015C53.995 80.7094 54.0868 80.5243 54.181 80.306H54.1786Z" fill="#4D6651" fill-opacity="0.7"/>
<path d="M44.8177 109.886C44.7354 110.316 44.5518 110.655 44.1989 110.895C43.8318 111.146 43.4741 111.414 43.0999 111.659C42.9823 111.735 42.8293 111.784 42.6905 111.791C42.4081 111.808 42.2763 111.609 42.3634 111.334C42.3893 111.255 42.434 111.179 42.4834 111.111C42.7399 110.743 42.9988 110.373 43.3729 110.114C43.7094 109.879 44.0577 109.689 44.4906 109.853C44.5871 109.889 44.7024 109.877 44.8154 109.886H44.8177Z" fill="#4D6651" fill-opacity="0.7"/>
<path d="M49.9405 99.9454C50.3029 100.133 50.3217 100.157 50.2487 100.47C50.1099 101.065 49.9687 101.663 49.8158 102.254C49.7734 102.418 49.6981 102.577 49.6087 102.721C49.4981 102.899 49.3287 102.878 49.2651 102.679C49.2322 102.579 49.2228 102.456 49.2463 102.354C49.4275 101.628 49.6181 100.906 49.8111 100.185C49.8322 100.107 49.8864 100.04 49.9381 99.9454H49.9405Z" fill="#4D6651" fill-opacity="0.7"/>
<path d="M91.7466 98.1614C92.0878 98.0001 92.1089 97.9859 92.2619 98.197C92.4878 98.5126 92.6855 98.8518 92.8902 99.1816C93.2573 99.7724 93.6244 100.365 93.982 100.961C94.1703 101.277 94.3397 101.602 94.5233 101.919C94.5986 102.05 94.6409 102.18 94.4997 102.275C94.3656 102.365 94.2197 102.342 94.1021 102.226C94.0597 102.183 94.022 102.133 93.9914 102.081C93.4714 101.21 92.949 100.339 92.4313 99.4663C92.2713 99.1935 92.1136 98.9182 91.9654 98.6407C91.8854 98.4936 91.8242 98.3346 91.7466 98.1638V98.1614Z" fill="#4D6651" fill-opacity="0.7"/>
<path d="M77.1688 80.6168C77.3406 80.4484 77.4888 80.4626 77.63 80.5646C77.7877 80.6808 77.9406 80.8018 78.0818 80.9371C78.9854 81.8007 79.8514 82.7022 80.6162 83.6939C80.6915 83.7912 80.8562 83.8956 80.7244 84.0379C80.6067 84.166 80.4632 84.0498 80.362 83.9762C80.1738 83.841 79.9926 83.6915 79.8326 83.5231C79.0372 82.6927 78.2489 81.8552 77.4629 81.0154C77.3523 80.8968 77.2676 80.752 77.1664 80.6144L77.1688 80.6168Z" fill="#4D6651" fill-opacity="0.7"/>
<path d="M73.2014 75.5823C73.5803 75.3308 73.6603 75.3332 73.8791 75.6203C74.451 76.37 75.0181 77.1268 75.5828 77.8789C75.6275 77.9382 75.6793 77.9999 75.6911 78.0687C75.7028 78.1422 75.6722 78.2253 75.6605 78.3036C75.5734 78.287 75.4581 78.2988 75.404 78.2466C75.2275 78.0782 75.0745 77.886 74.9122 77.7033C74.4745 77.2098 74.0297 76.7235 73.6038 76.2181C73.4438 76.0283 73.3332 75.7935 73.2014 75.5823Z" fill="#4D6651" fill-opacity="0.7"/>
<path d="M82.7575 89.5279C82.7551 89.675 82.5834 89.7794 82.461 89.694C82.0868 89.4283 81.6703 89.21 81.4068 88.8138C81.3621 88.7473 81.348 88.605 81.388 88.5528C81.4327 88.4959 81.5786 88.4603 81.6445 88.4911C82.0916 88.7046 82.4328 89.0487 82.734 89.4401C82.7551 89.4662 82.7528 89.5089 82.7575 89.5303V89.5279Z" fill="#4D6651" fill-opacity="0.7"/>
<path d="M50.3806 70.605C50.8371 71.0344 50.8136 71.5777 50.8865 72.0759C50.9642 72.6002 51.0418 73.1175 51.2442 73.6086C51.2913 73.7224 51.3454 73.8434 51.2136 73.9383C51.0983 74.0237 50.9853 73.9882 50.8747 73.917C50.5971 73.7343 50.4088 73.4757 50.317 73.1673C50.1947 72.7473 50.0817 72.3179 50.0205 71.8861C49.9782 71.5753 50.0135 71.2527 50.0394 70.9371C50.0559 70.7284 50.2064 70.6263 50.3806 70.6074V70.605Z" fill="#4D6651" fill-opacity="0.7"/>
<path d="M77.9642 111.046C78.0771 110.498 78.2324 109.92 78.5101 109.381C78.6066 109.196 78.769 109.25 78.9243 109.277C79.0913 109.305 79.1078 109.431 79.0913 109.554C79.0702 109.711 79.0372 109.872 78.9807 110.019C78.8207 110.444 78.6537 110.866 78.4795 111.286C78.4254 111.419 78.3666 111.59 78.1783 111.549C78.0089 111.514 77.9759 111.355 77.9642 111.201C77.9618 111.165 77.9642 111.127 77.9642 111.044V111.046Z" fill="#4D6651" fill-opacity="0.7"/>
</svg>
