<svg width="22" height="21" viewBox="0 0 22 21" fill="none" xmlns="http://www.w3.org/2000/svg">
<path d="M10.8312 0L10.7637 0.0660377L10.6961 0.132075V0.198113L10.6286 0.264151V0.330189L10.5611 0.396226V0.462264V0.528302V0.59434V0.660377V0.726415L10.4936 0.792453V0.85849V0.924528V0.990566V1.0566V1.12264V1.18868V1.25472V1.32075L10.426 1.38679V1.45283V1.51887V1.58491V1.65094V1.71698V1.78302V1.84906L10.3585 1.91509V1.98113V2.04717V2.11321V2.17925V2.24528V2.31132V2.37736L10.291 2.4434V2.50943V2.57547V2.64151V2.70755V2.77358V2.83962V2.90566L10.2235 2.9717V3.03774V3.10377V3.16981V3.23585V3.30189L10.1559 3.36792V3.43396V3.5V3.56604V3.63208V3.69811V3.76415L10.0884 3.83019V3.89623V3.96226V4.0283V4.09434V4.16038L10.0209 4.22642V4.29245V4.35849V4.42453V4.49057V4.5566L9.95338 4.62264V4.68868V4.75472V4.82075V4.88679L9.88585 4.95283V5.01887V5.08491V5.15094V5.21698L9.81833 5.28302V5.34906V5.41509V5.48113V5.54717L9.7508 5.61321V5.67925V5.74528V5.81132L9.68328 5.87736V5.9434V6.00943V6.07547L9.61576 6.14151V6.20755V6.27358L9.54823 6.33962V6.40566V6.4717L9.48071 6.53774V6.60377V6.66981L9.41318 6.73585V6.80189V6.86792L9.34566 6.93396V7L9.27814 7.06604V7.13208V7.19811L9.21061 7.26415V7.33019L9.14309 7.39623V7.46226L9.07556 7.5283L9.00804 7.59434V7.66038L8.94051 7.72642V7.79245L8.87299 7.85849L8.80547 7.92453L8.73794 7.99057V8.0566L8.67042 8.12264L8.60289 8.18868L8.53537 8.25472L8.46784 8.32076L8.40032 8.38679L8.3328 8.45283L8.26527 8.51887L8.19775 8.58491H8.13023L8.0627 8.65094L7.99518 8.71698L7.92765 8.78302H7.86013L7.7926 8.84906H7.72508L7.65756 8.91509H7.59003L7.52251 8.98113H7.45498L7.38746 9.04717H7.31994L7.25241 9.11321H7.18489H7.11736L7.04984 9.17924H6.98232H6.91479H6.84727L6.77974 9.24528H6.71222H6.64469L6.57717 9.31132H6.50965H6.44212H6.3746L6.30707 9.37736H6.23955H6.17203L6.1045 9.4434H6.03698H5.96945H5.90193H5.83441L5.76688 9.50943H5.69936H5.63183H5.56431H5.49678L5.42926 9.57547H5.36174H5.29421H5.22669H5.15916H5.09164L5.02412 9.64151H4.95659H4.88907H4.82154H4.75402H4.6865L4.61897 9.70755H4.55145H4.48392H4.4164H4.34887H4.28135H4.21383L4.1463 9.77359H4.07878H4.01125H3.94373H3.87621H3.80868H3.74116L3.67363 9.83962H3.60611H3.53859H3.47106H3.40354H3.33601H3.26849H3.20096L3.13344 9.90566H3.06592H2.99839H2.93087H2.86334H2.79582H2.7283H2.66077H2.59325L2.52572 9.9717H2.4582H2.39068H2.32315H2.25563H2.1881H2.12058H2.05305H1.98553H1.91801H1.85048L1.78296 10.0377H1.71543H1.64791H1.58039H1.51286H1.44534H1.37781H1.31029H1.24277H1.17524L1.10772 10.1038H1.04019H0.972669H0.905145H0.837621H0.770096L0.702572 10.1698H0.635048L0.567524 10.2358L0.5 10.3019V10.3679V10.434V10.5V10.566V10.6321V10.6981L0.567524 10.7641V10.8302H0.635048L0.702572 10.8962H0.770096H0.837621L0.905145 10.9623H0.972669H1.04019H1.10772H1.17524H1.24277L1.31029 11.0283H1.37781H1.44534H1.51286H1.58039H1.64791H1.71543H1.78296H1.85048L1.91801 11.0943H1.98553H2.05305H2.12058H2.1881H2.25563H2.32315H2.39068L2.4582 11.1604H2.52572H2.59325H2.66077H2.7283H2.79582H2.86334H2.93087L2.99839 11.2264H3.06592H3.13344H3.20096H3.26849H3.33601H3.40354L3.47106 11.2925H3.53859H3.60611H3.67363H3.74116H3.80868H3.87621L3.94373 11.3585H4.01125H4.07878H4.1463H4.21383H4.28135L4.34887 11.4245H4.4164H4.48392H4.55145H4.61897H4.6865L4.75402 11.4906H4.82154H4.88907H4.95659H5.02412H5.09164L5.15916 11.5566H5.22669H5.29421H5.36174H5.42926L5.49678 11.6226H5.56431H5.63183H5.69936L5.76688 11.6887H5.83441H5.90193H5.96945L6.03698 11.7547H6.1045H6.17203H6.23955L6.30707 11.8208H6.3746H6.44212H6.50965L6.57717 11.8868H6.64469H6.71222L6.77974 11.9528H6.84727H6.91479L6.98232 12.0189H7.04984H7.11736L7.18489 12.0849H7.25241H7.31994L7.38746 12.1509H7.45498L7.52251 12.217H7.59003L7.65756 12.283H7.72508L7.7926 12.3491L7.86013 12.4151H7.92765L7.99518 12.4811L8.0627 12.5472L8.13023 12.6132L8.19775 12.6792H8.26527L8.3328 12.7453L8.40032 12.8113L8.46784 12.8774L8.53537 12.9434L8.60289 13.0094V13.0755L8.67042 13.1415L8.73794 13.2075L8.80547 13.2736L8.87299 13.3396V13.4057L8.94051 13.4717L9.00804 13.5377V13.6038L9.07556 13.6698V13.7358L9.14309 13.8019V13.8679L9.21061 13.934V14L9.27814 14.066V14.1321L9.34566 14.1981V14.2642L9.41318 14.3302V14.3962V14.4623L9.48071 14.5283V14.5943L9.54823 14.6604V14.7264V14.7925V14.8585L9.61576 14.9245V14.9906V15.0566L9.68328 15.1226V15.1887V15.2547V15.3208L9.7508 15.3868V15.4528V15.5189V15.5849L9.81833 15.6509V15.717V15.783V15.8491L9.88585 15.9151V15.9811V16.0472V16.1132V16.1792L9.95338 16.2453V16.3113V16.3774V16.4434L10.0209 16.5094V16.5755V16.6415V16.7075V16.7736V16.8396V16.9057L10.0884 16.9717V17.0377V17.1038V17.1698V17.2358V17.3019L10.1559 17.3679V17.434V17.5V17.566V17.6321V17.6981V17.7641L10.2235 17.8302V17.8962V17.9623V18.0283V18.0943V18.1604V18.2264L10.291 18.2925V18.3585V18.4245V18.4906V18.5566V18.6226V18.6887V18.7547L10.3585 18.8208V18.8868V18.9528V19.0189V19.0849V19.1509V19.217L10.426 19.283V19.3491V19.4151V19.4811V19.5472V19.6132V19.6792V19.7453L10.4936 19.8113V19.8774V19.9434V20.0094V20.0755V20.1415V20.2075L10.5611 20.2736V20.3396V20.4057V20.4717V20.5377V20.6038L10.6286 20.6698V20.7358L10.6961 20.8019V20.8679L10.7637 20.934H10.8312L10.8987 21H10.9662H11.0338H11.1013L11.1688 20.934H11.2363L11.3039 20.8679L11.3714 20.8019V20.7358L11.4389 20.6698V20.6038V20.5377L11.5064 20.4717V20.4057V20.3396V20.2736V20.2075V20.1415L11.574 20.0755V20.0094V19.9434V19.8774V19.8113V19.7453V19.6792V19.6132L11.6415 19.5472V19.4811V19.4151V19.3491V19.283V19.217V19.1509V19.0849V19.0189L11.709 18.9528V18.8868V18.8208V18.7547V18.6887V18.6226V18.5566V18.4906L11.7765 18.4245V18.3585V18.2925V18.2264V18.1604V18.0943V18.0283V17.9623L11.8441 17.8962V17.8302V17.7641V17.6981V17.6321V17.566V17.5L11.9116 17.434V17.3679V17.3019V17.2358V17.1698V17.1038V17.0377L11.9791 16.9717V16.9057V16.8396V16.7736V16.7075V16.6415L12.0466 16.5755V16.5094V16.4434V16.3774V16.3113V16.2453L12.1141 16.1792V16.1132V16.0472V15.9811V15.9151L12.1817 15.8491V15.783V15.717V15.6509L12.2492 15.5849V15.5189V15.4528V15.3868L12.3167 15.3208V15.2547V15.1887V15.1226L12.3842 15.0566V14.9906V14.9245V14.8585L12.4518 14.7925V14.7264V14.6604L12.5193 14.5943V14.5283V14.4623L12.5868 14.3962V14.3302V14.2642L12.6543 14.1981V14.1321L12.7219 14.066V14V13.934L12.7894 13.8679V13.8019L12.8569 13.7358V13.6698L12.9244 13.6038V13.5377L12.992 13.4717L13.0595 13.4057V13.3396L13.127 13.2736L13.1945 13.2075V13.1415L13.2621 13.0755L13.3296 13.0094L13.3971 12.9434L13.4646 12.8774V12.8113L13.5322 12.7453L13.5997 12.6792H13.6672L13.7347 12.6132L13.8022 12.5472L13.8698 12.4811H13.9373L14.0048 12.4151L14.0723 12.3491H14.1399L14.2074 12.283H14.2749L14.3424 12.217H14.41L14.4775 12.1509H14.545L14.6125 12.0849H14.6801H14.7476L14.8151 12.0189H14.8826L14.9502 11.9528H15.0177H15.0852L15.1527 11.8868H15.2203H15.2878L15.3553 11.8208H15.4228H15.4904H15.5579L15.6254 11.7547H15.6929H15.7605H15.828L15.8955 11.6887H15.963H16.0305H16.0981L16.1656 11.6226H16.2331H16.3006H16.3682H16.4357L16.5032 11.5566H16.5707H16.6383H16.7058H16.7733H16.8408L16.9084 11.4906H16.9759H17.0434H17.1109H17.1785L17.246 11.4245H17.3135H17.381H17.4486H17.5161H17.5836L17.6511 11.3585H17.7186H17.7862H17.8537H17.9212H17.9887L18.0563 11.2925H18.1238H18.1913H18.2588H18.3264H18.3939H18.4614L18.5289 11.2264H18.5965H18.664H18.7315H18.799H18.8666H18.9341L19.0016 11.1604H19.0691H19.1367H19.2042H19.2717H19.3392H19.4068H19.4743L19.5418 11.0943H19.6093H19.6769H19.7444H19.8119H19.8794H19.9469H20.0145H20.082L20.1495 11.0283H20.217H20.2846H20.3521H20.4196H20.4871H20.5547H20.6222H20.6897L20.7572 10.9623H20.8248H20.8923H20.9598H21.0273H21.0949L21.1624 10.8962H21.2299H21.2974L21.365 10.8302L21.4325 10.7641V10.6981L21.5 10.6321V10.566V10.5V10.434L21.4325 10.3679V10.3019L21.365 10.2358L21.2974 10.1698H21.2299L21.1624 10.1038H21.0949H21.0273H20.9598H20.8923L20.8248 10.0377H20.7572H20.6897H20.6222H20.5547H20.4871H20.4196H20.3521H20.2846L20.217 9.9717H20.1495H20.082H20.0145H19.9469H19.8794H19.8119H19.7444H19.6769H19.6093H19.5418L19.4743 9.90566H19.4068H19.3392H19.2717H19.2042H19.1367H19.0691H19.0016H18.9341L18.8666 9.83962H18.799H18.7315H18.664H18.5965H18.5289H18.4614H18.3939L18.3264 9.77359H18.2588H18.1913H18.1238H18.0563H17.9887H17.9212L17.8537 9.70755H17.7862H17.7186H17.6511H17.5836H17.5161L17.4486 9.64151H17.381H17.3135H17.246H17.1785H17.1109H17.0434L16.9759 9.57547H16.9084H16.8408H16.7733H16.7058H16.6383L16.5707 9.50943H16.5032H16.4357H16.3682L16.3006 9.4434H16.2331H16.1656H16.0981H16.0305L15.963 9.37736H15.8955H15.828H15.7605L15.6929 9.31132H15.6254H15.5579H15.4904L15.4228 9.24528H15.3553H15.2878L15.2203 9.17924H15.1527H15.0852H15.0177L14.9502 9.11321H14.8826H14.8151L14.7476 9.04717H14.6801L14.6125 8.98113H14.545L14.4775 8.91509H14.41L14.3424 8.84906H14.2749L14.2074 8.78302H14.1399L14.0723 8.71698L14.0048 8.65094H13.9373L13.8698 8.58491L13.8022 8.51887L13.7347 8.45283L13.6672 8.38679L13.5997 8.32076L13.5322 8.25472L13.4646 8.18868L13.3971 8.12264L13.3296 8.0566L13.2621 7.99057V7.92453L13.1945 7.85849L13.127 7.79245L13.0595 7.72642V7.66038L12.992 7.59434V7.5283L12.9244 7.46226L12.8569 7.39623V7.33019L12.7894 7.26415V7.19811L12.7219 7.13208V7.06604V7L12.6543 6.93396V6.86792V6.80189L12.5868 6.73585V6.66981L12.5193 6.60377V6.53774V6.4717L12.4518 6.40566V6.33962V6.27358L12.3842 6.20755V6.14151V6.07547V6.00943L12.3167 5.9434V5.87736V5.81132L12.2492 5.74528V5.67925V5.61321V5.54717V5.48113L12.1817 5.41509V5.34906V5.28302V5.21698L12.1141 5.15094V5.08491V5.01887V4.95283V4.88679V4.82075L12.0466 4.75472V4.68868V4.62264V4.5566V4.49057L11.9791 4.42453V4.35849V4.29245V4.22642V4.16038V4.09434L11.9116 4.0283V3.96226V3.89623V3.83019V3.76415V3.69811V3.63208L11.8441 3.56604V3.5V3.43396V3.36792V3.30189V3.23585V3.16981L11.7765 3.10377V3.03774V2.9717V2.90566V2.83962V2.77358L11.709 2.70755V2.64151V2.57547V2.50943V2.4434V2.37736V2.31132V2.24528L11.6415 2.17925V2.11321V2.04717V1.98113V1.91509V1.84906V1.78302V1.71698L11.574 1.65094V1.58491V1.51887V1.45283V1.38679V1.32075V1.25472V1.18868V1.12264L11.5064 1.0566V0.990566V0.924528V0.85849V0.792453V0.726415V0.660377V0.59434L11.4389 0.528302V0.462264V0.396226V0.330189L11.3714 0.264151V0.198113V0.132075L11.3039 0.0660377H11.2363L11.1688 0H11.1013H11.0338H10.9662H10.8987H10.8312Z" fill="#34495E"/>
</svg>
