<svg width="18" height="18" viewBox="0 0 18 18" fill="none" xmlns="http://www.w3.org/2000/svg">
<g clip-path="url(#clip0_403_268)">
<path d="M16.9211 1.61141L12.6412 1.61142V0.546119C12.6412 0.250795 12.402 0.0115967 12.1067 0.0115967C11.8113 0.0115967 11.5721 0.250795 11.5721 0.546119V1.61116H7.29597V0.546119C7.29597 0.250795 7.05677 0.0115967 6.76144 0.0115967C6.46612 0.0115967 6.22692 0.250795 6.22692 0.546119V1.61116H1.95448C1.3641 1.61116 0.885437 2.08982 0.885437 2.6802V16.0433C0.885437 16.6336 1.3641 17.1123 1.95448 17.1123H16.9211C17.5115 17.1123 17.9902 16.6336 17.9902 16.0433V2.6802C17.9902 2.09007 17.5115 1.61141 16.9211 1.61141ZM16.9211 16.0433H1.95448V2.6802H6.22692V3.21873C6.22692 3.51404 6.46612 3.75325 6.76144 3.75325C7.05677 3.75325 7.29597 3.51404 7.29597 3.21873V2.68047H11.5721V3.219C11.5721 3.51432 11.8113 3.75352 12.1067 3.75352C12.402 3.75352 12.6412 3.51432 12.6412 3.219V2.68047H16.9211V16.0433ZM13.1795 8.5602H14.2485C14.5436 8.5602 14.783 8.32073 14.783 8.02568V6.95663C14.783 6.66157 14.5436 6.42211 14.2485 6.42211H13.1795C12.8844 6.42211 12.6449 6.66157 12.6449 6.95663V8.02568C12.6449 8.32073 12.8844 8.5602 13.1795 8.5602ZM13.1795 12.8361H14.2485C14.5436 12.8361 14.783 12.5969 14.783 12.3016V11.2325C14.783 10.9375 14.5436 10.698 14.2485 10.698H13.1795C12.8844 10.698 12.6449 10.9375 12.6449 11.2325V12.3016C12.6449 12.5972 12.8844 12.8361 13.1795 12.8361ZM9.97232 10.698H8.90327C8.60822 10.698 8.36875 10.9375 8.36875 11.2325V12.3016C8.36875 12.5969 8.60822 12.8361 8.90327 12.8361H9.97232C10.2674 12.8361 10.5068 12.5969 10.5068 12.3016V11.2325C10.5068 10.9378 10.2674 10.698 9.97232 10.698ZM9.97232 6.42211H8.90327C8.60822 6.42211 8.36875 6.66157 8.36875 6.95663V8.02568C8.36875 8.32073 8.60822 8.5602 8.90327 8.5602H9.97232C10.2674 8.5602 10.5068 8.32073 10.5068 8.02568V6.95663C10.5068 6.66131 10.2674 6.42211 9.97232 6.42211ZM5.69614 6.42211H4.62709C4.33204 6.42211 4.09257 6.66157 4.09257 6.95663V8.02568C4.09257 8.32073 4.33204 8.5602 4.62709 8.5602H5.69614C5.9912 8.5602 6.23066 8.32073 6.23066 8.02568V6.95663C6.23066 6.66131 5.9912 6.42211 5.69614 6.42211ZM5.69614 10.698H4.62709C4.33204 10.698 4.09257 10.9375 4.09257 11.2325V12.3016C4.09257 12.5969 4.33204 12.8361 4.62709 12.8361H5.69614C5.9912 12.8361 6.23066 12.5969 6.23066 12.3016V11.2325C6.23066 10.9378 5.9912 10.698 5.69614 10.698Z" fill="#34495E"/>
</g>
<defs>
<clipPath id="clip0_403_268">
<rect width="17.1047" height="17.1047" fill="white" transform="translate(0.885437 0.00982666)"/>
</clipPath>
</defs>
</svg>
