<svg width="50" height="64" viewBox="0 0 50 64" fill="none" xmlns="http://www.w3.org/2000/svg">
<path d="M31.8915 54.8915C27.1259 54.153 22.2389 53.2869 17.5947 51.9825C16.79 51.7582 16.9808 51.0405 17.7889 51.2682C22.3187 52.5415 27.0774 53.387 31.7251 54.1082C32.3841 54.2117 32.8176 55.0364 31.895 54.8949L31.8915 54.8915Z" fill="#4D6651" fill-opacity="0.7"/>
<path d="M23.0644 59.5675C18.2988 58.5943 13.5367 57.4936 8.84388 56.2099C8.60109 56.1443 7.50854 55.8407 7.623 55.4128C7.73746 54.9883 8.84041 55.2644 9.07973 55.3299C13.5332 56.5481 18.0525 57.604 22.5788 58.5288C23.0367 58.622 23.9176 58.7876 24.1431 59.2742C24.3547 59.7297 23.2101 59.5951 23.0609 59.564L23.0644 59.5675Z" fill="#4D6651" fill-opacity="0.7"/>
<path d="M9.67605 40.3573C12.6658 45.3299 15.4475 50.4232 18.3436 55.4475C18.7945 56.2273 16.7863 55.972 16.4846 55.4475C13.5884 50.4232 10.8068 45.3299 7.81697 40.3573C7.35567 39.5913 9.36389 39.8363 9.67605 40.3573Z" fill="#4D6651" fill-opacity="0.7"/>
<path d="M15.3852 42.217C12.385 47.7554 8.81944 52.966 4.89665 57.9006C4.51513 58.3803 2.58321 57.7039 3.02024 57.1552C6.891 52.2862 10.4149 47.1515 13.3769 41.6821C13.7134 41.0644 15.6418 41.7442 15.3886 42.217H15.3852Z" fill="#4D6651" fill-opacity="0.7"/>
<path d="M40.3199 34.2561C37.611 39.6013 34.7253 44.8602 31.8812 50.1329C30.2788 53.104 28.6695 56.0751 27.0462 59.0359C26.2624 60.4645 25.5513 62.007 24.6183 63.3493C24.2611 63.86 22.4298 63.0698 22.6066 62.8145C23.4876 61.5515 24.1605 60.0953 24.8993 58.7495C26.5086 55.8198 28.1006 52.8797 29.6857 49.9397C32.5922 44.5531 35.5404 39.1803 38.3082 33.7212C38.5683 33.2036 40.4968 33.9075 40.3199 34.2561Z" fill="#4D6651" fill-opacity="0.7"/>
<path d="M29.9701 44.8532C32.3876 50.126 34.9854 55.3918 37.8538 60.4368C38.2839 61.196 36.2861 60.9199 35.9982 60.4127C33.0813 55.2779 30.4279 49.9327 27.9688 44.5668C27.7295 44.0458 29.6961 44.2563 29.9701 44.8532Z" fill="#4D6651" fill-opacity="0.7"/>
<path d="M28.26 43.9631C28.4126 43.9631 28.5652 43.9148 28.6901 43.8148C29.0959 43.4938 29.7653 43.0142 30.5387 42.4586C33.4175 40.3916 37.7669 37.2687 39.7543 34.5495C39.9798 34.2424 39.9104 33.811 39.6017 33.5867C39.293 33.3624 38.8595 33.4315 38.634 33.7386C36.7784 36.2783 32.3666 39.4461 29.7306 41.3406C28.9086 41.9307 28.26 42.3965 27.8299 42.7347C27.5316 42.9728 27.4796 43.4076 27.7189 43.7043C27.8577 43.8769 28.0588 43.9666 28.2635 43.9666L28.26 43.9631Z" fill="#4D6651" fill-opacity="0.7"/>
<path d="M27.0806 41.3546C27.15 41.3546 27.2159 41.3408 27.2853 41.3132C29.0264 40.5782 30.882 39.4222 32.7966 37.8831C34.6383 36.4027 36.6188 34.3185 37.6385 33.2108C37.8328 33.0003 37.8154 32.6725 37.6038 32.4792C37.3923 32.286 37.0628 32.2998 36.8685 32.5137C35.8696 33.6007 33.9308 35.6436 32.1411 37.0791C30.2993 38.5595 28.527 39.6637 26.876 40.3642C26.6124 40.4746 26.4875 40.7783 26.602 41.044C26.6852 41.2407 26.8795 41.358 27.0806 41.358V41.3546Z" fill="#4D6651" fill-opacity="0.7"/>
<path d="M26.439 43.7215C26.7685 43.7215 27.0599 43.4869 27.1223 43.1556C27.1917 42.7795 26.942 42.4206 26.5639 42.3516C20.5843 41.2715 3.96365 37.0374 1.88953 36.085C1.39702 35.1947 1.34153 34.7668 1.41089 34.232C1.45945 33.8524 1.18891 33.5073 0.810852 33.459C0.432795 33.4107 0.0824871 33.6798 0.0339298 34.056C-0.0874653 35.0153 0.106768 35.771 0.78311 36.9408C0.842073 37.0409 0.921844 37.1237 1.01896 37.1858C2.56241 38.1382 20.2687 42.6173 26.3176 43.7112C26.3593 43.7181 26.4009 43.7215 26.4425 43.7215H26.439Z" fill="#4D6651" fill-opacity="0.7"/>
<path d="M24.8852 40.7367C17.6015 39.2908 10.2658 37.3411 3.16244 35.1982C2.90578 35.1223 1.8271 34.8255 1.94849 34.3735C2.06642 33.9318 3.15897 34.1871 3.41564 34.263C10.2658 36.33 17.4836 38.2659 24.4169 39.6428C24.8782 39.7325 25.7627 39.905 25.9777 40.4088C26.1824 40.885 25.0586 40.7677 24.8886 40.7332L24.8852 40.7367Z" fill="#4D6651" fill-opacity="0.7"/>
<path d="M2.33695 33.9526C2.39245 33.9526 2.45141 33.9457 2.50691 33.9319C6.80428 32.8518 13.7689 30.0153 17.1436 28.3797C17.487 28.214 17.6327 27.7999 17.4627 27.4583C17.2963 27.1167 16.88 26.9717 16.5367 27.1408C13.2139 28.7489 6.37419 31.5405 2.167 32.5965C1.79587 32.6896 1.57043 33.0658 1.66408 33.435C1.74385 33.749 2.02479 33.9561 2.33695 33.9561V33.9526Z" fill="#4D6651" fill-opacity="0.7"/>
<path d="M27.3373 40.7987C27.6876 41.6372 27.8957 42.5344 28.3015 43.3522C28.3917 43.5317 27.7327 43.4627 27.6321 43.2625C27.2263 42.4481 27.0182 41.5475 26.6679 40.709C26.5881 40.5123 27.2506 40.5916 27.3373 40.7987Z" fill="#4D6651" fill-opacity="0.7"/>
<path d="M40.2053 33.2139C40.4585 33.2139 40.7013 33.0759 40.8227 32.8378C43.4309 27.7272 48.2069 13.6412 49.3862 9.69357C49.4937 9.32779 49.2856 8.94476 48.918 8.83433C48.5538 8.72391 48.1653 8.93441 48.0543 9.30019C46.6635 13.9518 42.0193 27.4339 39.581 32.2132C39.4075 32.5513 39.5428 32.9689 39.8862 33.1414C39.9868 33.1932 40.0943 33.2173 40.1983 33.2173L40.2053 33.2139Z" fill="#4D6651" fill-opacity="0.7"/>
<path d="M38.2802 32.1165C38.464 32.1165 38.6409 32.0198 38.738 31.8473C39.2722 30.8846 41.1 26.8541 42.1059 24.0831C43.0319 21.533 43.8331 19.0623 44.6066 16.6744C45.55 13.7654 46.5281 10.7563 47.7525 7.50227C47.853 7.23311 47.7178 6.93635 47.4472 6.83627C47.1802 6.7362 46.8784 6.87078 46.7778 7.13994C45.5431 10.4147 44.5615 13.4376 43.6146 16.3569C42.8412 18.7379 42.0434 21.1983 41.1243 23.7346C40.1705 26.3606 38.3496 30.398 37.8258 31.3504C37.6871 31.6023 37.7773 31.9163 38.0305 32.0544C38.1102 32.0992 38.1969 32.1199 38.2802 32.1199V32.1165Z" fill="#4D6651" fill-opacity="0.7"/>
<path d="M49.303 8.12014C49.3272 8.12014 49.3515 8.12014 49.3758 8.11669C49.7573 8.07873 50.0348 7.74055 49.9966 7.36097C49.903 6.46723 49.0428 5.44926 48.0682 5.08348C46.1085 4.2622 23.5499 -0.768992 20.359 0.100597C19.9913 0.200669 19.7728 0.580248 19.8734 0.949479C19.974 1.31526 20.3555 1.53266 20.7266 1.43259C23.3002 0.728634 45.7166 5.56658 47.5306 6.3568C47.5445 6.3637 47.5549 6.36716 47.5687 6.37061C48.1306 6.57765 48.5815 7.18844 48.6162 7.50245C48.6544 7.85788 48.9527 8.12359 49.3064 8.12359L49.303 8.12014Z" fill="#4D6651" fill-opacity="0.7"/>
<path d="M18.4687 27.5965C18.6005 27.5965 18.7358 27.5585 18.8537 27.4791C19.5821 26.996 19.7555 25.2362 20.0087 15.7017C20.137 10.8569 20.2862 5.36329 20.7336 2.80628C20.7995 2.43015 20.5463 2.07472 20.1682 2.00916C19.7902 1.94359 19.4329 2.1955 19.367 2.57163C18.9023 5.22871 18.7601 10.536 18.6248 15.6672C18.5069 20.0807 18.3612 25.5536 17.9727 26.4232C17.7473 26.651 17.7091 27.0133 17.8929 27.2894C18.0282 27.4895 18.2467 27.5965 18.4722 27.5965H18.4687Z" fill="#4D6651" fill-opacity="0.7"/>
<path d="M22.2248 35.6367C24.6839 36.2199 27.1222 36.8927 29.5986 37.4069C30.4241 37.5794 30.2195 38.2696 29.4113 38.1005C26.9349 37.5863 24.5 36.9135 22.0375 36.3303C21.2224 36.137 21.4166 35.4434 22.2248 35.6367Z" fill="#4D6651" fill-opacity="0.7"/>
<path d="M8.5836 32.2895C12.5307 33.2695 16.45 34.3668 20.4109 35.302C21.4098 35.5401 21.2225 36.1957 20.234 35.9611C16.2731 35.0225 12.3572 33.9286 8.40671 32.9486C7.41127 32.7001 7.5951 32.0445 8.5836 32.2895Z" fill="#4D6651" fill-opacity="0.7"/>
<path d="M32.9355 35.6919C26.3871 34.1529 19.8248 32.6621 13.2834 31.0989C12.6521 30.9471 12.8533 30.2294 13.4776 30.3777C20.019 31.9409 26.5813 33.4317 33.1297 34.9707C33.7609 35.1191 33.5598 35.8403 32.9355 35.6919Z" fill="#4D6651" fill-opacity="0.7"/>
<path d="M35.0997 33.1866C32.4568 32.5378 29.8034 31.9202 27.1535 31.299C26.1512 31.0644 26.3419 30.4087 27.3304 30.6399C29.9803 31.2611 32.6336 31.8788 35.2766 32.5275C36.2755 32.7725 36.0882 33.4281 35.0997 33.1866Z" fill="#4D6651" fill-opacity="0.7"/>
<path d="M25.0447 30.8953C22.6133 30.3225 20.1924 29.6979 17.7541 29.1423C16.9355 28.956 17.1332 28.2624 17.9414 28.4487C20.3797 29.0043 22.7971 29.6289 25.232 30.2017C26.0471 30.395 25.8528 31.0851 25.0447 30.8953Z" fill="#4D6651" fill-opacity="0.7"/>
<path d="M36.886 31.3439C31.2983 30.0257 25.7038 28.6834 20.078 27.5274C19.2282 27.3514 19.5022 26.3921 20.3381 26.5646C25.9639 27.7206 31.5585 29.063 37.1461 30.3811C37.9889 30.5813 37.7219 31.5406 36.886 31.3439Z" fill="#4D6651" fill-opacity="0.7"/>
<path d="M31.555 23.5141C34.0592 24.1076 36.546 24.784 39.0676 25.3085C40.0145 25.5052 39.7821 26.3023 38.8525 26.1056C36.331 25.5811 33.8476 24.9048 31.3399 24.3112C30.4 24.0904 30.6254 23.2933 31.555 23.5141Z" fill="#4D6651" fill-opacity="0.7"/>
<path d="M20.9727 21.0814C23.737 21.7577 26.5083 22.4065 29.2796 23.0587C30.4797 23.3416 30.2542 24.1284 29.068 23.8489C26.2967 23.2001 23.5255 22.5514 20.7611 21.8716C19.5645 21.5783 19.7865 20.7915 20.9727 21.0814Z" fill="#4D6651" fill-opacity="0.7"/>
<path d="M40.5484 21.1264C33.9689 19.5149 27.2921 18.2657 20.7368 16.561C19.9009 16.3436 20.1645 15.3843 20.9969 15.5983C27.5557 17.2995 34.229 18.5487 40.8086 20.1636C41.6479 20.3707 41.3843 21.33 40.5484 21.1264Z" fill="#4D6651" fill-opacity="0.7"/>
<path d="M42.2827 16.233C38.9322 15.4117 35.5713 14.6215 32.2104 13.8347C31.0103 13.5517 31.2358 12.765 32.422 13.0445C35.7829 13.8313 39.1438 14.6215 42.4943 15.4427C43.6909 15.7361 43.4689 16.5228 42.2827 16.233Z" fill="#4D6651" fill-opacity="0.7"/>
<path d="M30.0081 13.4034C27.0842 12.7098 24.1881 11.9196 21.2434 11.3054C20.2965 11.1087 20.5289 10.3116 21.4584 10.5083C24.3996 11.1225 27.2992 11.9127 30.2231 12.6063C31.1631 12.8272 30.9376 13.6243 30.0081 13.4034Z" fill="#4D6651" fill-opacity="0.7"/>
<path d="M44.0413 11.2122C36.553 9.37638 29.0022 7.66136 21.441 6.14303C20.5913 5.97394 20.8653 5.01463 21.7012 5.18027C29.2623 6.69515 36.8131 8.41362 44.3014 10.2494C45.1408 10.4565 44.8772 11.4158 44.0413 11.2122Z" fill="#4D6651" fill-opacity="0.7"/>
</svg>
