<svg width="60" height="63" viewBox="0 0 60 63" fill="none" xmlns="http://www.w3.org/2000/svg">
<path fill-rule="evenodd" clip-rule="evenodd" d="M27.1021 23.3432C27.562 18.93 28.2432 14.8866 28.904 10.3977C28.904 10.0658 28.5314 9.68158 28.2607 9.9756C27.6144 14.479 26.9303 19.2765 26.2288 23.777C26.5024 23.5965 26.7935 23.4509 27.1021 23.3403V23.3432Z" fill="#4D6651" fill-opacity="0.7"/>
<path fill-rule="evenodd" clip-rule="evenodd" d="M25.8329 26.4057C25.6815 27.378 25.5273 28.3532 25.3759 29.3255C25.6903 29.244 26.0076 29.1741 26.3278 29.1159C26.4617 28.3998 26.8285 26.1088 26.8693 25.6692C26.4821 25.838 26.1211 26.0913 25.8329 26.4057Z" fill="#4D6651" fill-opacity="0.7"/>
<path fill-rule="evenodd" clip-rule="evenodd" d="M23.4196 42.5273C23.3236 43.2289 23.2275 43.9334 23.1343 44.6379C23.4313 44.5622 23.734 44.5098 24.0397 44.4778C24.1008 44.0003 24.1648 43.52 24.226 43.0397C24.1328 42.9931 23.6176 42.5856 23.4167 42.5273H23.4196Z" fill="#4D6651" fill-opacity="0.7"/>
<path fill-rule="evenodd" clip-rule="evenodd" d="M22.3367 51.1147C22.2669 51.7115 22.197 52.3083 22.13 52.905C21.8943 55.0883 21.6381 57.3444 21.2596 59.4899C21.3936 59.7752 21.8215 59.9323 22.0253 59.5161C22.4153 57.9878 22.7996 53.723 23.0761 51.7552C23.0761 51.7435 23.0791 51.7319 23.082 51.7202C22.8171 51.5368 22.5725 51.3331 22.3367 51.1118V51.1147Z" fill="#4D6651" fill-opacity="0.7"/>
<path fill-rule="evenodd" clip-rule="evenodd" d="M34.6825 8.37466C34.2633 8.13013 33.8877 8.57261 34.0129 8.95979C36.8337 15.2535 39.2994 19.6143 42.094 26.269C46.7838 34.746 51.1911 44.9668 55.351 53.7786C56.7047 56.6489 58.8298 64.1391 60 62.2119C52.21 43.0513 43.3895 26.6445 34.6854 8.37757L34.6825 8.37466Z" fill="#4D6651" fill-opacity="0.7"/>
<path fill-rule="evenodd" clip-rule="evenodd" d="M26.907 7.32929C27.332 7.0935 27.8211 7.76886 27.6901 8.15312C24.5694 14.5109 21.4517 19.8149 18.5406 26.4172C13.6995 34.8098 9.10872 44.949 4.79743 53.6851C3.39139 56.5321 1.13532 63.9816 0 62.0341C8.13061 43.0132 17.8827 25.442 26.9128 7.32929H26.907Z" fill="#4D6651" fill-opacity="0.7"/>
<path fill-rule="evenodd" clip-rule="evenodd" d="M29.6405 57.3973C27.6406 58.9052 25.1779 61.3272 24.4472 60.4888C23.7747 59.7174 26.3685 57.7088 27.4223 56.1805C27.5853 55.9301 27.5009 55.6536 27.2622 55.6536C26.0133 57.0538 23.7107 58.1105 23.2915 59.8601C23.1517 60.4452 23.0324 61.3884 23.6175 61.7144C24.2958 62.0928 25.1575 61.6096 25.7892 61.3331C27.5707 60.5442 28.6828 59.0857 29.8647 57.6971C29.9404 57.5108 29.7046 57.4206 29.6434 57.3973H29.6405Z" fill="#4D6651" fill-opacity="0.7"/>
<path fill-rule="evenodd" clip-rule="evenodd" d="M37.8585 59.8629C37.4247 58.058 34.9852 56.9896 33.7684 55.5225C33.6723 55.5778 33.5966 55.6622 33.5763 55.7554C33.5646 55.8078 33.5588 55.8601 33.5559 55.9155C34.4583 57.4671 37.4131 59.6707 36.6999 60.4887C35.9896 61.3009 33.6491 59.039 31.6812 57.5282C31.5764 57.4962 31.4716 57.4933 31.3959 57.5748C31.3551 57.6213 31.3318 57.6767 31.3202 57.7349C32.4904 59.1118 33.5966 60.5528 35.3608 61.3329C35.9925 61.6124 36.8541 62.0927 37.5324 61.7143C38.1175 61.3883 37.9982 60.4451 37.8585 59.8599V59.8629Z" fill="#4D6651" fill-opacity="0.7"/>
<path d="M31.3376 56.7712C31.1717 56.7712 31.0087 56.7014 30.8923 56.5645C30.6856 56.32 30.7147 55.9532 30.9592 55.7436C33.2065 53.8369 38.7143 48.8735 40.8073 46.6232C38.8686 46.4369 34.6708 46.2419 31.5269 46.2157C31.2066 46.2157 30.9476 45.9508 30.9505 45.6277C30.9505 45.3074 31.2125 45.0513 31.5327 45.0513H31.5385C34.9677 45.0804 41.0461 45.3453 42.094 45.6364C42.2774 45.6888 42.4259 45.8256 42.487 46.0061C42.5511 46.1866 42.5191 46.3874 42.4084 46.5417C41.1217 48.3029 33.9576 54.7306 31.7132 56.6344C31.6026 56.7276 31.4686 56.7712 31.3376 56.7712Z" fill="#4D6651" fill-opacity="0.7"/>
<path d="M29.8559 56.8088C29.722 56.8088 29.591 56.7652 29.4804 56.672C27.3117 54.8439 20.0515 48.3376 18.7386 46.5415C18.625 46.3872 18.5959 46.1863 18.66 46.0059C18.724 45.8254 18.8696 45.6886 19.053 45.6362C20.0456 45.3596 26.3335 45.086 29.9083 45.051H29.9142C30.2344 45.051 30.4935 45.3072 30.4964 45.6274C30.4993 45.9476 30.2402 46.2125 29.92 46.2155C26.645 46.2475 22.3134 46.4425 20.3397 46.6259C22.4589 48.9111 28.0511 53.9414 30.2285 55.7812C30.4731 55.9879 30.5051 56.3547 30.2984 56.6021C30.182 56.739 30.019 56.8088 29.853 56.8088H29.8559Z" fill="#4D6651" fill-opacity="0.7"/>
<path d="M23.9523 48.7339C25.8939 50.5563 27.9695 52.4485 30.2227 53.8778C30.4236 54.0059 30.7729 53.8953 30.9476 53.7643C33.1367 52.1224 35.288 50.3292 37.2762 48.4487C37.4945 48.242 36.6678 48.3148 36.5019 48.472C34.5515 50.3176 32.4351 52.0729 30.2867 53.6857C30.5284 53.6478 30.77 53.61 31.0116 53.5722C28.7555 52.1428 26.6828 50.2535 24.7412 48.4283C24.5549 48.2536 23.7718 48.568 23.9523 48.7369V48.7339Z" fill="#4D6651" fill-opacity="0.7"/>
<path d="M22.1474 48.0177C25.0439 48.0177 27.9434 48.009 30.8399 48.0032C33.1542 47.9974 35.5209 48.1313 37.8294 47.9624C38.2573 47.9304 39.6779 47.2259 38.5658 47.3045C38.8802 47.2813 38.1554 47.3045 38.0448 47.3045C37.5382 47.3075 37.0288 47.3104 36.5223 47.3133C34.994 47.3191 33.4657 47.3249 31.9374 47.3278C29.0408 47.3366 26.1414 47.3424 23.2449 47.3424C22.9043 47.3424 21.3265 48.0119 22.1445 48.0119L22.1474 48.0177Z" fill="#4D6651" fill-opacity="0.7"/>
<path d="M28.4294 36.7634C28.6099 37.8027 28.6827 38.8565 28.8108 39.9045C28.8224 39.9947 29.2474 39.9074 29.2329 39.7909C29.1048 38.743 29.032 37.6892 28.8515 36.6499C28.8341 36.5568 28.409 36.6499 28.4294 36.7634Z" fill="#4D6651" fill-opacity="0.7"/>
<path d="M27.0962 38.5304C27.1719 39.2261 27.2504 39.9219 27.3028 40.6205C27.3116 40.7486 27.7366 40.6613 27.7249 40.507C27.6725 39.8083 27.5939 39.1126 27.5183 38.4168C27.5037 38.2858 27.0787 38.3761 27.0962 38.5304Z" fill="#4D6651" fill-opacity="0.7"/>
<path d="M26.8517 36.1083C26.8924 36.6294 26.9448 37.1505 27.003 37.6715C27.0147 37.7822 27.4397 37.6948 27.4252 37.558C27.3698 37.0369 27.3145 36.5188 27.2738 35.9948C27.265 35.8871 26.8429 35.9715 26.8517 36.1083Z" fill="#4D6651" fill-opacity="0.7"/>
<path d="M25.3932 36.5335C25.5707 37.7328 25.7046 38.9409 25.8124 40.149C25.8211 40.2363 26.2432 40.1548 26.2345 40.0355C26.1297 38.8274 25.9928 37.6222 25.8153 36.4199C25.8007 36.3268 25.3757 36.4199 25.3932 36.5335Z" fill="#4D6651" fill-opacity="0.7"/>
<path d="M24.0658 38.0561C24.1822 38.746 24.3016 39.4359 24.3918 40.1317C24.4093 40.2656 24.8343 40.1695 24.8139 40.0181C24.7208 39.3224 24.6043 38.6325 24.4879 37.9425C24.4646 37.8057 24.0396 37.9076 24.0658 38.0561Z" fill="#4D6651" fill-opacity="0.7"/>
<path d="M23.6845 35.6512C23.7543 36.1694 23.8387 36.6847 23.9232 37.2028C23.9435 37.3164 24.3656 37.2203 24.3453 37.0893C24.2609 36.574 24.1764 36.0559 24.1066 35.5377C24.092 35.4271 23.667 35.5173 23.6845 35.6512Z" fill="#4D6651" fill-opacity="0.7"/>
<path d="M22.6307 34.5334C25.1168 35.1593 27.6232 35.7503 30.2082 35.7386C32.77 35.727 35.9488 35.5378 38.3097 34.3995C38.7609 34.1812 38.3563 33.8144 37.9924 33.9891C35.6286 35.1273 32.409 35.2729 29.8414 35.2117C27.53 35.1564 25.2856 34.615 23.0557 34.056C22.7559 33.9803 22.1882 34.4228 22.6307 34.5334Z" fill="#4D6651" fill-opacity="0.7"/>
<path d="M22.0804 33.1304C24.3569 33.864 26.9186 34.3007 29.3057 34.3909C32.3216 34.5044 36.0419 34.225 38.787 32.883C39.4799 32.5453 38.8569 31.9805 38.298 32.2542C35.5732 33.5874 31.8325 33.7417 28.8516 33.5612C26.8371 33.4419 24.6567 33.014 22.7383 32.3968C22.2784 32.2484 21.4109 32.915 22.0833 33.1304H22.0804Z" fill="#4D6651" fill-opacity="0.7"/>
<path d="M31.3464 43.514C31.0349 43.514 30.7758 43.2666 30.7642 42.9522C30.7525 42.632 31.0029 42.3612 31.326 42.3496C32.6593 42.3001 33.9372 41.9683 34.9008 41.683C35.6111 41.4734 36.3039 41.2201 36.9589 40.929C37.5964 39.7791 37.9661 37.6715 38.1903 36.3877L38.2107 36.28C38.3591 35.4416 38.5833 34.5421 38.8831 33.6019C38.953 33.3864 39.0374 33.1768 39.1189 32.976C39.2616 32.6266 39.4391 32.1929 39.3634 32.027C39.3256 31.9425 39.18 31.8523 38.9646 31.7766L38.9093 31.7562C36.7988 31.0081 34.3069 30.6122 31.7073 30.6122H31.7015C31.3813 30.6122 31.1193 30.3531 31.1193 30.03C31.1193 29.7097 31.3813 29.4478 31.7015 29.4478H31.7073C34.4408 29.4478 37.0666 29.8669 39.2994 30.6588L39.3518 30.6762C39.8903 30.8654 40.2513 31.1595 40.426 31.5495C40.7054 32.1725 40.4347 32.8333 40.1989 33.4185C40.1232 33.6077 40.0505 33.7852 39.9952 33.9541C39.7128 34.8449 39.5003 35.6949 39.3605 36.4809L39.3402 36.5886C39.0753 38.1024 38.6735 40.3934 37.8613 41.6917C37.8002 41.7878 37.7129 41.8664 37.6081 41.9129C36.8541 42.2565 36.0536 42.5534 35.2297 42.7979C34.1992 43.1036 32.8281 43.4587 31.3667 43.514C31.3609 43.514 31.3522 43.514 31.3464 43.514Z" fill="#4D6651" fill-opacity="0.7"/>
<path d="M29.7686 43.5838C29.7686 43.5838 29.7599 43.5838 29.754 43.5838C26.8022 43.511 24.5636 42.4921 23.3613 41.9449L23.2944 41.9158C23.1896 41.8692 23.1022 41.7906 23.0411 41.6945C22.2318 40.3991 21.8301 38.1168 21.5652 36.606L21.5448 36.4837C21.4051 35.6919 21.1926 34.8419 20.9102 33.9569C20.8549 33.7851 20.7821 33.6076 20.7064 33.4213C20.4677 32.8391 20.197 32.1782 20.4794 31.5553C20.654 31.1652 21.015 30.8712 21.5536 30.6819C22.5026 30.3472 25.9289 29.2701 30.1092 29.4302C30.4294 29.4418 30.6798 29.7126 30.6681 30.0357C30.6565 30.3588 30.3828 30.6092 30.0626 30.5946C26.089 30.4403 22.8403 31.465 21.9378 31.7823C21.7224 31.858 21.5768 31.9512 21.539 32.0327C21.4633 32.2015 21.6409 32.6353 21.7835 32.9817C21.865 33.1826 21.9495 33.3892 22.0193 33.6076C22.3163 34.542 22.5433 35.4445 22.6918 36.2858L22.7122 36.408C22.9363 37.686 23.306 39.7907 23.9435 40.9347C25.0905 41.4558 27.1457 42.3611 29.7802 42.4252C30.1005 42.4339 30.3566 42.6988 30.3479 43.022C30.3392 43.3393 30.0801 43.5896 29.7657 43.5896L29.7686 43.5838Z" fill="#4D6651" fill-opacity="0.7"/>
<path d="M41.2528 30.9497C41.8321 30.6091 42.9121 30.7867 43.2323 31.398C43.4331 31.7852 43.3225 32.3791 42.9761 32.644C42.6733 32.8769 41.9863 32.6993 41.6516 32.6265C41.3954 32.5712 41.0955 32.6498 40.8627 32.7633C40.7724 32.8099 40.4726 33.0253 40.7317 33.0806C41.9922 33.3572 44.9149 33.2029 44.3938 31.1972C44.2075 30.4752 43.2556 30.3238 42.6355 30.3209C41.8583 30.3151 41.0548 30.4956 40.3823 30.8915C40.1873 31.005 40.2484 31.1506 40.4551 31.1652C40.7317 31.1855 41.017 31.0895 41.2498 30.9526L41.2528 30.9497Z" fill="#4D6651" fill-opacity="0.7"/>
<path d="M20.6075 30.7957C19.6789 30.001 17.3762 30.1232 16.6717 31.1799C16.2438 31.8204 16.5262 32.7199 17.219 33.0256C17.9876 33.3661 18.89 33.241 19.6847 33.0663C19.7924 33.043 20.2436 32.9062 20.1941 32.7228C20.1447 32.5336 19.6876 32.6558 19.5799 32.682C18.6367 32.8887 17.4344 32.5685 17.6149 31.3721C17.7518 30.4725 19.0705 30.7811 19.5508 31.1916C19.7924 31.3983 20.8055 30.9674 20.6075 30.7986V30.7957Z" fill="#4D6651" fill-opacity="0.7"/>
<path d="M31.5763 24.0012C34.5835 24.6853 36.5543 27.3577 37.9545 29.9136C38.1175 30.2105 39.1859 29.8059 39.0782 29.6109C37.6285 26.9647 35.5965 24.2487 32.4933 23.5442C32.2197 23.4801 31.227 23.9197 31.5735 23.9983L31.5763 24.0012Z" fill="#4D6651" fill-opacity="0.7"/>
<path d="M23.2652 29.2528C24.5985 27.0258 26.0861 24.8047 28.7497 24.1177C29.6084 23.8964 29.4716 23.3957 28.6158 23.617C25.3612 24.4583 23.4806 26.7231 21.8213 29.5002C21.6903 29.7215 23.0411 29.6312 23.2681 29.2557L23.2652 29.2528Z" fill="#4D6651" fill-opacity="0.7"/>
<path d="M30.4526 21.5005C28.9418 21.7043 29.5793 24.5164 30.3944 25.0636C31.4337 24.7434 31.8761 21.7363 30.4526 21.5005Z" fill="#4D6651" fill-opacity="0.7"/>
<path fill-rule="evenodd" clip-rule="evenodd" d="M30.8922 5.67881C30.8165 5.58275 30.7263 5.51579 30.6273 5.46921C30.2867 5.32948 30.2547 5.8331 30.4439 5.94663C30.7758 6.23192 30.9242 6.92184 30.8922 7.48076C30.8573 8.15322 30.6651 8.44433 30.4002 8.49964C30.0771 8.35699 29.7627 7.78643 29.7278 7.02664C29.6987 6.44151 29.8151 6.18534 30.016 5.99321C30.2314 5.77779 30.1208 5.28873 29.7947 5.46631C29.623 5.5944 29.492 5.83601 29.4134 6.09801C29.1106 7.06739 29.3581 8.27839 30.144 8.87225C30.4381 9.09349 30.7874 8.87808 30.8864 8.74999C31.4919 7.96109 31.5181 6.47936 30.8922 5.68464V5.67881Z" fill="#4D6651" fill-opacity="0.7"/>
<path fill-rule="evenodd" clip-rule="evenodd" d="M29.7539 9.62632C29.8296 9.53026 29.9198 9.4633 30.0188 9.41672C30.3594 9.27699 30.3914 9.78061 30.2022 9.89414C29.8704 10.1794 29.7219 10.8693 29.7539 11.4283C29.7889 12.1007 29.981 12.3918 30.2459 12.4471C30.569 12.3045 30.8834 11.7339 30.9184 10.9741C30.9475 10.389 30.831 10.1329 30.6301 9.94072C30.4147 9.7253 30.5253 9.23624 30.8514 9.41382C31.0231 9.54191 31.1541 9.78352 31.2327 10.0455C31.5355 11.0149 31.288 12.2259 30.5021 12.8198C30.208 13.041 29.8587 12.8256 29.7597 12.6975C29.1542 11.9086 29.128 10.4269 29.7539 9.63215V9.62632Z" fill="#4D6651" fill-opacity="0.7"/>
<path fill-rule="evenodd" clip-rule="evenodd" d="M30.8922 13.7396C30.8165 13.6435 30.7262 13.5766 30.6273 13.53C30.2867 13.3903 30.2546 13.8939 30.4439 14.0074C30.7757 14.2927 30.9242 14.9826 30.8922 15.5416C30.8572 16.214 30.6651 16.5051 30.4002 16.5604C30.0771 16.4178 29.7627 15.8472 29.7277 15.0874C29.6986 14.5023 29.8151 14.2461 30.0159 14.054C30.2313 13.8386 30.1207 13.3495 29.7947 13.5271C29.6229 13.6552 29.4919 13.8968 29.4133 14.1588C29.1106 15.1282 29.358 16.3392 30.144 16.933C30.438 17.1543 30.7874 16.9389 30.8863 16.8108C31.4918 16.0219 31.518 14.5402 30.8922 13.7454V13.7396Z" fill="#4D6651" fill-opacity="0.7"/>
<path fill-rule="evenodd" clip-rule="evenodd" d="M29.7539 17.8356C29.8296 17.7395 29.9198 17.6725 30.0188 17.626C30.3594 17.4862 30.3914 17.9898 30.2022 18.1034C29.8704 18.3887 29.7219 19.0786 29.7539 19.6375C29.7889 20.31 29.981 20.6011 30.2459 20.6564C30.569 20.5137 30.8834 19.9432 30.9184 19.1834C30.9475 18.5983 30.831 18.3421 30.6301 18.15C30.4147 17.9345 30.5253 17.4455 30.8514 17.623C31.0231 17.7511 31.1541 17.9928 31.2327 18.2548C31.5355 19.2241 31.288 20.4351 30.5021 21.029C30.208 21.2502 29.8587 21.0348 29.7597 20.9067C29.1542 20.1178 29.128 18.6361 29.7539 17.8414V17.8356Z" fill="#4D6651" fill-opacity="0.7"/>
<path d="M31.8122 6.66588C31.6841 6.66588 31.5618 6.59893 31.4949 6.48249C31.3959 6.30782 31.457 6.08658 31.6317 5.9876C32.1091 5.71687 32.3973 5.48399 32.4526 5.08226C32.5516 4.40981 32.112 3.77229 31.4075 3.5656C30.5167 3.3036 29.3261 3.28613 28.8138 3.86253C28.4877 4.22932 28.0365 5.37919 27.8269 6.37478C27.7862 6.57273 27.5911 6.69499 27.3961 6.65715C27.1981 6.6164 27.073 6.42135 27.1137 6.22631C27.3204 5.24237 27.7949 3.91201 28.2694 3.37929C29.0466 2.50597 30.5546 2.55837 31.6113 2.86985C32.6651 3.17842 33.323 4.15363 33.1716 5.18997C33.0668 5.92356 32.5399 6.31364 31.9868 6.62512C31.9315 6.65715 31.8675 6.6717 31.8093 6.6717L31.8122 6.66588Z" fill="#4D6651" fill-opacity="0.7"/>
<path d="M32.3885 8.8054C32.3041 8.8054 32.2197 8.77629 32.1527 8.71807C31.7306 8.36001 31.4221 7.82437 31.2852 7.47504C31.2125 7.28874 31.3027 7.07623 31.4919 7.00345C31.6782 6.93068 31.8907 7.02092 31.9635 7.21014C32.0508 7.43138 32.2255 7.73412 32.438 7.97865C34.2458 6.74727 35.2035 4.70079 34.5806 3.31221C34.4991 3.12882 34.5806 2.9134 34.764 2.83189C34.9474 2.75038 35.1628 2.83189 35.2443 3.01529C36.0507 4.81724 34.8804 7.33822 32.5807 8.753C32.5224 8.78793 32.4555 8.80831 32.3885 8.80831V8.8054Z" fill="#4D6651" fill-opacity="0.7"/>
<path d="M27.4717 6.66006C27.3873 6.66006 27.3058 6.63096 27.2359 6.57274C26.3859 5.85079 26.2898 3.0911 27.0758 1.96161C27.6697 1.11157 28.8778 0.541008 30.3129 0.43621C31.9839 0.313945 33.5471 0.846663 34.499 1.8568C34.6359 2.00236 34.63 2.23234 34.4816 2.37207C34.336 2.50889 34.1031 2.50307 33.9663 2.3546C33.1628 1.50166 31.8179 1.05626 30.3624 1.16106C29.163 1.24839 28.1296 1.71416 27.6697 2.37789C27.0409 3.28032 27.2359 5.62082 27.7046 6.01672C27.8589 6.14772 27.8764 6.3777 27.7454 6.52907C27.6726 6.61349 27.5707 6.65716 27.4688 6.65716L27.4717 6.66006Z" fill="#4D6651" fill-opacity="0.7"/>
<path fill-rule="evenodd" clip-rule="evenodd" d="M38.9909 43.1677C39.1568 45.2841 39.1743 47.1122 40.6298 47.9826C40.6706 51.5079 48.4431 61.1057 47.7706 61.6326C47.0982 62.1566 42.9325 56.2646 40.6065 52.6433C39.7215 51.2634 39.0753 49.9942 39.3897 48.2941C38.2398 47.9768 37.9167 46.6086 37.643 45.3015C37.512 44.4224 37.611 43.5258 38.9909 43.1706V43.1677Z" fill="#4D6651" fill-opacity="0.7"/>
<path fill-rule="evenodd" clip-rule="evenodd" d="M39.1364 43.1676C39.9399 42.4573 42.094 44.2098 42.4579 45.5838C42.6093 46.1631 42.1348 46.8559 41.605 46.9782C41.5963 45.4062 39.8758 44.0118 39.1393 43.1676H39.1364Z" fill="#4D6651" fill-opacity="0.7"/>
<path fill-rule="evenodd" clip-rule="evenodd" d="M41.5555 47.2517C42.0387 46.9256 42.6704 46.8499 43.0663 47.2517C44.5975 48.7975 46.644 54.1247 47.9191 57.5336C48.3616 58.7125 49.1155 60.7998 48.8855 60.8988C48.6556 61.0006 47.5232 58.8727 46.9526 57.7635C45.203 54.3721 43.4884 48.8761 41.5555 47.2488V47.2517Z" fill="#4D6651" fill-opacity="0.7"/>
</svg>
