<svg width="50" height="43" viewBox="0 0 50 43" fill="none" xmlns="http://www.w3.org/2000/svg">
<path d="M5.94029 10.4606C6.23041 9.76563 6.61473 9.15866 7.15633 8.85323C7.3788 8.58743 7.61422 8.35606 7.86193 8.16222C7.85816 8.16471 7.85122 8.16663 7.84685 8.17222C10.9971 5.13964 15.4548 8.55303 20.1461 7.7774C20.4663 7.64833 20.7274 7.46979 21.0383 7.2045C20.8935 7.40798 20.7514 7.61515 20.6118 7.82599C20.0826 8.6204 19.5339 9.71532 18.6106 10.1287C18.5506 10.1175 18.4937 10.1069 18.4336 10.0957C17.6077 9.94457 18.3659 10.7426 18.7959 10.8229C22.9258 11.5753 27.1165 13.0882 30.2364 15.9187C30.5591 16.2127 31.659 16.3029 31.0437 15.7461C27.8652 12.8631 23.6479 11.1851 19.4303 10.2947C19.9555 9.92217 20.3365 9.36581 20.6912 8.84297C21.4431 7.73157 22.1562 6.60014 23.1591 5.67971C23.275 5.57329 23.1462 5.42757 22.982 5.34566C23.7172 4.80427 24.7293 4.28898 26.0909 4.11434C30.1933 3.58409 34.869 7.30714 34.6009 10.9198C34.633 10.9898 34.6626 11.0562 34.6954 11.1232C34.7906 11.3234 35.2697 11.7555 35.5147 11.9774C34.1578 11.8936 32.9138 13.4093 33.1119 14.7078C33.3756 16.4411 34.9412 17.518 36.5122 18.1989C37.9114 18.8029 40.5629 19.5897 41.4771 17.9003C41.8574 17.1965 41.8762 16.4476 41.7115 15.7157C41.6785 15.6999 41.6481 15.6878 41.6177 15.6757C44.0333 16.6297 46.0774 18.2251 46.4598 20.9763C46.5534 21.6533 46.4049 22.8134 46.0376 24.2208C44.9653 30.5679 41.3156 38.2105 35.4357 38.3446C34.8625 38.4264 34.2799 38.4392 33.6881 38.4151C30.2144 38.7811 24.4142 37.4701 21.3048 36.3097C21.3112 36.3109 21.3219 36.3065 21.3282 36.3077C21.0923 36.2572 20.8715 36.2127 20.6609 36.167C20.2041 36.2065 19.749 36.2207 19.2919 36.2122C20.0324 35.8447 21.7653 34.9454 22.3868 34.3155C25.885 30.778 26.9689 23.8023 25.4387 21.0383C23.6321 17.7776 20.373 15.2894 16.5882 15.0177C13.7119 14.8101 10.5772 16.424 8.30673 18.3115C6.22826 21.3105 4.73083 26.1631 6.65165 30.7322C6.13797 30.7611 5.30442 30.2307 4.96081 29.9937C4.08185 29.394 3.62419 28.0823 3.52763 27.3535C2.82272 22.1151 3.52459 15.132 5.93534 10.4693L5.94029 10.4606ZM6.80258 12.2002C6.94841 12.7109 7.83122 13.3912 8.80551 12.8177C9.5731 12.3624 9.92948 11.0778 9.13836 10.4146C8.56921 9.94004 7.49641 10.1462 7.08971 10.8675C6.9255 11.1538 6.6593 11.6931 6.80512 12.2038L6.80258 12.2002ZM16.758 10.6855C15.6551 11.4304 13.4914 10.3954 12.4083 9.91768C10.9905 9.29102 9.54048 8.79599 8.01511 8.50141C7.19107 8.34105 7.9399 9.1533 8.37247 9.23732C10.5511 9.66036 12.4263 10.7631 14.5487 11.3229C15.546 11.5861 16.8734 11.9877 17.8062 11.3584C18.169 11.1124 17.1008 10.4582 16.7574 10.6886L16.758 10.6855ZM30.1052 18.3467C28.8125 16.6292 27.2928 14.9333 25.022 14.5955C25.022 14.5955 23.7815 14.5366 24.5699 14.9464C29.3668 17.4307 31.4721 21.8613 30.0268 27.0502C29.9472 27.3395 30.9317 27.9525 30.9826 27.7763C31.8192 24.7757 32.05 20.9352 30.1052 18.3467ZM27.616 25.3352C28.2182 25.39 28.8366 25.3615 29.437 25.2752C29.6192 25.2484 29.1494 24.9525 29.0145 24.9721C28.4514 25.0526 27.8639 25.0901 27.294 25.0381C27.0046 25.0096 27.4909 25.3214 27.616 25.3352ZM27.5512 26.9719C28.1759 26.8613 28.7829 26.6738 29.4089 26.557C29.511 26.5376 29.2842 26.3736 29.2721 26.3681C29.1693 26.3073 29.0368 26.2474 28.9146 26.2693C28.3157 26.3816 27.7327 26.564 27.1319 26.6695C26.9485 26.7024 27.4188 26.9952 27.5543 26.9725L27.5512 26.9719ZM20.4176 9.68832C20.2293 9.74599 20.7204 10.0331 20.8706 10.0195C23.6463 9.75364 26.0751 11.2256 28.18 12.829C28.3141 12.9309 28.8762 12.9559 28.5933 12.6597C26.2545 10.2089 23.1188 8.84827 20.4144 9.68772L20.4176 9.68832ZM31.3573 6.86239C30.8396 8.83716 25.9141 6.08876 24.7893 5.60647C24.0909 5.30632 23.822 5.82597 24.5292 6.13099C25.8169 6.68533 31.8395 9.99087 32.5149 7.41163C32.628 6.98452 31.4484 6.51441 31.3573 6.86239ZM32.4683 13.7935C30.8856 12.2684 29.749 10.4904 29.0619 8.86041C28.9613 8.62071 28.3749 8.48554 28.468 8.8135C29.0701 10.911 30.3189 13.0366 32.2834 14.1688C32.6279 14.3676 32.7465 14.0632 32.4683 13.7935ZM36.1278 36.7514C37.7625 35.5168 38.9464 33.6216 39.7945 31.8175C41.4561 28.2859 42.7091 24.0792 41.9059 20.18C41.8274 19.7939 40.6531 19.4304 40.7256 19.7801C41.5104 23.5895 40.3429 27.8281 38.6369 31.2682C37.7656 33.0232 36.6855 34.8738 35.0741 36.0903C34.7429 36.3422 35.821 36.979 36.1284 36.7483L36.1278 36.7514ZM35.7993 29.038C37.1601 25.9048 35.7926 21.8073 32.2132 20.9721C31.5894 20.8267 31.6199 21.5752 32.112 21.6896C35.2214 22.4146 36.0446 26.0614 34.9296 28.6257C34.7686 28.9959 35.6402 29.3989 35.7993 29.038ZM33.0234 27.2963C32.638 28.3609 32.0804 28.8651 31.0012 29.2045C30.7179 29.2957 31.2279 29.6535 31.4275 29.5883C32.8669 29.1337 33.6594 28.4173 33.9605 26.9463C34.1949 25.7991 33.4857 24.4499 32.5063 23.8443C32.2492 23.6842 31.8115 23.961 32.1459 24.2284C33.083 24.983 33.4322 26.1624 33.0209 27.2926L33.0234 27.2963ZM22.7395 35.5276C22.0847 35.7414 23.0438 36.5513 23.5512 36.3868C25.9808 35.5953 28.0587 33.7711 29.4499 31.6201C29.5763 31.7782 29.8945 31.9945 30.0518 32.0111C31.8965 32.2149 34.2599 31.5102 35.234 29.8833C35.3846 29.6328 34.5286 29.2008 34.3642 29.471C33.463 30.9771 31.2791 31.6353 29.5722 31.4477C29.5659 31.4465 29.5627 31.4459 29.5596 31.4453C29.9606 30.8031 30.304 30.1372 30.5715 29.4572C30.7853 28.9177 29.6216 28.3833 29.414 28.908C28.2627 31.8082 25.8201 34.5247 22.7433 35.5251L22.7395 35.5276ZM26.2826 20.7958C26.7883 20.7238 27.2705 20.5545 27.7729 20.4659C27.9261 20.4369 27.8419 20.2643 27.7757 20.2007C27.6624 20.093 27.5054 20.0413 27.3522 20.0703C26.8901 20.1537 26.4495 20.3115 25.9842 20.3782C25.6096 20.4331 26.0569 20.8272 26.2826 20.7958ZM25.5119 19.4255C26.1082 19.2424 26.717 19.1128 27.3081 18.9063C27.5863 18.8078 27.0706 18.4617 26.878 18.5249C26.2907 18.729 25.6782 18.8611 25.0818 19.0442C24.8029 19.1298 25.3173 19.482 25.5119 19.4255ZM24.3485 17.9019C25.001 17.7997 25.659 17.7369 26.3116 17.6347C26.5379 17.6001 26.0305 17.262 25.8647 17.2887C25.2122 17.3909 24.5542 17.4537 23.9016 17.5559C23.6753 17.5904 24.1826 17.9285 24.3485 17.9019ZM23.0091 16.6239C23.6235 16.5658 24.211 16.3778 24.8215 16.3062C24.976 16.287 24.871 16.1201 24.8087 16.07C24.6936 15.9717 24.541 15.9144 24.387 15.9304C23.8137 15.9962 23.2654 16.1851 22.6913 16.238C22.3311 16.2699 22.8085 16.6441 23.0053 16.6264L23.0091 16.6239ZM11.2983 15.5534C14.8597 13.3501 19.5831 12.9294 23.5286 14.4222C24.3496 14.7324 23.9698 13.7426 23.4668 13.5493C21.1903 12.6886 18.7226 12.5029 16.2899 12.8584C14.4947 13.1218 13.035 13.7808 11.5844 14.6111C12.1442 13.7776 12.6167 12.8542 12.9908 11.9475C13.1293 11.6084 12.2565 11.2116 12.1211 11.5353C11.6541 12.6647 11.0441 13.8218 10.2961 14.7963C10.1906 14.9334 10.2565 15.2499 10.4044 15.4152C10.5523 15.5805 11.0032 15.7384 11.3021 15.5509L11.2983 15.5534ZM9.98863 15.5969C10.6043 15.6831 9.55601 14.9942 9.29432 14.9581C8.12679 14.7944 6.9678 14.3025 6.19116 13.4146C6.00113 13.1966 5.71136 13.0528 5.43163 12.975C5.34114 12.9517 4.91202 12.9003 5.10204 13.1183C6.30145 14.4918 8.17696 15.3417 9.98923 15.5938L9.98863 15.5969Z" fill="#4D6651" fill-opacity="0.7"/>
<path d="M38.4331 12.9236C37.8765 12.6947 37.2721 12.5406 36.6627 12.6079C36.4249 12.6346 36.1671 12.532 36.0497 12.3169C35.9488 12.1339 36.0403 11.9061 36.268 11.8807C37.1279 11.7891 37.9501 11.9835 38.7399 12.3073C39.2934 12.5356 38.9803 13.1508 38.4331 12.9236Z" fill="#4D6651" fill-opacity="0.7"/>
<path d="M40.4792 15.158C40.4432 14.5735 40.0891 14.0615 39.6606 13.6769C39.5195 13.5511 39.3624 13.3261 39.5468 13.155C39.7111 13.0026 40.03 13.0554 40.1851 13.1934C40.8461 13.785 41.3345 14.4889 41.3921 15.3887C41.4065 15.6257 41.0627 15.6645 40.901 15.6248C40.6682 15.5655 40.4905 15.3944 40.4761 15.1574L40.4792 15.158Z" fill="#4D6651" fill-opacity="0.7"/>
<path d="M37.3562 16.1005C38.1897 16.5161 39.164 16.5391 39.9766 16.0459C40.2972 15.851 41.3339 16.5103 41.0322 16.6926C39.8392 17.418 38.3139 17.1381 37.1354 16.5491C37.0103 16.4872 36.5648 16.2596 36.6689 16.0503C36.7718 15.8472 37.2349 16.0362 37.3594 16.1011L37.3562 16.1005Z" fill="#4D6651" fill-opacity="0.7"/>
<path d="M35.576 13.437C35.6104 14.1431 35.7486 14.8364 36.2416 15.371C36.4048 15.5491 36.331 15.7054 36.0833 15.6883C35.7941 15.6666 35.4662 15.5125 35.2701 15.3027C34.6813 14.6604 34.4455 13.8847 34.405 13.0298C34.3865 12.6669 35.5568 13.0772 35.5728 13.4364L35.576 13.437Z" fill="#4D6651" fill-opacity="0.7"/>
<path d="M14.1992 15.8746C10.761 16.8631 7.91251 18.7969 6.80541 22.2891C6.57971 22.9957 4.84729 22.2359 5.08814 21.4711C6.25575 17.7942 9.3632 15.6901 12.9769 14.654C13.6605 14.4568 15.1203 15.6124 14.1986 15.8777L14.1992 15.8746Z" fill="#4D6651" fill-opacity="0.7"/>
<path d="M15.5615 14.1827C19.1007 14.067 22.78 16.068 24.8319 18.7839C25.4958 19.665 23.6711 19.4561 23.2564 18.9083C21.7758 16.9499 19.008 15.3856 16.4271 15.469C15.726 15.4908 14.4355 14.2194 15.5577 14.1852L15.5615 14.1827Z" fill="#4D6651" fill-opacity="0.7"/>
<path d="M26.3334 21.1346C28.1672 24.9841 27.4012 29.996 24.767 33.3618C22.2543 36.5769 18.085 37.6328 14.2021 37.0142C13.474 36.8976 12.5015 35.6112 13.7348 35.8093C17.5896 36.4226 21.2848 35.0534 23.5826 31.8433C25.7632 28.7943 26.2122 24.2242 24.6261 20.8931C24.2541 20.1106 26.0666 20.5677 26.3366 21.1352L26.3334 21.1346Z" fill="#4D6651" fill-opacity="0.7"/>
<path d="M6.43112 24.6039C5.71366 28.7179 7.3263 33.1922 11.1806 35.1861C12.1618 35.6935 11.8845 36.2716 10.8945 35.7593C6.35293 33.4093 3.82566 28.8962 4.71428 23.7859C4.77005 23.4654 6.52433 24.0526 6.43112 24.6039Z" fill="#4D6651" fill-opacity="0.7"/>
<path d="M9.65842 20.4427C10.5397 19.1237 12.3544 18.1772 13.5674 18.0016C15.3046 17.7501 18.564 18.0097 20.4326 19.5256C21.1842 20.1372 21.9826 21.0689 22.4564 21.9594C23.6857 24.2712 23.533 26.8203 21.6714 30.3258C20.8216 31.9268 18.7786 33.8482 16.4136 33.7326C11.3429 33.4925 8.12808 30.9462 7.78637 27.0726C7.59416 24.8927 7.89579 23.0807 9.66157 20.4433L9.65842 20.4427ZM15.2094 29.6697C16.4018 29.7599 17.2019 28.6665 17.1022 27.5213C17.0452 26.8623 16.7162 26.5508 15.8822 26.1549C16.5147 25.1491 16.7574 23.1753 15.4197 22.4932C14.7215 22.1354 13.5754 21.9287 12.8078 22.6975C11.4324 24.0723 11.6948 25.9025 13.666 26.9561C13.0928 28.5442 14.0373 29.5769 15.2101 29.6666L15.2094 29.6697ZM17.2808 31.525C16.973 31.6443 17.465 32.0215 17.6911 31.9352C20.1088 31.0078 22.0092 27.6507 21.6337 25.0997C21.2397 22.4297 19.0836 20.1349 16.3621 19.7154C15.9476 19.6512 16.2341 20.1089 16.5027 20.1524C19.0029 20.5372 21.3712 23.2213 21.0199 25.7848C20.7068 28.0601 19.6036 30.6314 17.2814 31.5219L17.2808 31.525ZM9.20822 26.9294C9.6379 30.2833 12.908 33.0421 16.4728 32.251C16.7185 32.1972 16.2096 31.8554 16.0355 31.8937C11.689 32.8571 8.95522 28.3364 9.94107 24.5781C10.4953 22.4664 12.5531 19.9507 15.0265 19.9324C15.3698 19.9289 14.8779 19.5678 14.7043 19.5708C11.0313 19.6003 8.80675 23.7926 9.2076 26.9325L9.20822 26.9294Z" fill="#4D6651" fill-opacity="0.7"/>
</svg>
