<svg width="17" height="16" viewBox="0 0 17 16" fill="none" xmlns="http://www.w3.org/2000/svg">
<path d="M8.37157 0L8.32012 0.0503145L8.26867 0.100629V0.150943L8.21723 0.201258V0.251572L8.16578 0.301887V0.352201V0.402516V0.45283V0.503145V0.553459L8.11433 0.603774V0.654088V0.704403V0.754717V0.805031V0.855346V0.90566V0.955975V1.00629L8.06288 1.0566V1.10692V1.15723V1.20755V1.25786V1.30818V1.35849V1.40881L8.01144 1.45912V1.50943V1.55975V1.61006V1.66038V1.71069V1.76101V1.81132L7.95999 1.86164V1.91195V1.96226V2.01258V2.06289V2.11321V2.16352V2.21384L7.90854 2.26415V2.31447V2.36478V2.41509V2.46541V2.51572L7.8571 2.56604V2.61635V2.66667V2.71698V2.7673V2.81761V2.86792L7.80565 2.91824V2.96855V3.01887V3.06918V3.1195V3.16981L7.7542 3.22013V3.27044V3.32075V3.37107V3.42138V3.4717L7.70276 3.52201V3.57233V3.62264V3.67296V3.72327L7.65131 3.77359V3.8239V3.87421V3.92453V3.97484L7.59986 4.02516V4.07547V4.12579V4.1761V4.22642L7.54841 4.27673V4.32704V4.37736V4.42767L7.49697 4.47799V4.5283V4.57862V4.62893L7.44552 4.67924V4.72956V4.77987L7.39407 4.83019V4.8805V4.93082L7.34263 4.98113V5.03145V5.08176L7.29118 5.13208V5.18239V5.2327L7.23973 5.28302V5.33333L7.18829 5.38365V5.43396V5.48428L7.13684 5.53459V5.58491L7.08539 5.63522V5.68553L7.03395 5.73585L6.9825 5.78616V5.83648L6.93105 5.88679V5.93711L6.8796 5.98742L6.82816 6.03774L6.77671 6.08805V6.13836L6.72526 6.18868L6.67382 6.23899L6.62237 6.28931L6.57092 6.33962L6.51948 6.38994L6.46803 6.44025L6.41658 6.49057L6.36513 6.54088H6.31369L6.26224 6.5912L6.21079 6.64151L6.15935 6.69182H6.1079L6.05645 6.74214H6.00501L5.95356 6.79245H5.90211L5.85067 6.84277H5.79922L5.74777 6.89308H5.69632L5.64488 6.9434H5.59343H5.54198L5.49054 6.99371H5.43909H5.38764H5.3362L5.28475 7.04403H5.2333H5.18186L5.13041 7.09434H5.07896H5.02751H4.97607L4.92462 7.14465H4.87317H4.82173L4.77028 7.19497H4.71883H4.66739H4.61594H4.56449L4.51305 7.24528H4.4616H4.41015H4.3587H4.30726L4.25581 7.2956H4.20436H4.15292H4.10147H4.05002H3.99858L3.94713 7.34591H3.89568H3.84423H3.79279H3.74134H3.68989L3.63845 7.39623H3.587H3.53555H3.48411H3.43266H3.38121H3.32977L3.27832 7.44654H3.22687H3.17542H3.12398H3.07253H3.02108H2.96964L2.91819 7.49686H2.86674H2.8153H2.76385H2.7124H2.66095H2.60951H2.55806L2.50661 7.54717H2.45517H2.40372H2.35227H2.30083H2.24938H2.19793H2.14649H2.09504L2.04359 7.59748H1.99214H1.9407H1.88925H1.8378H1.78636H1.73491H1.68346H1.63202H1.58057H1.52912L1.47768 7.6478H1.42623H1.37478H1.32333H1.27189H1.22044H1.16899H1.11755H1.0661H1.01465L0.963206 7.69811H0.911759H0.860312H0.808865H0.757418H0.705971L0.654524 7.74843H0.603077L0.55163 7.79874L0.500183 7.84906V7.89937V7.94969V8V8.05031V8.10063V8.15094L0.55163 8.20126V8.25157H0.603077L0.654524 8.30189H0.705971H0.757418L0.808865 8.3522H0.860312H0.911759H0.963206H1.01465H1.0661L1.11755 8.40252H1.16899H1.22044H1.27189H1.32333H1.37478H1.42623H1.47768H1.52912L1.58057 8.45283H1.63202H1.68346H1.73491H1.78636H1.8378H1.88925H1.9407L1.99214 8.50315H2.04359H2.09504H2.14649H2.19793H2.24938H2.30083H2.35227L2.40372 8.55346H2.45517H2.50661H2.55806H2.60951H2.66095H2.7124L2.76385 8.60377H2.8153H2.86674H2.91819H2.96964H3.02108H3.07253L3.12398 8.65409H3.17542H3.22687H3.27832H3.32977H3.38121L3.43266 8.7044H3.48411H3.53555H3.587H3.63845H3.68989L3.74134 8.75472H3.79279H3.84423H3.89568H3.94713H3.99858L4.05002 8.80503H4.10147H4.15292H4.20436H4.25581L4.30726 8.85535H4.3587H4.41015H4.4616L4.51305 8.90566H4.56449H4.61594H4.66739L4.71883 8.95597H4.77028H4.82173H4.87317L4.92462 9.00629H4.97607H5.02751H5.07896L5.13041 9.0566H5.18186H5.2333L5.28475 9.10692H5.3362H5.38764L5.43909 9.15723H5.49054H5.54198L5.59343 9.20755H5.64488H5.69632L5.74777 9.25786H5.79922L5.85067 9.30818H5.90211L5.95356 9.35849H6.00501L6.05645 9.4088L6.1079 9.45912H6.15935L6.21079 9.50943L6.26224 9.55975L6.31369 9.61006L6.36513 9.66038H6.41658L6.46803 9.71069L6.51948 9.76101L6.57092 9.81132L6.62237 9.86164L6.67382 9.91195V9.96226L6.72526 10.0126L6.77671 10.0629L6.82816 10.1132L6.8796 10.1635V10.2138L6.93105 10.2642L6.9825 10.3145V10.3648L7.03395 10.4151V10.4654L7.08539 10.5157V10.566L7.13684 10.6164V10.6667L7.18829 10.717V10.7673L7.23973 10.8176V10.8679L7.29118 10.9182V10.9686V11.0189L7.34263 11.0692V11.1195L7.39407 11.1698V11.2201V11.2704V11.3208L7.44552 11.3711V11.4214V11.4717L7.49697 11.522V11.5723V11.6226V11.673L7.54841 11.7233V11.7736V11.8239V11.8742L7.59986 11.9245V11.9748V12.0252V12.0755L7.65131 12.1258V12.1761V12.2264V12.2767V12.327L7.70276 12.3774V12.4277V12.478V12.5283L7.7542 12.5786V12.6289V12.6792V12.7296V12.7799V12.8302V12.8805L7.80565 12.9308V12.9811V13.0314V13.0818V13.1321V13.1824L7.8571 13.2327V13.283V13.3333V13.3836V13.434V13.4843V13.5346L7.90854 13.5849V13.6352V13.6855V13.7358V13.7862V13.8365V13.8868L7.95999 13.9371V13.9874V14.0377V14.0881V14.1384V14.1887V14.239V14.2893L8.01144 14.3396V14.3899V14.4403V14.4906V14.5409V14.5912V14.6415L8.06288 14.6918V14.7421V14.7925V14.8428V14.8931V14.9434V14.9937V15.044L8.11433 15.0943V15.1447V15.195V15.2453V15.2956V15.3459V15.3962L8.16578 15.4465V15.4969V15.5472V15.5975V15.6478V15.6981L8.21723 15.7484V15.7987L8.26867 15.8491V15.8994L8.32012 15.9497H8.37157L8.42301 16H8.47446H8.52591H8.57735L8.6288 15.9497H8.68025L8.7317 15.8994L8.78314 15.8491V15.7987L8.83459 15.7484V15.6981V15.6478L8.88603 15.5975V15.5472V15.4969V15.4465V15.3962V15.3459L8.93748 15.2956V15.2453V15.195V15.1447V15.0943V15.044V14.9937V14.9434L8.98893 14.8931V14.8428V14.7925V14.7421V14.6918V14.6415V14.5912V14.5409V14.4906L9.04038 14.4403V14.3899V14.3396V14.2893V14.239V14.1887V14.1384V14.0881L9.09182 14.0377V13.9874V13.9371V13.8868V13.8365V13.7862V13.7358V13.6855L9.14327 13.6352V13.5849V13.5346V13.4843V13.434V13.3836V13.3333L9.19472 13.283V13.2327V13.1824V13.1321V13.0818V13.0314V12.9811L9.24616 12.9308V12.8805V12.8302V12.7799V12.7296V12.6792L9.29761 12.6289V12.5786V12.5283V12.478V12.4277V12.3774L9.34906 12.327V12.2767V12.2264V12.1761V12.1258L9.40051 12.0755V12.0252V11.9748V11.9245L9.45195 11.8742V11.8239V11.7736V11.7233L9.5034 11.673V11.6226V11.5723V11.522L9.55485 11.4717V11.4214V11.3711V11.3208L9.60629 11.2704V11.2201V11.1698L9.65774 11.1195V11.0692V11.0189L9.70919 10.9686V10.9182V10.8679L9.76063 10.8176V10.7673L9.81208 10.717V10.6667V10.6164L9.86353 10.566V10.5157L9.91497 10.4654V10.4151L9.96642 10.3648V10.3145L10.0179 10.2642L10.0693 10.2138V10.1635L10.1208 10.1132L10.1722 10.0629V10.0126L10.2237 9.96226L10.2751 9.91195L10.3265 9.86164L10.378 9.81132V9.76101L10.4294 9.71069L10.4809 9.66038H10.5323L10.5838 9.61006L10.6352 9.55975L10.6867 9.50943H10.7381L10.7896 9.45912L10.841 9.4088H10.8925L10.9439 9.35849H10.9954L11.0468 9.30818H11.0983L11.1497 9.25786H11.2011L11.2526 9.20755H11.304H11.3555L11.4069 9.15723H11.4584L11.5098 9.10692H11.5613H11.6127L11.6642 9.0566H11.7156H11.7671L11.8185 9.00629H11.87H11.9214H11.9729L12.0243 8.95597H12.0757H12.1272H12.1786L12.2301 8.90566H12.2815H12.333H12.3844L12.4359 8.85535H12.4873H12.5388H12.5902H12.6417L12.6931 8.80503H12.7446H12.796H12.8475H12.8989H12.9503L13.0018 8.75472H13.0532H13.1047H13.1561H13.2076L13.259 8.7044H13.3105H13.3619H13.4134H13.4648H13.5163L13.5677 8.65409H13.6192H13.6706H13.722H13.7735H13.8249L13.8764 8.60377H13.9278H13.9793H14.0307H14.0822H14.1336H14.1851L14.2365 8.55346H14.288H14.3394H14.3909H14.4423H14.4938H14.5452L14.5966 8.50315H14.6481H14.6995H14.751H14.8024H14.8539H14.9053H14.9568L15.0082 8.45283H15.0597H15.1111H15.1626H15.214H15.2655H15.3169H15.3684H15.4198L15.4712 8.40252H15.5227H15.5741H15.6256H15.677H15.7285H15.7799H15.8314H15.8828L15.9343 8.3522H15.9857H16.0372H16.0886H16.1401H16.1915L16.243 8.30189H16.2944H16.3458L16.3973 8.25157L16.4487 8.20126V8.15094L16.5002 8.10063V8.05031V8V7.94969L16.4487 7.89937V7.84906L16.3973 7.79874L16.3458 7.74843H16.2944L16.243 7.69811H16.1915H16.1401H16.0886H16.0372L15.9857 7.6478H15.9343H15.8828H15.8314H15.7799H15.7285H15.677H15.6256H15.5741L15.5227 7.59748H15.4712H15.4198H15.3684H15.3169H15.2655H15.214H15.1626H15.1111H15.0597H15.0082L14.9568 7.54717H14.9053H14.8539H14.8024H14.751H14.6995H14.6481H14.5966H14.5452L14.4938 7.49686H14.4423H14.3909H14.3394H14.288H14.2365H14.1851H14.1336L14.0822 7.44654H14.0307H13.9793H13.9278H13.8764H13.8249H13.7735L13.722 7.39623H13.6706H13.6192H13.5677H13.5163H13.4648L13.4134 7.34591H13.3619H13.3105H13.259H13.2076H13.1561H13.1047L13.0532 7.2956H13.0018H12.9503H12.8989H12.8475H12.796L12.7446 7.24528H12.6931H12.6417H12.5902L12.5388 7.19497H12.4873H12.4359H12.3844H12.333L12.2815 7.14465H12.2301H12.1786H12.1272L12.0757 7.09434H12.0243H11.9729H11.9214L11.87 7.04403H11.8185H11.7671L11.7156 6.99371H11.6642H11.6127H11.5613L11.5098 6.9434H11.4584H11.4069L11.3555 6.89308H11.304L11.2526 6.84277H11.2011L11.1497 6.79245H11.0983L11.0468 6.74214H10.9954L10.9439 6.69182H10.8925L10.841 6.64151L10.7896 6.5912H10.7381L10.6867 6.54088L10.6352 6.49057L10.5838 6.44025L10.5323 6.38994L10.4809 6.33962L10.4294 6.28931L10.378 6.23899L10.3265 6.18868L10.2751 6.13836L10.2237 6.08805V6.03774L10.1722 5.98742L10.1208 5.93711L10.0693 5.88679V5.83648L10.0179 5.78616V5.73585L9.96642 5.68553L9.91497 5.63522V5.58491L9.86353 5.53459V5.48428L9.81208 5.43396V5.38365V5.33333L9.76063 5.28302V5.2327V5.18239L9.70919 5.13208V5.08176L9.65774 5.03145V4.98113V4.93082L9.60629 4.8805V4.83019V4.77987L9.55485 4.72956V4.67924V4.62893V4.57862L9.5034 4.5283V4.47799V4.42767L9.45195 4.37736V4.32704V4.27673V4.22642V4.1761L9.40051 4.12579V4.07547V4.02516V3.97484L9.34906 3.92453V3.87421V3.8239V3.77359V3.72327V3.67296L9.29761 3.62264V3.57233V3.52201V3.4717V3.42138L9.24616 3.37107V3.32075V3.27044V3.22013V3.16981V3.1195L9.19472 3.06918V3.01887V2.96855V2.91824V2.86792V2.81761V2.7673L9.14327 2.71698V2.66667V2.61635V2.56604V2.51572V2.46541V2.41509L9.09182 2.36478V2.31447V2.26415V2.21384V2.16352V2.11321L9.04038 2.06289V2.01258V1.96226V1.91195V1.86164V1.81132V1.76101V1.71069L8.98893 1.66038V1.61006V1.55975V1.50943V1.45912V1.40881V1.35849V1.30818L8.93748 1.25786V1.20755V1.15723V1.10692V1.0566V1.00629V0.955975V0.90566V0.855346L8.88603 0.805031V0.754717V0.704403V0.654088V0.603774V0.553459V0.503145V0.45283L8.83459 0.402516V0.352201V0.301887V0.251572L8.78314 0.201258V0.150943V0.100629L8.7317 0.0503145H8.68025L8.6288 0H8.57735H8.52591H8.47446H8.42301H8.37157Z" fill="#E9C46A"/>
</svg>
