<svg width="183" height="26" viewBox="0 0 183 26" fill="none" xmlns="http://www.w3.org/2000/svg">
<path d="M6.48 21.234C5.58 21.234 4.554 21.006 3.402 20.55C3.246 20.478 3.096 20.442 2.952 20.442C2.784 20.442 2.61 20.502 2.43 20.622C2.25 20.73 2.034 20.91 1.782 21.162L0.954 17.634L0.918 17.472C0.918 17.448 0.93 17.424 0.954 17.4C0.99 17.376 1.02 17.358 1.044 17.346C1.08 17.334 1.104 17.322 1.116 17.31C1.14 17.298 1.176 17.292 1.224 17.292C1.272 17.292 1.338 17.34 1.422 17.436C2.766 19.476 4.392 20.496 6.3 20.496C7.068 20.496 7.71 20.298 8.226 19.902C8.754 19.506 9.018 18.918 9.018 18.138C9.018 17.226 8.52 16.548 7.524 16.104C7.032 15.888 6.372 15.648 5.544 15.384C5.436 15.348 5.166 15.258 4.734 15.114C4.302 14.97 3.918 14.814 3.582 14.646C2.166 13.926 1.458 12.846 1.458 11.406C1.458 10.866 1.584 10.302 1.836 9.714C2.088 9.126 2.526 8.622 3.15 8.202C3.786 7.77 4.626 7.554 5.67 7.554C6.042 7.554 6.402 7.596 6.75 7.68C7.11 7.764 7.542 7.89 8.046 8.058C8.238 8.13 8.406 8.166 8.55 8.166C8.886 8.166 9.222 7.962 9.558 7.554L10.476 10.668L10.512 10.794C10.512 10.866 10.458 10.92 10.35 10.956C10.278 10.98 10.224 10.992 10.188 10.992C10.128 10.992 10.068 10.956 10.008 10.884C9.864 10.644 9.606 10.32 9.234 9.912C8.862 9.492 8.358 9.102 7.722 8.742C7.098 8.37 6.396 8.184 5.616 8.184C4.92 8.184 4.386 8.334 4.014 8.634C3.642 8.922 3.396 9.234 3.276 9.57C3.156 9.906 3.096 10.194 3.096 10.434C3.096 11.202 3.492 11.796 4.284 12.216C4.536 12.348 4.866 12.492 5.274 12.648C5.694 12.792 6.12 12.936 6.552 13.08C7.56 13.404 8.316 13.68 8.82 13.908C9.672 14.316 10.278 14.814 10.638 15.402C10.998 15.978 11.178 16.602 11.178 17.274C11.178 18.018 10.992 18.69 10.62 19.29C10.26 19.89 9.726 20.364 9.018 20.712C8.31 21.06 7.464 21.234 6.48 21.234ZM16.9031 21.234C16.1231 21.234 15.5291 21.012 15.1211 20.568C14.7131 20.124 14.4971 19.476 14.4731 18.624V12.882H12.9071V12.27C13.7591 12.078 14.4611 11.712 15.0131 11.172C15.5771 10.62 15.9671 9.756 16.1831 8.58H16.5431V12.27H18.8291V12.882H16.5431L16.5071 17.04L16.5251 18.534C16.5851 19.65 17.0051 20.208 17.7851 20.208C18.0371 20.208 18.2531 20.16 18.4331 20.064C18.6131 19.968 18.8171 19.8 19.0451 19.56C19.1051 19.488 19.1591 19.452 19.2071 19.452C19.2551 19.452 19.3031 19.482 19.3511 19.542C19.4111 19.59 19.4411 19.638 19.4411 19.686C19.4411 19.71 19.4291 19.746 19.4051 19.794C19.0691 20.31 18.6971 20.682 18.2891 20.91C17.8811 21.126 17.4191 21.234 16.9031 21.234ZM29.1063 18.696C29.1663 18.732 29.1963 18.792 29.1963 18.876L29.1783 19.002C28.9023 19.59 28.4583 20.112 27.8463 20.568C27.2463 21.012 26.4903 21.234 25.5783 21.234C24.7023 21.234 23.9103 21.036 23.2023 20.64C22.4943 20.244 21.9363 19.704 21.5283 19.02C21.1323 18.324 20.9343 17.568 20.9343 16.752C20.9343 16.008 21.1023 15.276 21.4383 14.556C21.7863 13.836 22.2963 13.242 22.9683 12.774C23.6403 12.306 24.4383 12.072 25.3623 12.072C26.0343 12.072 26.6523 12.228 27.2163 12.54C27.7803 12.852 28.2423 13.296 28.6023 13.872C28.9743 14.448 29.2023 15.132 29.2863 15.924L23.2023 15.96C23.1903 16.092 23.1843 16.302 23.1843 16.59C23.1843 17.646 23.4303 18.534 23.9223 19.254C24.4143 19.974 25.1223 20.334 26.0463 20.334C27.1743 20.334 28.0983 19.806 28.8183 18.75C28.8543 18.69 28.9083 18.66 28.9803 18.66C28.9923 18.66 29.0343 18.672 29.1063 18.696ZM25.2903 12.576C24.8703 12.576 24.4563 12.78 24.0483 13.188C23.6523 13.584 23.3883 14.298 23.2563 15.33L27.0723 15.294V14.988C27.0603 14.232 26.8803 13.644 26.5323 13.224C26.1963 12.792 25.7823 12.576 25.2903 12.576ZM31.6571 21C31.5611 21 31.5131 20.922 31.5131 20.766C31.5131 20.634 31.5611 20.568 31.6571 20.568H31.8371C32.1851 20.568 32.4611 20.514 32.6651 20.406C32.8691 20.298 32.9711 20.064 32.9711 19.704L32.9351 9.606C32.9351 9.222 32.8451 8.97 32.6651 8.85C32.4971 8.73 32.2091 8.658 31.8011 8.634C31.6811 8.634 31.6211 8.544 31.6211 8.364C31.6211 8.292 31.6571 8.25 31.7291 8.238C32.0771 8.154 32.5871 8.04 33.2591 7.896C33.9311 7.752 34.5251 7.632 35.0411 7.536V19.704C35.0411 20.064 35.1371 20.298 35.3291 20.406C35.5331 20.514 35.8091 20.568 36.1571 20.568H36.3551C36.4391 20.568 36.4811 20.634 36.4811 20.766C36.4811 20.922 36.4391 21 36.3551 21H31.6571ZM38.5646 21C38.4686 21 38.4206 20.922 38.4206 20.766C38.4206 20.634 38.4686 20.568 38.5646 20.568H38.7446C39.0926 20.568 39.3686 20.514 39.5726 20.406C39.7766 20.298 39.8786 20.064 39.8786 19.704L39.8426 9.606C39.8426 9.222 39.7526 8.97 39.5726 8.85C39.4046 8.73 39.1166 8.658 38.7086 8.634C38.5886 8.634 38.5286 8.544 38.5286 8.364C38.5286 8.292 38.5646 8.25 38.6366 8.238C38.9846 8.154 39.4946 8.04 40.1666 7.896C40.8386 7.752 41.4326 7.632 41.9486 7.536V19.704C41.9486 20.064 42.0446 20.298 42.2366 20.406C42.4406 20.514 42.7166 20.568 43.0646 20.568H43.2626C43.3466 20.568 43.3886 20.634 43.3886 20.766C43.3886 20.922 43.3466 21 43.2626 21H38.5646ZM54.7061 19.416C54.8021 19.416 54.8501 19.458 54.8501 19.542L54.8321 19.65C54.6881 20.106 54.4181 20.478 54.0221 20.766C53.6381 21.054 53.2361 21.198 52.8161 21.198C51.9521 21.198 51.3941 20.796 51.1421 19.992C50.6741 20.4 50.1521 20.712 49.5761 20.928C49.0001 21.144 48.4301 21.252 47.8661 21.252C47.1221 21.252 46.5401 21.084 46.1201 20.748C45.7001 20.4 45.4901 19.914 45.4901 19.29C45.4901 18.378 45.9881 17.652 46.9841 17.112C47.2601 16.968 47.5721 16.854 47.9201 16.77C48.2681 16.674 48.7361 16.566 49.3241 16.446C49.5041 16.41 49.7621 16.356 50.0981 16.284C50.4461 16.2 50.7521 16.122 51.0161 16.05V15.24C51.0161 14.556 50.9921 14.07 50.9441 13.782C50.9081 13.482 50.8121 13.236 50.6561 13.044C50.4281 12.744 50.0741 12.594 49.5941 12.594C49.2701 12.594 48.9941 12.696 48.7661 12.9C48.5381 13.092 48.3521 13.47 48.2081 14.034C48.1001 14.442 47.9381 14.748 47.7221 14.952C47.5181 15.144 47.2781 15.24 47.0021 15.24C46.7261 15.24 46.4801 15.162 46.2641 15.006C46.0481 14.838 45.9401 14.604 45.9401 14.304C45.9401 14.076 46.0301 13.794 46.2101 13.458C46.4021 13.11 46.7681 12.792 47.3081 12.504C47.8481 12.216 48.6101 12.072 49.5941 12.072C50.3141 12.072 50.9201 12.168 51.4121 12.36C51.9041 12.552 52.2881 12.81 52.5641 13.134C52.7801 13.374 52.9241 13.638 52.9961 13.926C53.0681 14.214 53.1041 14.568 53.1041 14.988C53.1041 15.804 53.0981 16.428 53.0861 16.86L53.0681 18.876C53.0681 19.392 53.1281 19.728 53.2481 19.884C53.3801 20.04 53.5361 20.118 53.7161 20.118C53.8601 20.118 54.0101 20.07 54.1661 19.974C54.3221 19.866 54.4601 19.71 54.5801 19.506C54.6161 19.446 54.6581 19.416 54.7061 19.416ZM49.0721 20.262C49.3961 20.262 49.7261 20.196 50.0621 20.064C50.4101 19.932 50.7281 19.74 51.0161 19.488C50.9801 19.212 50.9621 18.936 50.9621 18.66L50.9981 16.554C49.8461 16.842 49.0001 17.196 48.4601 17.616C47.9201 18.024 47.6501 18.534 47.6501 19.146C47.6501 19.47 47.7761 19.74 48.0281 19.956C48.2801 20.16 48.6281 20.262 49.0721 20.262Z" fill="#34495E"/>
<path d="M65.8875 0L65.8424 0.0440252L65.7974 0.0880503V0.132075L65.7524 0.176101V0.220126L65.7074 0.264151V0.308176V0.352201V0.396226V0.440252V0.484277L65.6624 0.528302V0.572327V0.616352V0.660377V0.704403V0.748428V0.792453V0.836478V0.880503L65.6174 0.924528V0.968553V1.01258V1.0566V1.10063V1.14465V1.18868V1.2327L65.5723 1.27673V1.32075V1.36478V1.40881V1.45283V1.49686V1.54088V1.58491L65.5273 1.62893V1.67296V1.71698V1.76101V1.80503V1.84906V1.89308V1.93711L65.4823 1.98113V2.02516V2.06918V2.11321V2.15723V2.20126L65.4373 2.24528V2.28931V2.33333V2.37736V2.42138V2.46541V2.50943L65.3923 2.55346V2.59748V2.64151V2.68553V2.72956V2.77358L65.3473 2.81761V2.86164V2.90566V2.94969V2.99371V3.03774L65.3023 3.08176V3.12579V3.16981V3.21384V3.25786L65.2572 3.30189V3.34591V3.38994V3.43396V3.47799L65.2122 3.52201V3.56604V3.61006V3.65409V3.69811L65.1672 3.74214V3.78616V3.83019V3.87421L65.1222 3.91824V3.96226V4.00629V4.05031L65.0772 4.09434V4.13836V4.18239L65.0322 4.22642V4.27044V4.31447L64.9871 4.35849V4.40252V4.44654L64.9421 4.49057V4.53459V4.57862L64.8971 4.62264V4.66667L64.8521 4.71069V4.75472V4.79874L64.8071 4.84277V4.88679L64.7621 4.93082V4.97484L64.717 5.01887L64.672 5.06289V5.10692L64.627 5.15094V5.19497L64.582 5.23899L64.537 5.28302L64.492 5.32704V5.37107L64.4469 5.41509L64.4019 5.45912L64.3569 5.50314L64.3119 5.54717L64.2669 5.5912L64.2219 5.63522L64.1768 5.67924L64.1318 5.72327H64.0868L64.0418 5.7673L63.9968 5.81132L63.9518 5.85535H63.9068L63.8617 5.89937H63.8167L63.7717 5.9434H63.7267L63.6817 5.98742H63.6367L63.5916 6.03145H63.5466L63.5016 6.07547H63.4566H63.4116L63.3666 6.1195H63.3215H63.2765H63.2315L63.1865 6.16352H63.1415H63.0965L63.0514 6.20755H63.0064H62.9614H62.9164L62.8714 6.25157H62.8264H62.7814L62.7363 6.2956H62.6913H62.6463H62.6013H62.5563L62.5113 6.33962H62.4662H62.4212H62.3762H62.3312L62.2862 6.38365H62.2412H62.1961H62.1511H62.1061H62.0611L62.0161 6.42767H61.9711H61.926H61.881H61.836H61.791L61.746 6.4717H61.701H61.6559H61.6109H61.5659H61.5209H61.4759L61.4309 6.51572H61.3859H61.3408H61.2958H61.2508H61.2058H61.1608L61.1158 6.55975H61.0707H61.0257H60.9807H60.9357H60.8907H60.8457H60.8006L60.7556 6.60377H60.7106H60.6656H60.6206H60.5756H60.5305H60.4855H60.4405H60.3955L60.3505 6.6478H60.3055H60.2605H60.2154H60.1704H60.1254H60.0804H60.0354H59.9904H59.9453H59.9003L59.8553 6.69182H59.8103H59.7653H59.7203H59.6752H59.6302H59.5852H59.5402H59.4952H59.4502L59.4051 6.73585H59.3601H59.3151H59.2701H59.2251H59.1801L59.135 6.77987H59.09L59.045 6.8239L59 6.86792V6.91195V6.95597V7V7.04402V7.08805V7.13208L59.045 7.1761V7.22013H59.09L59.135 7.26415H59.1801H59.2251L59.2701 7.30818H59.3151H59.3601H59.4051H59.4502H59.4952L59.5402 7.3522H59.5852H59.6302H59.6752H59.7203H59.7653H59.8103H59.8553H59.9003L59.9453 7.39623H59.9904H60.0354H60.0804H60.1254H60.1704H60.2154H60.2605L60.3055 7.44025H60.3505H60.3955H60.4405H60.4855H60.5305H60.5756H60.6206L60.6656 7.48428H60.7106H60.7556H60.8006H60.8457H60.8907H60.9357L60.9807 7.5283H61.0257H61.0707H61.1158H61.1608H61.2058H61.2508L61.2958 7.57233H61.3408H61.3859H61.4309H61.4759H61.5209L61.5659 7.61635H61.6109H61.6559H61.701H61.746H61.791L61.836 7.66038H61.881H61.926H61.9711H62.0161H62.0611L62.1061 7.7044H62.1511H62.1961H62.2412H62.2862L62.3312 7.74843H62.3762H62.4212H62.4662L62.5113 7.79245H62.5563H62.6013H62.6463L62.6913 7.83648H62.7363H62.7814H62.8264L62.8714 7.8805H62.9164H62.9614H63.0064L63.0514 7.92453H63.0965H63.1415L63.1865 7.96855H63.2315H63.2765L63.3215 8.01258H63.3666H63.4116L63.4566 8.0566H63.5016H63.5466L63.5916 8.10063H63.6367L63.6817 8.14465H63.7267L63.7717 8.18868H63.8167L63.8617 8.2327L63.9068 8.27673H63.9518L63.9968 8.32076L64.0418 8.36478L64.0868 8.4088L64.1318 8.45283H64.1768L64.2219 8.49685L64.2669 8.54088L64.3119 8.58491L64.3569 8.62893L64.4019 8.67296V8.71698L64.4469 8.76101L64.492 8.80503L64.537 8.84906L64.582 8.89308V8.93711L64.627 8.98113L64.672 9.02516V9.06918L64.717 9.11321V9.15723L64.7621 9.20126V9.24528L64.8071 9.28931V9.33333L64.8521 9.37736V9.42138L64.8971 9.46541V9.50943L64.9421 9.55346V9.59748V9.64151L64.9871 9.68553V9.72956L65.0322 9.77358V9.81761V9.86164V9.90566L65.0772 9.94969V9.99371V10.0377L65.1222 10.0818V10.1258V10.1698V10.2138L65.1672 10.2579V10.3019V10.3459V10.3899L65.2122 10.434V10.478V10.522V10.566L65.2572 10.6101V10.6541V10.6981V10.7421V10.7862L65.3023 10.8302V10.8742V10.9182V10.9623L65.3473 11.0063V11.0503V11.0943V11.1384V11.1824V11.2264V11.2704L65.3923 11.3145V11.3585V11.4025V11.4465V11.4906V11.5346L65.4373 11.5786V11.6226V11.6667V11.7107V11.7547V11.7987V11.8428L65.4823 11.8868V11.9308V11.9748V12.0189V12.0629V12.1069V12.1509L65.5273 12.195V12.239V12.283V12.327V12.3711V12.4151V12.4591V12.5031L65.5723 12.5472V12.5912V12.6352V12.6792V12.7233V12.7673V12.8113L65.6174 12.8553V12.8994V12.9434V12.9874V13.0314V13.0755V13.1195V13.1635L65.6624 13.2075V13.2516V13.2956V13.3396V13.3836V13.4277V13.4717L65.7074 13.5157V13.5597V13.6038V13.6478V13.6918V13.7358L65.7524 13.7799V13.8239L65.7974 13.8679V13.9119L65.8424 13.956H65.8875L65.9325 14H65.9775H66.0225H66.0675L66.1125 13.956H66.1576L66.2026 13.9119L66.2476 13.8679V13.8239L66.2926 13.7799V13.7358V13.6918L66.3376 13.6478V13.6038V13.5597V13.5157V13.4717V13.4277L66.3826 13.3836V13.3396V13.2956V13.2516V13.2075V13.1635V13.1195V13.0755L66.4277 13.0314V12.9874V12.9434V12.8994V12.8553V12.8113V12.7673V12.7233V12.6792L66.4727 12.6352V12.5912V12.5472V12.5031V12.4591V12.4151V12.3711V12.327L66.5177 12.283V12.239V12.195V12.1509V12.1069V12.0629V12.0189V11.9748L66.5627 11.9308V11.8868V11.8428V11.7987V11.7547V11.7107V11.6667L66.6077 11.6226V11.5786V11.5346V11.4906V11.4465V11.4025V11.3585L66.6527 11.3145V11.2704V11.2264V11.1824V11.1384V11.0943L66.6977 11.0503V11.0063V10.9623V10.9182V10.8742V10.8302L66.7428 10.7862V10.7421V10.6981V10.6541V10.6101L66.7878 10.566V10.522V10.478V10.434L66.8328 10.3899V10.3459V10.3019V10.2579L66.8778 10.2138V10.1698V10.1258V10.0818L66.9228 10.0377V9.99371V9.94969V9.90566L66.9678 9.86164V9.81761V9.77358L67.0129 9.72956V9.68553V9.64151L67.0579 9.59748V9.55346V9.50943L67.1029 9.46541V9.42138L67.1479 9.37736V9.33333V9.28931L67.1929 9.24528V9.20126L67.2379 9.15723V9.11321L67.283 9.06918V9.02516L67.328 8.98113L67.373 8.93711V8.89308L67.418 8.84906L67.463 8.80503V8.76101L67.508 8.71698L67.5531 8.67296L67.5981 8.62893L67.6431 8.58491V8.54088L67.6881 8.49685L67.7331 8.45283H67.7781L67.8232 8.4088L67.8682 8.36478L67.9132 8.32076H67.9582L68.0032 8.27673L68.0482 8.2327H68.0932L68.1383 8.18868H68.1833L68.2283 8.14465H68.2733L68.3183 8.10063H68.3633L68.4084 8.0566H68.4534H68.4984L68.5434 8.01258H68.5884L68.6334 7.96855H68.6785H68.7235L68.7685 7.92453H68.8135H68.8585L68.9035 7.8805H68.9486H68.9936H69.0386L69.0836 7.83648H69.1286H69.1736H69.2186L69.2637 7.79245H69.3087H69.3537H69.3987L69.4437 7.74843H69.4887H69.5338H69.5788H69.6238L69.6688 7.7044H69.7138H69.7588H69.8039H69.8489H69.8939L69.9389 7.66038H69.9839H70.0289H70.074H70.119L70.164 7.61635H70.209H70.254H70.299H70.3441H70.3891L70.4341 7.57233H70.4791H70.5241H70.5691H70.6141H70.6592L70.7042 7.5283H70.7492H70.7942H70.8392H70.8842H70.9293H70.9743L71.0193 7.48428H71.0643H71.1093H71.1543H71.1994H71.2444H71.2894L71.3344 7.44025H71.3794H71.4244H71.4695H71.5145H71.5595H71.6045H71.6495L71.6945 7.39623H71.7395H71.7846H71.8296H71.8746H71.9196H71.9646H72.0096H72.0547L72.0997 7.3522H72.1447H72.1897H72.2347H72.2797H72.3248H72.3698H72.4148H72.4598L72.5048 7.30818H72.5498H72.5949H72.6399H72.6849H72.7299L72.7749 7.26415H72.8199H72.865L72.91 7.22013L72.955 7.1761V7.13208L73 7.08805V7.04402V7V6.95597L72.955 6.91195V6.86792L72.91 6.8239L72.865 6.77987H72.8199L72.7749 6.73585H72.7299H72.6849H72.6399H72.5949L72.5498 6.69182H72.5048H72.4598H72.4148H72.3698H72.3248H72.2797H72.2347H72.1897L72.1447 6.6478H72.0997H72.0547H72.0096H71.9646H71.9196H71.8746H71.8296H71.7846H71.7395H71.6945L71.6495 6.60377H71.6045H71.5595H71.5145H71.4695H71.4244H71.3794H71.3344H71.2894L71.2444 6.55975H71.1994H71.1543H71.1093H71.0643H71.0193H70.9743H70.9293L70.8842 6.51572H70.8392H70.7942H70.7492H70.7042H70.6592H70.6141L70.5691 6.4717H70.5241H70.4791H70.4341H70.3891H70.3441L70.299 6.42767H70.254H70.209H70.164H70.119H70.074H70.0289L69.9839 6.38365H69.9389H69.8939H69.8489H69.8039H69.7588L69.7138 6.33962H69.6688H69.6238H69.5788L69.5338 6.2956H69.4887H69.4437H69.3987H69.3537L69.3087 6.25157H69.2637H69.2186H69.1736L69.1286 6.20755H69.0836H69.0386H68.9936L68.9486 6.16352H68.9035H68.8585L68.8135 6.1195H68.7685H68.7235H68.6785L68.6334 6.07547H68.5884H68.5434L68.4984 6.03145H68.4534L68.4084 5.98742H68.3633L68.3183 5.9434H68.2733L68.2283 5.89937H68.1833L68.1383 5.85535H68.0932L68.0482 5.81132L68.0032 5.7673H67.9582L67.9132 5.72327L67.8682 5.67924L67.8232 5.63522L67.7781 5.5912L67.7331 5.54717L67.6881 5.50314L67.6431 5.45912L67.5981 5.41509L67.5531 5.37107L67.508 5.32704V5.28302L67.463 5.23899L67.418 5.19497L67.373 5.15094V5.10692L67.328 5.06289V5.01887L67.283 4.97484L67.2379 4.93082V4.88679L67.1929 4.84277V4.79874L67.1479 4.75472V4.71069V4.66667L67.1029 4.62264V4.57862V4.53459L67.0579 4.49057V4.44654L67.0129 4.40252V4.35849V4.31447L66.9678 4.27044V4.22642V4.18239L66.9228 4.13836V4.09434V4.05031V4.00629L66.8778 3.96226V3.91824V3.87421L66.8328 3.83019V3.78616V3.74214V3.69811V3.65409L66.7878 3.61006V3.56604V3.52201V3.47799L66.7428 3.43396V3.38994V3.34591V3.30189V3.25786V3.21384L66.6977 3.16981V3.12579V3.08176V3.03774V2.99371L66.6527 2.94969V2.90566V2.86164V2.81761V2.77358V2.72956L66.6077 2.68553V2.64151V2.59748V2.55346V2.50943V2.46541V2.42138L66.5627 2.37736V2.33333V2.28931V2.24528V2.20126V2.15723V2.11321L66.5177 2.06918V2.02516V1.98113V1.93711V1.89308V1.84906L66.4727 1.80503V1.76101V1.71698V1.67296V1.62893V1.58491V1.54088V1.49686L66.4277 1.45283V1.40881V1.36478V1.32075V1.27673V1.2327V1.18868V1.14465L66.3826 1.10063V1.0566V1.01258V0.968553V0.924528V0.880503V0.836478V0.792453V0.748428L66.3376 0.704403V0.660377V0.616352V0.572327V0.528302V0.484277V0.440252V0.396226L66.2926 0.352201V0.308176V0.264151V0.220126L66.2476 0.176101V0.132075V0.0880503L66.2026 0.0440252H66.1576L66.1125 0H66.0675H66.0225H65.9775H65.9325H65.8875Z" fill="#34495E"/>
<path d="M91.994 20.55C92.078 20.55 92.12 20.628 92.12 20.784C92.12 20.928 92.078 21 91.994 21H85.964C85.88 21 85.838 20.928 85.838 20.784C85.838 20.628 85.88 20.55 85.964 20.55C86.348 20.55 86.636 20.508 86.828 20.424C87.032 20.34 87.134 20.202 87.134 20.01C87.134 19.806 86.996 19.512 86.72 19.128L84.704 16.518L83.21 14.592L82.58 15.24L82.076 15.762V19.11C82.076 19.674 82.214 20.058 82.49 20.262C82.766 20.454 83.132 20.55 83.588 20.55H83.804C83.888 20.55 83.93 20.622 83.93 20.766C83.93 20.922 83.888 21 83.804 21H77.972C77.888 21 77.846 20.922 77.846 20.766C77.846 20.622 77.888 20.55 77.972 20.55H78.206C78.662 20.55 79.022 20.448 79.286 20.244C79.562 20.04 79.7 19.662 79.7 19.11V9.624C79.7 9.06 79.562 8.682 79.286 8.49C79.01 8.286 78.65 8.184 78.206 8.184H77.972C77.888 8.184 77.846 8.106 77.846 7.95C77.846 7.806 77.888 7.734 77.972 7.734H83.804C83.9 7.734 83.948 7.806 83.948 7.95C83.948 8.106 83.9 8.184 83.804 8.184H83.588C83.12 8.184 82.748 8.286 82.472 8.49C82.208 8.682 82.076 9.06 82.076 9.624V14.808C83.036 13.8 84.044 12.732 85.1 11.604C86.168 10.476 86.816 9.78 87.044 9.516C87.224 9.3 87.314 9.102 87.314 8.922C87.314 8.694 87.188 8.514 86.936 8.382C86.684 8.238 86.342 8.166 85.91 8.166C85.826 8.166 85.784 8.088 85.784 7.932C85.784 7.8 85.826 7.734 85.91 7.734H91.22C91.316 7.734 91.364 7.8 91.364 7.932C91.364 8.088 91.316 8.166 91.22 8.166C90.104 8.166 89.072 8.622 88.124 9.534C87.944 9.69 86.972 10.686 85.208 12.522L84.884 12.846L85.82 14.088C87.752 16.704 88.952 18.3 89.42 18.876C89.792 19.344 90.08 19.686 90.284 19.902C90.5 20.106 90.74 20.268 91.004 20.388C91.268 20.496 91.598 20.55 91.994 20.55ZM103.764 20.568C103.86 20.568 103.908 20.64 103.908 20.784C103.908 20.928 103.86 21 103.764 21H99.2276C99.1436 21 99.1016 20.928 99.1016 20.784C99.1016 20.64 99.1436 20.568 99.2276 20.568H99.4436C99.7796 20.568 100.032 20.514 100.2 20.406C100.38 20.298 100.47 20.064 100.47 19.704L100.488 16.536C100.488 15.96 100.476 15.456 100.452 15.024C100.428 14.4 100.302 13.902 100.074 13.53C99.8456 13.158 99.4556 12.972 98.9036 12.972C98.5076 12.972 98.1296 13.104 97.7696 13.368C97.4096 13.632 97.0916 14.004 96.8156 14.484V19.704C96.8156 20.064 96.9056 20.298 97.0856 20.406C97.2656 20.514 97.5236 20.568 97.8596 20.568H98.0756C98.1596 20.568 98.2016 20.64 98.2016 20.784C98.2016 20.928 98.1596 21 98.0756 21H93.5216C93.4256 21 93.3776 20.928 93.3776 20.784C93.3776 20.64 93.4256 20.568 93.5216 20.568H93.7016C94.0496 20.568 94.3136 20.514 94.4936 20.406C94.6736 20.298 94.7636 20.064 94.7636 19.704L94.7456 14.16C94.7456 13.788 94.6496 13.542 94.4576 13.422C94.2776 13.29 93.9836 13.212 93.5756 13.188C93.4676 13.176 93.4136 13.08 93.4136 12.9C93.4136 12.828 93.4496 12.786 93.5216 12.774C93.6416 12.726 94.7396 12.492 96.8156 12.072V13.674C97.1516 13.182 97.5536 12.792 98.0216 12.504C98.4896 12.216 99.0056 12.072 99.5696 12.072C100.218 12.072 100.764 12.204 101.208 12.468C101.652 12.732 101.982 13.074 102.198 13.494C102.414 13.914 102.528 14.358 102.54 14.826V16.482V19.704C102.54 20.064 102.63 20.298 102.81 20.406C102.99 20.514 103.248 20.568 103.584 20.568H103.764ZM110.397 21.234C109.509 21.234 108.723 21.018 108.039 20.586C107.355 20.142 106.827 19.566 106.455 18.858C106.083 18.15 105.897 17.412 105.897 16.644C105.897 15.852 106.083 15.108 106.455 14.412C106.827 13.704 107.355 13.14 108.039 12.72C108.723 12.288 109.509 12.072 110.397 12.072C111.285 12.072 112.071 12.288 112.755 12.72C113.451 13.14 113.985 13.704 114.357 14.412C114.741 15.108 114.933 15.852 114.933 16.644C114.933 17.412 114.741 18.15 114.357 18.858C113.985 19.566 113.451 20.142 112.755 20.586C112.071 21.018 111.285 21.234 110.397 21.234ZM110.397 20.748C111.129 20.748 111.699 20.352 112.107 19.56C112.527 18.756 112.737 17.784 112.737 16.644C112.737 15.48 112.533 14.514 112.125 13.746C111.717 12.966 111.141 12.576 110.397 12.576C109.677 12.576 109.113 12.966 108.705 13.746C108.297 14.526 108.093 15.492 108.093 16.644C108.093 17.784 108.297 18.756 108.705 19.56C109.113 20.352 109.677 20.748 110.397 20.748ZM120.638 21.234C119.858 21.234 119.264 21.012 118.856 20.568C118.448 20.124 118.232 19.476 118.208 18.624V12.882H116.642V12.27C117.494 12.078 118.196 11.712 118.748 11.172C119.312 10.62 119.702 9.756 119.918 8.58H120.278V12.27H122.564V12.882H120.278L120.242 17.04L120.26 18.534C120.32 19.65 120.74 20.208 121.52 20.208C121.772 20.208 121.988 20.16 122.168 20.064C122.348 19.968 122.552 19.8 122.78 19.56C122.84 19.488 122.894 19.452 122.942 19.452C122.99 19.452 123.038 19.482 123.086 19.542C123.146 19.59 123.176 19.638 123.176 19.686C123.176 19.71 123.164 19.746 123.14 19.794C122.804 20.31 122.432 20.682 122.024 20.91C121.616 21.126 121.154 21.234 120.638 21.234Z" fill="#34495E"/>
<path d="M135.56 21.234C134.54 21.234 133.514 21 132.482 20.532C131.462 20.064 130.604 19.332 129.908 18.336C129.224 17.34 128.882 16.098 128.882 14.61C128.882 13.422 129.152 12.288 129.692 11.208C130.232 10.116 130.982 9.234 131.942 8.562C132.902 7.89 133.976 7.554 135.164 7.554C135.524 7.554 135.872 7.596 136.208 7.68C136.556 7.764 136.928 7.878 137.324 8.022C137.792 8.19 138.11 8.274 138.278 8.274C138.578 8.274 138.926 8.112 139.322 7.788L140.024 10.776L140.06 10.956C140.06 11.028 140.012 11.088 139.916 11.136C139.892 11.148 139.862 11.154 139.826 11.154C139.754 11.154 139.688 11.118 139.628 11.046C139.244 10.482 138.884 10.014 138.548 9.642C138.224 9.27 137.792 8.94 137.252 8.652C136.712 8.352 136.076 8.202 135.344 8.202C134.276 8.202 133.454 8.61 132.878 9.426C132.302 10.242 131.924 11.124 131.744 12.072C131.564 13.02 131.474 13.818 131.474 14.466C131.474 15.75 131.684 16.842 132.104 17.742C132.536 18.63 133.082 19.296 133.742 19.74C134.414 20.184 135.116 20.406 135.848 20.406C136.844 20.406 137.654 20.154 138.278 19.65C138.914 19.146 139.508 18.462 140.06 17.598C140.12 17.538 140.174 17.508 140.222 17.508C140.246 17.508 140.288 17.526 140.348 17.562C140.432 17.61 140.474 17.67 140.474 17.742C140.474 17.766 140.462 17.802 140.438 17.85C139.982 18.726 139.358 19.512 138.566 20.208C137.786 20.892 136.784 21.234 135.56 21.234ZM152 19.416C152.096 19.416 152.144 19.458 152.144 19.542L152.126 19.65C151.982 20.106 151.712 20.478 151.316 20.766C150.932 21.054 150.53 21.198 150.11 21.198C149.246 21.198 148.688 20.796 148.436 19.992C147.968 20.4 147.446 20.712 146.87 20.928C146.294 21.144 145.724 21.252 145.16 21.252C144.416 21.252 143.834 21.084 143.414 20.748C142.994 20.4 142.784 19.914 142.784 19.29C142.784 18.378 143.282 17.652 144.278 17.112C144.554 16.968 144.866 16.854 145.214 16.77C145.562 16.674 146.03 16.566 146.618 16.446C146.798 16.41 147.056 16.356 147.392 16.284C147.74 16.2 148.046 16.122 148.31 16.05V15.24C148.31 14.556 148.286 14.07 148.238 13.782C148.202 13.482 148.106 13.236 147.95 13.044C147.722 12.744 147.368 12.594 146.888 12.594C146.564 12.594 146.288 12.696 146.06 12.9C145.832 13.092 145.646 13.47 145.502 14.034C145.394 14.442 145.232 14.748 145.016 14.952C144.812 15.144 144.572 15.24 144.296 15.24C144.02 15.24 143.774 15.162 143.558 15.006C143.342 14.838 143.234 14.604 143.234 14.304C143.234 14.076 143.324 13.794 143.504 13.458C143.696 13.11 144.062 12.792 144.602 12.504C145.142 12.216 145.904 12.072 146.888 12.072C147.608 12.072 148.214 12.168 148.706 12.36C149.198 12.552 149.582 12.81 149.858 13.134C150.074 13.374 150.218 13.638 150.29 13.926C150.362 14.214 150.398 14.568 150.398 14.988C150.398 15.804 150.392 16.428 150.38 16.86L150.362 18.876C150.362 19.392 150.422 19.728 150.542 19.884C150.674 20.04 150.83 20.118 151.01 20.118C151.154 20.118 151.304 20.07 151.46 19.974C151.616 19.866 151.754 19.71 151.874 19.506C151.91 19.446 151.952 19.416 152 19.416ZM146.366 20.262C146.69 20.262 147.02 20.196 147.356 20.064C147.704 19.932 148.022 19.74 148.31 19.488C148.274 19.212 148.256 18.936 148.256 18.66L148.292 16.554C147.14 16.842 146.294 17.196 145.754 17.616C145.214 18.024 144.944 18.534 144.944 19.146C144.944 19.47 145.07 19.74 145.322 19.956C145.574 20.16 145.922 20.262 146.366 20.262ZM169.556 20.568C169.64 20.568 169.682 20.64 169.682 20.784C169.682 20.928 169.64 21 169.556 21H164.984C164.9 21 164.858 20.928 164.858 20.784C164.858 20.64 164.9 20.568 164.984 20.568H165.2C165.536 20.568 165.794 20.514 165.974 20.406C166.154 20.298 166.244 20.064 166.244 19.704L166.262 16.896C166.262 16.152 166.25 15.528 166.226 15.024C166.19 14.4 166.058 13.902 165.83 13.53C165.614 13.158 165.236 12.972 164.696 12.972C164.312 12.972 163.94 13.098 163.58 13.35C163.232 13.602 162.92 13.95 162.644 14.394C162.668 14.586 162.68 14.736 162.68 14.844C162.692 15.108 162.698 15.63 162.698 16.41L162.68 19.704C162.68 20.064 162.77 20.298 162.95 20.406C163.13 20.514 163.388 20.568 163.724 20.568H163.922C164.006 20.568 164.048 20.64 164.048 20.784C164.048 20.928 164.006 21 163.922 21H159.368C159.284 21 159.242 20.928 159.242 20.784C159.242 20.64 159.284 20.568 159.368 20.568H159.584C159.92 20.568 160.178 20.514 160.358 20.406C160.538 20.298 160.628 20.064 160.628 19.704V16.932C160.628 16.164 160.616 15.528 160.592 15.024C160.568 14.4 160.442 13.902 160.214 13.53C159.998 13.158 159.614 12.972 159.062 12.972C158.654 12.972 158.27 13.104 157.91 13.368C157.55 13.632 157.232 14.004 156.956 14.484V19.704C156.956 20.064 157.046 20.298 157.226 20.406C157.406 20.514 157.664 20.568 158 20.568H158.216C158.3 20.568 158.342 20.64 158.342 20.784C158.342 20.928 158.3 21 158.216 21H153.662C153.578 21 153.536 20.928 153.536 20.784C153.536 20.64 153.578 20.568 153.662 20.568H153.842C154.19 20.568 154.454 20.514 154.634 20.406C154.814 20.298 154.904 20.064 154.904 19.704L154.886 14.178C154.874 13.794 154.778 13.542 154.598 13.422C154.43 13.302 154.136 13.23 153.716 13.206C153.656 13.194 153.614 13.158 153.59 13.098C153.566 13.038 153.554 12.978 153.554 12.918C153.554 12.834 153.59 12.786 153.662 12.774C153.782 12.726 154.88 12.492 156.956 12.072V13.674C157.292 13.182 157.694 12.792 158.162 12.504C158.63 12.216 159.146 12.072 159.71 12.072C160.43 12.072 161.024 12.234 161.492 12.558C161.96 12.882 162.29 13.308 162.482 13.836C163.25 12.66 164.198 12.072 165.326 12.072C165.974 12.072 166.52 12.204 166.964 12.468C167.42 12.732 167.756 13.08 167.972 13.512C168.188 13.932 168.302 14.376 168.314 14.844C168.326 15.108 168.332 15.63 168.332 16.41C168.332 17.358 168.32 18.456 168.296 19.704C168.296 20.064 168.386 20.298 168.566 20.406C168.746 20.514 169.004 20.568 169.34 20.568H169.556ZM177.746 12.072C178.43 12.072 179.06 12.27 179.636 12.666C180.212 13.05 180.662 13.584 180.986 14.268C181.322 14.94 181.49 15.702 181.49 16.554C181.49 17.43 181.328 18.228 181.004 18.948C180.68 19.656 180.23 20.214 179.654 20.622C179.09 21.03 178.448 21.234 177.728 21.234C176.696 21.234 175.778 20.868 174.974 20.136V23.826C174.974 24.186 175.064 24.42 175.244 24.528C175.424 24.636 175.682 24.69 176.018 24.69H176.198C176.282 24.69 176.324 24.756 176.324 24.888C176.324 25.044 176.282 25.122 176.198 25.122H171.644C171.56 25.122 171.518 25.044 171.518 24.888C171.518 24.756 171.56 24.69 171.644 24.69H171.842C172.19 24.69 172.454 24.636 172.634 24.528C172.814 24.42 172.904 24.186 172.904 23.826L172.868 14.178C172.868 13.794 172.778 13.542 172.598 13.422C172.43 13.302 172.136 13.23 171.716 13.206C171.608 13.194 171.554 13.098 171.554 12.918C171.554 12.834 171.59 12.786 171.662 12.774L174.974 12.072V13.188C175.31 12.864 175.712 12.6 176.18 12.396C176.648 12.18 177.17 12.072 177.746 12.072ZM177.008 20.442C177.368 20.442 177.722 20.298 178.07 20.01C178.418 19.71 178.7 19.26 178.916 18.66C179.144 18.06 179.258 17.334 179.258 16.482C179.258 15.738 179.162 15.096 178.97 14.556C178.778 14.004 178.508 13.584 178.16 13.296C177.824 12.996 177.446 12.846 177.026 12.846C176.702 12.846 176.348 12.942 175.964 13.134C175.592 13.314 175.262 13.554 174.974 13.854V19.452C175.274 19.752 175.604 19.992 175.964 20.172C176.336 20.352 176.684 20.442 177.008 20.442Z" fill="#34495E"/>
</svg>
