<svg width="20" height="20" viewBox="0 0 20 20" fill="none" xmlns="http://www.w3.org/2000/svg">
<mask id="path-1-inside-1_348_4382" fill="white">
<path d="M9.99998 11.062L2.13098 18.931C1.99098 19.071 1.81898 19.146 1.61498 19.156C1.41098 19.166 1.22898 19.091 1.06898 18.931C0.908979 18.771 0.828979 18.594 0.828979 18.4C0.828979 18.206 0.908979 18.029 1.06898 17.869L8.93798 10L1.06898 2.131C0.928979 1.991 0.853979 1.819 0.843979 1.615C0.833979 1.411 0.908979 1.229 1.06898 1.069C1.22898 0.909 1.40598 0.829 1.59998 0.829C1.79398 0.829 1.97098 0.909 2.13098 1.069L9.99998 8.938L17.869 1.069C18.009 0.929 18.1815 0.854 18.3865 0.844C18.5895 0.834 18.771 0.909 18.931 1.069C19.091 1.229 19.171 1.406 19.171 1.6C19.171 1.794 19.091 1.971 18.931 2.131L11.062 10L18.931 17.869C19.071 18.009 19.146 18.1815 19.156 18.3865C19.166 18.5895 19.091 18.771 18.931 18.931C18.771 19.091 18.594 19.171 18.4 19.171C18.206 19.171 18.029 19.091 17.869 18.931L9.99998 11.062Z"/>
</mask>
<path d="M9.99998 11.062L11.4142 9.64779L9.99998 8.23357L8.58577 9.64779L9.99998 11.062ZM2.13098 18.931L3.54519 20.3452L2.13098 18.931ZM1.06898 17.869L2.48319 19.2832H2.48319L1.06898 17.869ZM8.93798 10L10.3522 11.4142L11.7664 10L10.3522 8.58579L8.93798 10ZM9.99998 8.938L8.58577 10.3522L9.99998 11.7664L11.4142 10.3522L9.99998 8.938ZM17.869 1.069L19.2832 2.48321V2.48321L17.869 1.069ZM18.3865 0.844L18.4839 2.84162L18.4849 2.84158L18.3865 0.844ZM18.931 2.131L20.3452 3.54521L18.931 2.131ZM11.062 10L9.64777 8.58579L8.23355 10L9.64777 11.4142L11.062 10ZM19.156 18.3865L17.1584 18.4839L17.1584 18.4849L19.156 18.3865ZM9.99998 11.062L8.58577 9.64779L0.716766 17.5168L2.13098 18.931L3.54519 20.3452L11.4142 12.4762L9.99998 11.062ZM2.13098 18.931L0.716766 17.5168C0.813808 17.4197 0.941768 17.3269 1.09759 17.259C1.25241 17.1914 1.39867 17.1642 1.51706 17.1584L1.61498 19.156L1.7129 21.1536C2.3956 21.1201 3.04203 20.8484 3.54519 20.3452L2.13098 18.931ZM1.61498 19.156L1.51706 17.1584C1.69777 17.1495 1.89594 17.1792 2.08748 17.2581C2.27418 17.335 2.40426 17.4379 2.48319 17.5168L1.06898 18.931L-0.345234 20.3452C0.16595 20.8564 0.880761 21.1944 1.7129 21.1536L1.61498 19.156ZM1.06898 18.931L2.48319 17.5168C2.54614 17.5797 2.63718 17.6902 2.71147 17.8545C2.78832 18.0245 2.82898 18.2126 2.82898 18.4H0.828979H-1.17102C-1.17102 19.2127 -0.81293 19.8775 -0.345234 20.3452L1.06898 18.931ZM0.828979 18.4H2.82898C2.82898 18.5874 2.78832 18.7755 2.71147 18.9455C2.63718 19.1098 2.54614 19.2203 2.48319 19.2832L1.06898 17.869L-0.345234 16.4548C-0.81293 16.9225 -1.17102 17.5873 -1.17102 18.4H0.828979ZM1.06898 17.869L2.48319 19.2832L10.3522 11.4142L8.93798 10L7.52377 8.58579L-0.345235 16.4548L1.06898 17.869ZM8.93798 10L10.3522 8.58579L2.48319 0.716787L1.06898 2.131L-0.345234 3.54521L7.52377 11.4142L8.93798 10ZM1.06898 2.131L2.48319 0.716787C2.58023 0.813826 2.67308 0.941783 2.74102 1.0976C2.80853 1.25242 2.83578 1.39869 2.84158 1.51708L0.843979 1.615L-1.15362 1.71292C-1.12016 2.39563 -0.848392 3.04206 -0.345234 3.54521L1.06898 2.131ZM0.843979 1.615L2.84158 1.51708C2.85044 1.6978 2.82081 1.89597 2.74187 2.08751C2.66494 2.2742 2.56212 2.40429 2.48319 2.48321L1.06898 1.069L-0.345234 -0.345213C-0.85641 0.165962 -1.19441 0.880771 -1.15362 1.71292L0.843979 1.615ZM1.06898 1.069L2.48319 2.48321C2.42025 2.54616 2.30982 2.63721 2.14545 2.71149C1.97543 2.78834 1.78741 2.829 1.59998 2.829V0.829V-1.171C0.787305 -1.171 0.122461 -0.812909 -0.345234 -0.345213L1.06898 1.069ZM1.59998 0.829V2.829C1.41255 2.829 1.22453 2.78834 1.05451 2.71149C0.890144 2.63721 0.77971 2.54616 0.716766 2.48321L2.13098 1.069L3.54519 -0.345213C3.0775 -0.812909 2.41265 -1.171 1.59998 -1.171V0.829ZM2.13098 1.069L0.716766 2.48321L8.58577 10.3522L9.99998 8.938L11.4142 7.52379L3.54519 -0.345213L2.13098 1.069ZM9.99998 8.938L11.4142 10.3522L19.2832 2.48321L17.869 1.069L16.4548 -0.345214L8.58577 7.52379L9.99998 8.938ZM17.869 1.069L19.2832 2.48321C19.1852 2.58118 19.0566 2.67414 18.9008 2.74189C18.7461 2.80913 18.6007 2.83593 18.4839 2.84162L18.3865 0.844L18.289 -1.15362C17.6079 -1.1204 16.9599 -0.850358 16.4548 -0.345213L17.869 1.069ZM18.3865 0.844L18.4849 2.84158C18.3021 2.85058 18.1028 2.82039 17.9111 2.74116C17.7244 2.66402 17.5948 2.56128 17.5168 2.48321L18.931 1.069L20.3452 -0.345213C19.8363 -0.854144 19.1224 -1.19468 18.2881 -1.15358L18.3865 0.844ZM18.931 1.069L17.5168 2.48321C17.4538 2.42027 17.3628 2.30984 17.2885 2.14547C17.2116 1.97545 17.171 1.78743 17.171 1.6H19.171H21.171C21.171 0.787326 20.8129 0.122482 20.3452 -0.345213L18.931 1.069ZM19.171 1.6H17.171C17.171 1.41257 17.2116 1.22455 17.2885 1.05453C17.3628 0.890165 17.4538 0.779731 17.5168 0.716787L18.931 2.131L20.3452 3.54521C20.8129 3.07752 21.171 2.41267 21.171 1.6H19.171ZM18.931 2.131L17.5168 0.716787L9.64777 8.58579L11.062 10L12.4762 11.4142L20.3452 3.54521L18.931 2.131ZM11.062 10L9.64777 11.4142L17.5168 19.2832L18.931 17.869L20.3452 16.4548L12.4762 8.58579L11.062 10ZM18.931 17.869L17.5168 19.2832C17.4188 19.1852 17.3258 19.0566 17.2581 18.9008C17.1908 18.7462 17.1641 18.6007 17.1584 18.4839L19.156 18.3865L21.1536 18.2891C21.1204 17.6079 20.8503 16.9599 20.3452 16.4548L18.931 17.869ZM19.156 18.3865L17.1584 18.4849C17.1494 18.3021 17.1796 18.1028 17.2588 17.9111C17.336 17.7244 17.4387 17.5949 17.5168 17.5168L18.931 18.931L20.3452 20.3452C20.8541 19.8363 21.1947 19.1224 21.1536 18.2881L19.156 18.3865ZM18.931 18.931L17.5168 17.5168C17.5797 17.4538 17.6901 17.3628 17.8545 17.2885C18.0245 17.2117 18.2126 17.171 18.4 17.171V19.171V21.171C19.2127 21.171 19.8775 20.8129 20.3452 20.3452L18.931 18.931ZM18.4 19.171V17.171C18.5874 17.171 18.7754 17.2117 18.9455 17.2885C19.1098 17.3628 19.2203 17.4538 19.2832 17.5168L17.869 18.931L16.4548 20.3452C16.9225 20.8129 17.5873 21.171 18.4 21.171V19.171ZM17.869 18.931L19.2832 17.5168L11.4142 9.64779L9.99998 11.062L8.58577 12.4762L16.4548 20.3452L17.869 18.931Z" fill="#F9F7F1" mask="url(#path-1-inside-1_348_4382)"/>
</svg>
