<svg width="16" height="16" viewBox="0 0 16 16" fill="none" xmlns="http://www.w3.org/2000/svg">
<path d="M7.87138 0L7.81994 0.0503145L7.76849 0.100629V0.150943L7.71704 0.201258V0.251572L7.6656 0.301887V0.352201V0.402516V0.45283V0.503145V0.553459L7.61415 0.603774V0.654088V0.704403V0.754717V0.805031V0.855346V0.90566V0.955975V1.00629L7.5627 1.0566V1.10692V1.15723V1.20755V1.25786V1.30818V1.35849V1.40881L7.51125 1.45912V1.50943V1.55975V1.61006V1.66038V1.71069V1.76101V1.81132L7.45981 1.86164V1.91195V1.96226V2.01258V2.06289V2.11321V2.16352V2.21384L7.40836 2.26415V2.31447V2.36478V2.41509V2.46541V2.51572L7.35691 2.56604V2.61635V2.66667V2.71698V2.7673V2.81761V2.86792L7.30547 2.91824V2.96855V3.01887V3.06918V3.1195V3.16981L7.25402 3.22013V3.27044V3.32075V3.37107V3.42138V3.4717L7.20257 3.52201V3.57233V3.62264V3.67296V3.72327L7.15112 3.77359V3.8239V3.87421V3.92453V3.97484L7.09968 4.02516V4.07547V4.12579V4.1761V4.22642L7.04823 4.27673V4.32704V4.37736V4.42767L6.99678 4.47799V4.5283V4.57862V4.62893L6.94534 4.67924V4.72956V4.77987L6.89389 4.83019V4.8805V4.93082L6.84244 4.98113V5.03145V5.08176L6.791 5.13208V5.18239V5.2327L6.73955 5.28302V5.33333L6.6881 5.38365V5.43396V5.48428L6.63666 5.53459V5.58491L6.58521 5.63522V5.68553L6.53376 5.73585L6.48232 5.78616V5.83648L6.43087 5.88679V5.93711L6.37942 5.98742L6.32797 6.03774L6.27653 6.08805V6.13836L6.22508 6.18868L6.17363 6.23899L6.12219 6.28931L6.07074 6.33962L6.01929 6.38994L5.96785 6.44025L5.9164 6.49057L5.86495 6.54088H5.81351L5.76206 6.5912L5.71061 6.64151L5.65916 6.69182H5.60772L5.55627 6.74214H5.50482L5.45338 6.79245H5.40193L5.35048 6.84277H5.29904L5.24759 6.89308H5.19614L5.14469 6.9434H5.09325H5.0418L4.99035 6.99371H4.93891H4.88746H4.83601L4.78457 7.04403H4.73312H4.68167L4.63023 7.09434H4.57878H4.52733H4.47588L4.42444 7.14465H4.37299H4.32154L4.2701 7.19497H4.21865H4.1672H4.11576H4.06431L4.01286 7.24528H3.96142H3.90997H3.85852H3.80707L3.75563 7.2956H3.70418H3.65273H3.60129H3.54984H3.49839L3.44695 7.34591H3.3955H3.34405H3.2926H3.24116H3.18971L3.13826 7.39623H3.08682H3.03537H2.98392H2.93248H2.88103H2.82958L2.77814 7.44654H2.72669H2.67524H2.62379H2.57235H2.5209H2.46945L2.41801 7.49686H2.36656H2.31511H2.26367H2.21222H2.16077H2.10932H2.05788L2.00643 7.54717H1.95498H1.90354H1.85209H1.80064H1.7492H1.69775H1.6463H1.59486L1.54341 7.59748H1.49196H1.44051H1.38907H1.33762H1.28617H1.23473H1.18328H1.13183H1.08039H1.02894L0.977492 7.6478H0.926045H0.874598H0.823151H0.771704H0.720257H0.66881H0.617363H0.565916H0.51447L0.463023 7.69811H0.411576H0.360129H0.308682H0.257235H0.205788L0.154341 7.74843H0.102894L0.0514469 7.79874L0 7.84906V7.89937V7.94969V8V8.05031V8.10063V8.15094L0.0514469 8.20126V8.25157H0.102894L0.154341 8.30189H0.205788H0.257235L0.308682 8.3522H0.360129H0.411576H0.463023H0.51447H0.565916L0.617363 8.40252H0.66881H0.720257H0.771704H0.823151H0.874598H0.926045H0.977492H1.02894L1.08039 8.45283H1.13183H1.18328H1.23473H1.28617H1.33762H1.38907H1.44051L1.49196 8.50315H1.54341H1.59486H1.6463H1.69775H1.7492H1.80064H1.85209L1.90354 8.55346H1.95498H2.00643H2.05788H2.10932H2.16077H2.21222L2.26367 8.60377H2.31511H2.36656H2.41801H2.46945H2.5209H2.57235L2.62379 8.65409H2.67524H2.72669H2.77814H2.82958H2.88103L2.93248 8.7044H2.98392H3.03537H3.08682H3.13826H3.18971L3.24116 8.75472H3.2926H3.34405H3.3955H3.44695H3.49839L3.54984 8.80503H3.60129H3.65273H3.70418H3.75563L3.80707 8.85535H3.85852H3.90997H3.96142L4.01286 8.90566H4.06431H4.11576H4.1672L4.21865 8.95597H4.2701H4.32154H4.37299L4.42444 9.00629H4.47588H4.52733H4.57878L4.63023 9.0566H4.68167H4.73312L4.78457 9.10692H4.83601H4.88746L4.93891 9.15723H4.99035H5.0418L5.09325 9.20755H5.14469H5.19614L5.24759 9.25786H5.29904L5.35048 9.30818H5.40193L5.45338 9.35849H5.50482L5.55627 9.4088L5.60772 9.45912H5.65916L5.71061 9.50943L5.76206 9.55975L5.81351 9.61006L5.86495 9.66038H5.9164L5.96785 9.71069L6.01929 9.76101L6.07074 9.81132L6.12219 9.86164L6.17363 9.91195V9.96226L6.22508 10.0126L6.27653 10.0629L6.32797 10.1132L6.37942 10.1635V10.2138L6.43087 10.2642L6.48232 10.3145V10.3648L6.53376 10.4151V10.4654L6.58521 10.5157V10.566L6.63666 10.6164V10.6667L6.6881 10.717V10.7673L6.73955 10.8176V10.8679L6.791 10.9182V10.9686V11.0189L6.84244 11.0692V11.1195L6.89389 11.1698V11.2201V11.2704V11.3208L6.94534 11.3711V11.4214V11.4717L6.99678 11.522V11.5723V11.6226V11.673L7.04823 11.7233V11.7736V11.8239V11.8742L7.09968 11.9245V11.9748V12.0252V12.0755L7.15112 12.1258V12.1761V12.2264V12.2767V12.327L7.20257 12.3774V12.4277V12.478V12.5283L7.25402 12.5786V12.6289V12.6792V12.7296V12.7799V12.8302V12.8805L7.30547 12.9308V12.9811V13.0314V13.0818V13.1321V13.1824L7.35691 13.2327V13.283V13.3333V13.3836V13.434V13.4843V13.5346L7.40836 13.5849V13.6352V13.6855V13.7358V13.7862V13.8365V13.8868L7.45981 13.9371V13.9874V14.0377V14.0881V14.1384V14.1887V14.239V14.2893L7.51125 14.3396V14.3899V14.4403V14.4906V14.5409V14.5912V14.6415L7.5627 14.6918V14.7421V14.7925V14.8428V14.8931V14.9434V14.9937V15.044L7.61415 15.0943V15.1447V15.195V15.2453V15.2956V15.3459V15.3962L7.6656 15.4465V15.4969V15.5472V15.5975V15.6478V15.6981L7.71704 15.7484V15.7987L7.76849 15.8491V15.8994L7.81994 15.9497H7.87138L7.92283 16H7.97428H8.02572H8.07717L8.12862 15.9497H8.18006L8.23151 15.8994L8.28296 15.8491V15.7987L8.33441 15.7484V15.6981V15.6478L8.38585 15.5975V15.5472V15.4969V15.4465V15.3962V15.3459L8.4373 15.2956V15.2453V15.195V15.1447V15.0943V15.044V14.9937V14.9434L8.48875 14.8931V14.8428V14.7925V14.7421V14.6918V14.6415V14.5912V14.5409V14.4906L8.54019 14.4403V14.3899V14.3396V14.2893V14.239V14.1887V14.1384V14.0881L8.59164 14.0377V13.9874V13.9371V13.8868V13.8365V13.7862V13.7358V13.6855L8.64309 13.6352V13.5849V13.5346V13.4843V13.434V13.3836V13.3333L8.69453 13.283V13.2327V13.1824V13.1321V13.0818V13.0314V12.9811L8.74598 12.9308V12.8805V12.8302V12.7799V12.7296V12.6792L8.79743 12.6289V12.5786V12.5283V12.478V12.4277V12.3774L8.84888 12.327V12.2767V12.2264V12.1761V12.1258L8.90032 12.0755V12.0252V11.9748V11.9245L8.95177 11.8742V11.8239V11.7736V11.7233L9.00322 11.673V11.6226V11.5723V11.522L9.05466 11.4717V11.4214V11.3711V11.3208L9.10611 11.2704V11.2201V11.1698L9.15756 11.1195V11.0692V11.0189L9.209 10.9686V10.9182V10.8679L9.26045 10.8176V10.7673L9.3119 10.717V10.6667V10.6164L9.36334 10.566V10.5157L9.41479 10.4654V10.4151L9.46624 10.3648V10.3145L9.51768 10.2642L9.56913 10.2138V10.1635L9.62058 10.1132L9.67203 10.0629V10.0126L9.72347 9.96226L9.77492 9.91195L9.82637 9.86164L9.87781 9.81132V9.76101L9.92926 9.71069L9.98071 9.66038H10.0322L10.0836 9.61006L10.135 9.55975L10.1865 9.50943H10.2379L10.2894 9.45912L10.3408 9.4088H10.3923L10.4437 9.35849H10.4952L10.5466 9.30818H10.5981L10.6495 9.25786H10.701L10.7524 9.20755H10.8039H10.8553L10.9068 9.15723H10.9582L11.0096 9.10692H11.0611H11.1125L11.164 9.0566H11.2154H11.2669L11.3183 9.00629H11.3698H11.4212H11.4727L11.5241 8.95597H11.5756H11.627H11.6785L11.7299 8.90566H11.7814H11.8328H11.8842L11.9357 8.85535H11.9871H12.0386H12.09H12.1415L12.1929 8.80503H12.2444H12.2958H12.3473H12.3987H12.4502L12.5016 8.75472H12.5531H12.6045H12.6559H12.7074L12.7588 8.7044H12.8103H12.8617H12.9132H12.9646H13.0161L13.0675 8.65409H13.119H13.1704H13.2219H13.2733H13.3248L13.3762 8.60377H13.4277H13.4791H13.5305H13.582H13.6334H13.6849L13.7363 8.55346H13.7878H13.8392H13.8907H13.9421H13.9936H14.045L14.0965 8.50315H14.1479H14.1994H14.2508H14.3022H14.3537H14.4051H14.4566L14.508 8.45283H14.5595H14.6109H14.6624H14.7138H14.7653H14.8167H14.8682H14.9196L14.9711 8.40252H15.0225H15.074H15.1254H15.1768H15.2283H15.2797H15.3312H15.3826L15.4341 8.3522H15.4855H15.537H15.5884H15.6399H15.6913L15.7428 8.30189H15.7942H15.8457L15.8971 8.25157L15.9486 8.20126V8.15094L16 8.10063V8.05031V8V7.94969L15.9486 7.89937V7.84906L15.8971 7.79874L15.8457 7.74843H15.7942L15.7428 7.69811H15.6913H15.6399H15.5884H15.537L15.4855 7.6478H15.4341H15.3826H15.3312H15.2797H15.2283H15.1768H15.1254H15.074L15.0225 7.59748H14.9711H14.9196H14.8682H14.8167H14.7653H14.7138H14.6624H14.6109H14.5595H14.508L14.4566 7.54717H14.4051H14.3537H14.3022H14.2508H14.1994H14.1479H14.0965H14.045L13.9936 7.49686H13.9421H13.8907H13.8392H13.7878H13.7363H13.6849H13.6334L13.582 7.44654H13.5305H13.4791H13.4277H13.3762H13.3248H13.2733L13.2219 7.39623H13.1704H13.119H13.0675H13.0161H12.9646L12.9132 7.34591H12.8617H12.8103H12.7588H12.7074H12.6559H12.6045L12.5531 7.2956H12.5016H12.4502H12.3987H12.3473H12.2958L12.2444 7.24528H12.1929H12.1415H12.09L12.0386 7.19497H11.9871H11.9357H11.8842H11.8328L11.7814 7.14465H11.7299H11.6785H11.627L11.5756 7.09434H11.5241H11.4727H11.4212L11.3698 7.04403H11.3183H11.2669L11.2154 6.99371H11.164H11.1125H11.0611L11.0096 6.9434H10.9582H10.9068L10.8553 6.89308H10.8039L10.7524 6.84277H10.701L10.6495 6.79245H10.5981L10.5466 6.74214H10.4952L10.4437 6.69182H10.3923L10.3408 6.64151L10.2894 6.5912H10.2379L10.1865 6.54088L10.135 6.49057L10.0836 6.44025L10.0322 6.38994L9.98071 6.33962L9.92926 6.28931L9.87781 6.23899L9.82637 6.18868L9.77492 6.13836L9.72347 6.08805V6.03774L9.67203 5.98742L9.62058 5.93711L9.56913 5.88679V5.83648L9.51768 5.78616V5.73585L9.46624 5.68553L9.41479 5.63522V5.58491L9.36334 5.53459V5.48428L9.3119 5.43396V5.38365V5.33333L9.26045 5.28302V5.2327V5.18239L9.209 5.13208V5.08176L9.15756 5.03145V4.98113V4.93082L9.10611 4.8805V4.83019V4.77987L9.05466 4.72956V4.67924V4.62893V4.57862L9.00322 4.5283V4.47799V4.42767L8.95177 4.37736V4.32704V4.27673V4.22642V4.1761L8.90032 4.12579V4.07547V4.02516V3.97484L8.84888 3.92453V3.87421V3.8239V3.77359V3.72327V3.67296L8.79743 3.62264V3.57233V3.52201V3.4717V3.42138L8.74598 3.37107V3.32075V3.27044V3.22013V3.16981V3.1195L8.69453 3.06918V3.01887V2.96855V2.91824V2.86792V2.81761V2.7673L8.64309 2.71698V2.66667V2.61635V2.56604V2.51572V2.46541V2.41509L8.59164 2.36478V2.31447V2.26415V2.21384V2.16352V2.11321L8.54019 2.06289V2.01258V1.96226V1.91195V1.86164V1.81132V1.76101V1.71069L8.48875 1.66038V1.61006V1.55975V1.50943V1.45912V1.40881V1.35849V1.30818L8.4373 1.25786V1.20755V1.15723V1.10692V1.0566V1.00629V0.955975V0.90566V0.855346L8.38585 0.805031V0.754717V0.704403V0.654088V0.603774V0.553459V0.503145V0.45283L8.33441 0.402516V0.352201V0.301887V0.251572L8.28296 0.201258V0.150943V0.100629L8.23151 0.0503145H8.18006L8.12862 0H8.07717H8.02572H7.97428H7.92283H7.87138Z" fill="#E9C46A"/>
</svg>
